<?xml version="1.0" encoding="UTF-8" standalone="no"?>
<!-- Created with Inkscape (http://www.inkscape.org/) -->

<svg
   width="109.40217mm"
   height="30.690189mm"
   viewBox="0 0 109.40217 30.690189"
   version="1.1"
   id="svg1"
   inkscape:version="1.3 (0e150ed6c4, 2023-07-21)"
   sodipodi:docname="Figure_5_CALM_dynamics.svg"
   xmlns:inkscape="http://www.inkscape.org/namespaces/inkscape"
   xmlns:sodipodi="http://sodipodi.sourceforge.net/DTD/sodipodi-0.dtd"
   xmlns="http://www.w3.org/2000/svg"
   xmlns:svg="http://www.w3.org/2000/svg">
  <sodipodi:namedview
     id="namedview1"
     pagecolor="#ffffff"
     bordercolor="#000000"
     borderopacity="0.25"
     inkscape:showpageshadow="2"
     inkscape:pageopacity="0.0"
     inkscape:pagecheckerboard="0"
     inkscape:deskcolor="#d1d1d1"
     inkscape:document-units="mm"
     inkscape:zoom="0.89701773"
     inkscape:cx="309.35843"
     inkscape:cy="404.67428"
     inkscape:window-width="1920"
     inkscape:window-height="970"
     inkscape:window-x="-12"
     inkscape:window-y="406"
     inkscape:window-maximized="1"
     inkscape:current-layer="layer1" />
  <defs
     id="defs1">
    <clipPath
       clipPathUnits="userSpaceOnUse"
       id="clipPath1516">
      <path
         d="M 0,0 H 595.276 V 841.89 H 0 Z"
         transform="translate(-166.62378,-409.95481)"
         id="path1516" />
    </clipPath>
    <clipPath
       clipPathUnits="userSpaceOnUse"
       id="clipPath1518">
      <path
         d="M 0,0 H 595.276 V 841.89 H 0 Z"
         transform="translate(-182.233,-422.53131)"
         id="path1518" />
    </clipPath>
    <clipPath
       clipPathUnits="userSpaceOnUse"
       id="clipPath1520">
      <path
         d="M 0,0 H 595.276 V 841.89 H 0 Z"
         transform="translate(-194.8105,-406.92421)"
         id="path1520" />
    </clipPath>
    <clipPath
       clipPathUnits="userSpaceOnUse"
       id="clipPath1522">
      <path
         d="M 0,0 H 595.276 V 841.89 H 0 Z"
         transform="translate(-179.2024,-394.34571)"
         id="path1522" />
    </clipPath>
    <clipPath
       clipPathUnits="userSpaceOnUse"
       id="clipPath1524">
      <path
         d="M 0,0 H 595.276 V 841.89 H 0 Z"
         transform="translate(-180.21183,-422.60251)"
         id="path1524" />
    </clipPath>
    <clipPath
       clipPathUnits="userSpaceOnUse"
       id="clipPath1526">
      <path
         d="M 0,0 H 595.276 V 841.89 H 0 Z"
         transform="translate(-256.98723,-409.95481)"
         id="path1526" />
    </clipPath>
    <clipPath
       clipPathUnits="userSpaceOnUse"
       id="clipPath1528">
      <path
         d="M 0,0 H 595.276 V 841.89 H 0 Z"
         transform="translate(-272.59623,-422.53131)"
         id="path1528" />
    </clipPath>
    <clipPath
       clipPathUnits="userSpaceOnUse"
       id="clipPath1530">
      <path
         d="M 0,0 H 595.276 V 841.89 H 0 Z"
         transform="translate(-285.17381,-406.92421)"
         id="path1530" />
    </clipPath>
    <clipPath
       clipPathUnits="userSpaceOnUse"
       id="clipPath1532">
      <path
         d="M 0,0 H 595.276 V 841.89 H 0 Z"
         transform="translate(-269.56563,-394.34571)"
         id="path1532" />
    </clipPath>
    <clipPath
       clipPathUnits="userSpaceOnUse"
       id="clipPath1534">
      <path
         d="M 0,0 H 595.276 V 841.89 H 0 Z"
         transform="translate(-270.57498,-422.60251)"
         id="path1534" />
    </clipPath>
    <clipPath
       clipPathUnits="userSpaceOnUse"
       id="clipPath1536">
      <path
         d="M 0,0 H 595.276 V 841.89 H 0 Z"
         transform="translate(-178.27533,-408.43951)"
         id="path1536" />
    </clipPath>
    <clipPath
       clipPathUnits="userSpaceOnUse"
       id="clipPath1541">
      <path
         d="M 0,0 H 595.276 V 841.89 H 0 Z"
         transform="translate(-268.63863,-408.43951)"
         id="path1541" />
    </clipPath>
    <clipPath
       clipPathUnits="userSpaceOnUse"
       id="clipPath1546">
      <path
         d="M 0,0 H 595.276 V 841.89 H 0 Z"
         transform="translate(-88.610202,-408.43951)"
         id="path1546" />
    </clipPath>
    <clipPath
       clipPathUnits="userSpaceOnUse"
       id="clipPath1551">
      <path
         d="M 0,0 H 595.276 V 841.89 H 0 Z"
         transform="translate(-346.39833,-408.43951)"
         id="path1551" />
    </clipPath>
    <clipPath
       clipPathUnits="userSpaceOnUse"
       id="clipPath1553">
      <path
         d="M 0,0 H 595.276 V 841.89 H 0 Z"
         transform="translate(-178.27533,-451.80961)"
         id="path1553" />
    </clipPath>
    <clipPath
       clipPathUnits="userSpaceOnUse"
       id="clipPath1558">
      <path
         d="M 0,0 H 595.276 V 841.89 H 0 Z"
         transform="translate(-268.63863,-451.80961)"
         id="path1558" />
    </clipPath>
    <clipPath
       clipPathUnits="userSpaceOnUse"
       id="clipPath1563">
      <path
         d="M 0,0 H 595.276 V 841.89 H 0 Z"
         transform="translate(-88.610202,-451.80961)"
         id="path1563" />
    </clipPath>
    <clipPath
       clipPathUnits="userSpaceOnUse"
       id="clipPath1568">
      <path
         d="M 0,0 H 595.276 V 841.89 H 0 Z"
         transform="translate(-346.39833,-451.80961)"
         id="path1568" />
    </clipPath>
    <clipPath
       clipPathUnits="userSpaceOnUse"
       id="clipPath1580">
      <path
         d="M 0,0 H 595.276 V 841.89 H 0 Z"
         transform="translate(-173.3563,-412.22371)"
         id="path1580" />
    </clipPath>
    <clipPath
       clipPathUnits="userSpaceOnUse"
       id="clipPath1582">
      <path
         d="M 0,0 H 595.276 V 841.89 H 0 Z"
         transform="translate(-266.03898,-404.18761)"
         id="path1582" />
    </clipPath>
  </defs>
  <g
     inkscape:label="Calque 1"
     inkscape:groupmode="layer"
     id="layer1"
     transform="translate(-50.270818,-133.08534)">
    <path
       id="path1515"
       d="M 0,0 C 0.721,6.783 6.23,12.138 13.083,12.621"
       style="fill:none;stroke:#c18f07;stroke-width:0.5;stroke-linecap:butt;stroke-linejoin:miter;stroke-miterlimit:4;stroke-dasharray:1.012, 1.012;stroke-dashoffset:0;stroke-opacity:1"
       transform="matrix(0.35277776,0,0,-0.35277776,86.252332,158.15249)"
       clip-path="url(#clipPath1516)"
       inkscape:export-filename="Figure_perotto2.pdf"
       inkscape:export-xdpi="96"
       inkscape:export-ydpi="96" />
    <path
       id="path1517"
       d="M 0,0 C 6.784,-0.721 12.139,-6.229 12.622,-13.081"
       style="fill:none;stroke:#c18f07;stroke-width:0.5;stroke-linecap:butt;stroke-linejoin:miter;stroke-miterlimit:4;stroke-dasharray:1.012, 1.012;stroke-dashoffset:0;stroke-opacity:1"
       transform="matrix(0.35277776,0,0,-0.35277776,91.758919,153.71578)"
       clip-path="url(#clipPath1518)" />
    <path
       id="path1519"
       d="M 0,0 C -0.721,-6.785 -6.229,-12.14 -13.081,-12.623"
       style="fill:none;stroke:#c18f07;stroke-width:0.5;stroke-linecap:butt;stroke-linejoin:miter;stroke-miterlimit:4;stroke-dasharray:1.012, 1.012;stroke-dashoffset:0;stroke-opacity:1"
       transform="matrix(0.35277776,0,0,-0.35277776,96.195982,159.22162)"
       clip-path="url(#clipPath1520)" />
    <path
       id="path1521"
       d="M 0,0 C -6.784,0.721 -12.14,6.229 -12.623,13.082"
       style="fill:none;stroke:#c18f07;stroke-width:0.5;stroke-linecap:butt;stroke-linejoin:miter;stroke-miterlimit:4;stroke-dasharray:1.012, 1.012;stroke-dashoffset:0;stroke-opacity:1"
       transform="matrix(0.35277776,0,0,-0.35277776,90.689791,163.65904)"
       clip-path="url(#clipPath1522)" />
    <path
       id="path1523"
       d="M 0,0 C 0.168,0.006 0.337,0.009 0.506,0.009 0.675,0.009 0.844,0.006 1.012,0 M 14.67,-13.657 c 0.006,-0.168 0.009,-0.337 0.009,-0.506 0,-0.169 -0.003,-0.338 -0.009,-0.506 M 1.012,-28.328 c -0.168,-0.006 -0.337,-0.009 -0.506,-0.009 -0.169,0 -0.338,0.003 -0.506,0.009 m -13.659,13.659 c -0.006,0.168 -0.009,0.337 -0.009,0.506 0,0.169 0.003,0.338 0.009,0.506"
       style="fill:none;stroke:#c18f07;stroke-width:0.5;stroke-linecap:butt;stroke-linejoin:miter;stroke-miterlimit:4;stroke-dasharray:none;stroke-opacity:1"
       transform="matrix(0.35277776,0,0,-0.35277776,91.045894,153.69067)"
       clip-path="url(#clipPath1524)" />
    <path
       id="path1525"
       d="M 0,0 C 0.721,6.783 6.23,12.138 13.082,12.621"
       style="fill:none;stroke:#c18f07;stroke-width:0.5;stroke-linecap:butt;stroke-linejoin:miter;stroke-miterlimit:4;stroke-dasharray:1.012, 1.012;stroke-dashoffset:0;stroke-opacity:1"
       transform="matrix(0.35277776,0,0,-0.35277776,118.13055,158.15249)"
       clip-path="url(#clipPath1526)" />
    <path
       id="path1527"
       d="M 0,0 C 6.784,-0.721 12.139,-6.229 12.622,-13.081"
       style="fill:none;stroke:#c18f07;stroke-width:0.5;stroke-linecap:butt;stroke-linejoin:miter;stroke-miterlimit:4;stroke-dasharray:1.012, 1.012;stroke-dashoffset:0;stroke-opacity:1"
       transform="matrix(0.35277776,0,0,-0.35277776,123.63706,153.71578)"
       clip-path="url(#clipPath1528)" />
    <path
       id="path1529"
       d="M 0,0 C -0.721,-6.785 -6.229,-12.14 -13.082,-12.623"
       style="fill:none;stroke:#c18f07;stroke-width:0.5;stroke-linecap:butt;stroke-linejoin:miter;stroke-miterlimit:4;stroke-dasharray:1.012, 1.012;stroke-dashoffset:0;stroke-opacity:1"
       transform="matrix(0.35277776,0,0,-0.35277776,128.07415,159.22162)"
       clip-path="url(#clipPath1530)" />
    <path
       id="path1531"
       d="M 0,0 C -6.784,0.721 -12.14,6.229 -12.623,13.082"
       style="fill:none;stroke:#c18f07;stroke-width:0.5;stroke-linecap:butt;stroke-linejoin:miter;stroke-miterlimit:4;stroke-dasharray:1.012, 1.012;stroke-dashoffset:0;stroke-opacity:1"
       transform="matrix(0.35277776,0,0,-0.35277776,122.56793,163.65904)"
       clip-path="url(#clipPath1532)" />
    <path
       id="path1533"
       d="M 0,0 C 0.168,0.006 0.337,0.009 0.506,0.009 0.675,0.009 0.844,0.006 1.012,0 M 14.67,-13.657 c 0.006,-0.168 0.009,-0.337 0.009,-0.506 0,-0.169 -0.003,-0.338 -0.009,-0.506 M 1.012,-28.328 c -0.168,-0.006 -0.337,-0.009 -0.506,-0.009 -0.169,0 -0.338,0.003 -0.506,0.009 m -13.659,13.659 c -0.006,0.168 -0.009,0.337 -0.009,0.506 0,0.169 0.003,0.338 0.009,0.506"
       style="fill:none;stroke:#c18f07;stroke-width:0.5;stroke-linecap:butt;stroke-linejoin:miter;stroke-miterlimit:4;stroke-dasharray:none;stroke-opacity:1"
       transform="matrix(0.35277776,0,0,-0.35277776,122.924,153.69067)"
       clip-path="url(#clipPath1534)" />
    <path
       id="path1535"
       d="m 0,0 c 0,7.826 6.347,14.172 14.174,14.172 7.827,0 14.173,-6.346 14.173,-14.172 0,-7.828 -6.346,-14.174 -14.173,-14.174 C 6.347,-14.174 0,-7.828 0,0"
       style="fill:#f3e5bf;fill-opacity:1;fill-rule:nonzero;stroke:none"
       transform="matrix(0.35277776,0,0,-0.35277776,90.362739,158.68706)"
       clip-path="url(#clipPath1536)" />
    <path
       id="path1537"
       d="m 100.33904,158.68706 h 15.99988"
       style="fill:none;stroke:#c18f07;stroke-width:0.176389;stroke-linecap:butt;stroke-linejoin:miter;stroke-miterlimit:4;stroke-dasharray:none;stroke-opacity:1" />
    <path
       id="path1538"
       d="m 116.08175,159.56967 1.52329,-0.87983 -1.52329,-0.87912 z"
       style="fill:#c18f07;fill-opacity:1;fill-rule:nonzero;stroke:none;stroke-width:0.352778" />
    <path
       id="path1539"
       d="m 108.33913,160.68714 h -4.0005 v -3.99979 h 4.0005 z"
       style="fill:#ffffff;fill-opacity:1;fill-rule:nonzero;stroke:#c18f07;stroke-width:0.176389;stroke-linecap:butt;stroke-linejoin:miter;stroke-miterlimit:4;stroke-dasharray:none;stroke-opacity:1" />
    <path
       id="path1540"
       d="m 0,0 c 0,7.826 6.347,14.172 14.174,14.172 7.827,0 14.173,-6.346 14.173,-14.172 0,-7.828 -6.346,-14.174 -14.173,-14.174 C 6.347,-14.174 0,-7.828 0,0"
       style="fill:#f3e5bf;fill-opacity:1;fill-rule:nonzero;stroke:none"
       transform="matrix(0.35277776,0,0,-0.35277776,122.2409,158.68706)"
       clip-path="url(#clipPath1541)" />
    <path
       id="path1542"
       d="m 132.2172,158.68706 h 15.99988"
       style="fill:none;stroke:#c18f07;stroke-width:0.176389;stroke-linecap:butt;stroke-linejoin:miter;stroke-miterlimit:4;stroke-dasharray:none;stroke-opacity:1" />
    <path
       id="path1543"
       d="m 147.95991,159.56967 1.52329,-0.87983 -1.52329,-0.87912 z"
       style="fill:#c18f07;fill-opacity:1;fill-rule:nonzero;stroke:none;stroke-width:0.352778" />
    <path
       id="path1544"
       d="m 140.21754,160.68714 h -4.00015 v -3.99979 h 4.00015 z"
       style="fill:#ffffff;fill-opacity:1;fill-rule:nonzero;stroke:#c18f07;stroke-width:0.176389;stroke-linecap:butt;stroke-linejoin:miter;stroke-miterlimit:4;stroke-dasharray:none;stroke-opacity:1" />
    <path
       id="path1545"
       d="m 0,0 c 0,7.826 6.347,14.172 14.174,14.172 7.827,0 14.173,-6.346 14.173,-14.172 0,-7.828 -6.346,-14.174 -14.173,-14.174 C 6.347,-14.174 0,-7.828 0,0"
       style="fill:#f3e5bf;fill-opacity:1;fill-rule:nonzero;stroke:none"
       transform="matrix(0.35277776,0,0,-0.35277776,58.730876,158.68706)"
       clip-path="url(#clipPath1546)" />
    <path
       id="path1547"
       d="M 68.707176,158.68706 H 84.707059"
       style="fill:none;stroke:#c18f07;stroke-width:0.176389;stroke-linecap:butt;stroke-linejoin:miter;stroke-miterlimit:4;stroke-dasharray:none;stroke-opacity:1" />
    <path
       id="path1548"
       d="m 84.449884,159.56967 1.523294,-0.87983 -1.523294,-0.87912 z"
       style="fill:#c18f07;fill-opacity:1;fill-rule:nonzero;stroke:none;stroke-width:0.352778" />
    <path
       id="path1549"
       d="m 76.70731,160.68714 h -4.000147 v -3.99979 h 4.000147 z"
       style="fill:#ffffff;fill-opacity:1;fill-rule:nonzero;stroke:#c18f07;stroke-width:0.176389;stroke-linecap:butt;stroke-linejoin:miter;stroke-miterlimit:4;stroke-dasharray:none;stroke-opacity:1" />
    <path
       id="path1550"
       d="m 0,0 c 0,7.826 6.347,14.172 14.174,14.172 7.827,0 14.173,-6.346 14.173,-14.172 0,-7.828 -6.346,-14.174 -14.173,-14.174 C 6.347,-14.174 0,-7.828 0,0"
       style="fill:#f3e5bf;fill-opacity:1;fill-rule:nonzero;stroke:none"
       transform="matrix(0.35277776,0,0,-0.35277776,149.6728,158.68706)"
       clip-path="url(#clipPath1551)" />
    <path
       id="path1552"
       d="m 0,0 c 0,7.826 6.347,14.172 14.174,14.172 7.827,0 14.173,-6.346 14.173,-14.172 0,-7.828 -6.346,-14.174 -14.173,-14.174 C 6.347,-14.174 0,-7.828 0,0"
       style="fill:#f3e5bf;fill-opacity:1;fill-rule:nonzero;stroke:none"
       transform="matrix(0.35277776,0,0,-0.35277776,90.362739,143.38705)"
       clip-path="url(#clipPath1553)" />
    <path
       id="path1554"
       d="m 100.33904,143.38705 h 20.49992"
       style="fill:none;stroke:#c18f07;stroke-width:0.176389;stroke-linecap:butt;stroke-linejoin:miter;stroke-miterlimit:4;stroke-dasharray:none;stroke-opacity:1" />
    <path
       id="path1555"
       d="m 120.5817,144.26938 1.52329,-0.87947 -1.52329,-0.87948 z"
       style="fill:#c18f07;fill-opacity:1;fill-rule:nonzero;stroke:none;stroke-width:0.352778" />
    <path
       id="path1556"
       d="m 108.33913,145.38717 h -4.0005 v -3.99979 h 4.0005 z"
       style="fill:#ffffff;fill-opacity:1;fill-rule:nonzero;stroke:#c18f07;stroke-width:0.176389;stroke-linecap:butt;stroke-linejoin:miter;stroke-miterlimit:4;stroke-dasharray:none;stroke-opacity:1" />
    <path
       id="path1557"
       d="m 0,0 c 0,7.826 6.347,14.172 14.174,14.172 7.827,0 14.173,-6.346 14.173,-14.172 0,-7.828 -6.346,-14.174 -14.173,-14.174 C 6.347,-14.174 0,-7.828 0,0"
       style="fill:#f3e5bf;fill-opacity:1;fill-rule:nonzero;stroke:none"
       transform="matrix(0.35277776,0,0,-0.35277776,122.2409,143.38705)"
       clip-path="url(#clipPath1558)" />
    <path
       id="path1559"
       d="m 132.2172,143.38705 h 15.99988"
       style="fill:none;stroke:#c18f07;stroke-width:0.176389;stroke-linecap:butt;stroke-linejoin:miter;stroke-miterlimit:4;stroke-dasharray:none;stroke-opacity:1" />
    <path
       id="path1560"
       d="m 147.95991,144.26938 1.52329,-0.87947 -1.52329,-0.87948 z"
       style="fill:#c18f07;fill-opacity:1;fill-rule:nonzero;stroke:none;stroke-width:0.352778" />
    <path
       id="path1561"
       d="m 140.21754,145.38717 h -4.00015 v -3.99979 h 4.00015 z"
       style="fill:#ffffff;fill-opacity:1;fill-rule:nonzero;stroke:#c18f07;stroke-width:0.176389;stroke-linecap:butt;stroke-linejoin:miter;stroke-miterlimit:4;stroke-dasharray:none;stroke-opacity:1" />
    <path
       id="path1562"
       d="m 0,0 c 0,7.826 6.347,14.172 14.174,14.172 7.827,0 14.173,-6.346 14.173,-14.172 0,-7.828 -6.346,-14.174 -14.173,-14.174 C 6.347,-14.174 0,-7.828 0,0"
       style="fill:#f3e5bf;fill-opacity:1;fill-rule:nonzero;stroke:none"
       transform="matrix(0.35277776,0,0,-0.35277776,58.730876,143.38705)"
       clip-path="url(#clipPath1563)" />
    <path
       id="path1564"
       d="M 68.707546,143.38705 H 88.907601"
       style="fill:none;stroke:#c18f07;stroke-width:0.176389;stroke-linecap:butt;stroke-linejoin:miter;stroke-miterlimit:4;stroke-dasharray:none;stroke-opacity:1" />
    <path
       id="path1565"
       d="m 88.650171,144.26938 1.522942,-0.87947 -1.522942,-0.87948 z"
       style="fill:#c18f07;fill-opacity:1;fill-rule:nonzero;stroke:none;stroke-width:0.352778" />
    <path
       id="path1566"
       d="m 76.70731,145.38717 h -4.000147 v -3.99979 h 4.000147 z"
       style="fill:#ffffff;fill-opacity:1;fill-rule:nonzero;stroke:#c18f07;stroke-width:0.176389;stroke-linecap:butt;stroke-linejoin:miter;stroke-miterlimit:4;stroke-dasharray:none;stroke-opacity:1" />
    <path
       id="path1567"
       d="m 0,0 c 0,7.826 6.347,14.172 14.174,14.172 7.827,0 14.173,-6.346 14.173,-14.172 0,-7.828 -6.346,-14.174 -14.173,-14.174 C 6.347,-14.174 0,-7.828 0,0"
       style="fill:#f3e5bf;fill-opacity:1;fill-rule:nonzero;stroke:none"
       transform="matrix(0.35277776,0,0,-0.35277776,149.6728,143.38705)"
       clip-path="url(#clipPath1568)" />
    <g
       id="g1568"
       aria-label="(a)&#10;(b)&#10;t"
       transform="matrix(0.35277776,0,0,0.35277776,50.059925,144.41092)">
      <path
         id="path1569"
         d="M 2.1446812,0.71456562 C 1.4884312,-0.44559063 1.1837437,-1.5705906 1.1837437,-2.8010594 c 0,-1.2304687 0.3046875,-2.34375 0.9609375,-3.515625 L 1.7110875,-6.5862156 c -0.76171875,1.2070312 -1.11328125,2.3203125 -1.11328125,3.7851562 0,1.4648438 0.3515625,2.58984377 1.11328125,3.78515627 z M 3.6505406,-3.3166844 c 0.070312,-0.421875 0.3164063,-0.9140625 0.8085938,-0.9140625 0.421875,0 0.6796875,0.328125 0.6796875,0.8320313 v 0.3398437 c -0.9375,0.2109375 -2.203125,0.7851563 -2.203125,1.9453125 0,0.73828127 0.4804687,1.20703127 1.21875,1.20703127 0.2929687,0 0.7382812,-0.234375 0.9960937,-0.4921875 l 0.082031,0.398437505 h 0.667969 C 5.8302281,-0.10574688 5.7833531,-0.41043438 5.7833531,-0.83230938 V -3.4338719 c 0,-0.8320312 -0.46875,-1.3359375 -1.3359375,-1.3359375 -0.8320312,0 -1.265625,0.6328125 -1.3828125,1.3710938 z m 1.4882813,2.37890627 c -0.234375,0.24609375 -0.5390625,0.4921875 -0.890625,0.4921875 -0.46875,0 -0.6679688,-0.28125 -0.6679688,-0.72656247 0,-0.7382813 0.9609375,-1.171875 1.5585938,-1.3476563 z M 6.8614781,-6.3166844 c 0.6445313,1.171875 0.9492188,2.2851563 0.9492188,3.515625 0,1.2304688 -0.3046875,2.35546877 -0.9492188,3.51562502 l 0.4335938,0.26953125 c 0.7617187,-1.1953125 1.1132812,-2.32031247 1.1132812,-3.78515627 0,-1.4648437 -0.3515625,-2.578125 -1.1132812,-3.7851562 z M 2.1446812,44.085659 c -0.65625,-1.160156 -0.9609375,-2.285156 -0.9609375,-3.515625 0,-1.230468 0.3046875,-2.34375 0.9609375,-3.515625 L 1.7110875,36.784878 c -0.76171875,1.207031 -1.11328125,2.320313 -1.11328125,3.785156 0,1.464844 0.3515625,2.589844 1.11328125,3.785157 z m 1.5996094,-1.160156 c 0.234375,0.328125 0.5625,0.539063 0.9726563,0.539063 0.7382812,0 1.3476562,-0.632813 1.3476562,-2.4375 0,-1.792969 -0.609375,-2.425782 -1.3476562,-2.425782 -0.3515625,0 -0.6445313,0.210938 -0.8671875,0.433594 v -2.15625 H 3.2052281 v 5.226563 c 0,0.621093 -0.035156,0.996093 -0.1054687,1.265625 h 0.5039062 z m 0.1054688,-3.375 c 0.1875,-0.1875 0.421875,-0.410156 0.703125,-0.410156 0.5507812,0 0.8671875,0.445312 0.8671875,1.886719 0,1.441406 -0.3398438,1.898437 -0.8789063,1.898437 -0.1992187,0 -0.4921875,-0.1875 -0.6914062,-0.457031 z m 3.0117187,-2.496094 c 0.6445313,1.171875 0.9492188,2.285157 0.9492188,3.515625 0,1.230469 -0.3046875,2.355469 -0.9492188,3.515625 l 0.4335938,0.269532 c 0.7617187,-1.195313 1.1132812,-2.320313 1.1132812,-3.785157 0,-1.464843 -0.3515625,-2.578125 -1.1132812,-3.785156 z m 0,0"
         style="fill:#231f20;fill-opacity:1;fill-rule:nonzero;stroke:none" />
      <path
         id="path1570"
         d="m 36.931791,-29.994419 h 0.632812 l -0.703125,3.222656 c -0.164062,0.714844 0.05859,1.007813 0.667969,1.007813 0.269531,0 0.445312,-0.03516 0.632812,-0.09375 l 0.105469,-0.480469 c -0.117187,0.03516 -0.28125,0.08203 -0.410156,0.08203 -0.328125,0 -0.421875,-0.199218 -0.375,-0.46875 l 0.738281,-3.269531 h 0.855469 l 0.117187,-0.539062 h -0.855468 l 0.339843,-1.570313 h -0.644531 l -0.351562,1.570313 h -0.632813 z m 0,0"
         style="fill:#231f20;fill-opacity:1;fill-rule:nonzero;stroke:none" />
    </g>
    <path
       id="path1571"
       d="M 64.486986,136.34723 V 136.1984 H 64.28028 v -1.65778 h -0.119889 c -0.08268,0.0703 -0.177767,0.11162 -0.28112,0.13642 v 0.11162 l 0.223243,-0.0207 v 1.43041 h -0.219109 v 0.14883 z m 0,0"
       style="fill:#231f20;fill-opacity:1;fill-rule:nonzero;stroke:none;stroke-width:0.352778"
       aria-label="1" />
    <path
       id="path1572"
       d="m 94.720817,133.82955 h 0.223242 l -0.248047,1.13688 c -0.05788,0.25218 0.02067,0.35553 0.235645,0.35553 0.09508,0 0.157096,-0.0124 0.223242,-0.0331 l 0.03721,-0.1695 c -0.04134,0.0124 -0.09922,0.0289 -0.144694,0.0289 -0.115755,0 -0.148828,-0.0703 -0.132292,-0.16536 l 0.26045,-1.15342 h 0.30179 l 0.04134,-0.19017 h -0.30179 l 0.119889,-0.55397 h -0.227376 l -0.124024,0.55397 H 94.76216 Z m 0,0"
       style="fill:#231f20;fill-opacity:1;fill-rule:nonzero;stroke:none;stroke-width:0.352778"
       aria-label="t" />
    <path
       id="path1573"
       d="m 96.215299,136.34723 v -0.14883 h -0.677994 c 0.268717,-0.62012 0.665592,-0.76068 0.665592,-1.20303 0,-0.29766 -0.16123,-0.45475 -0.396875,-0.45475 -0.214974,0 -0.396875,0.11989 -0.417546,0.52503 h 0.165365 c 0.0124,-0.26872 0.115755,-0.3762 0.256315,-0.3762 0.124024,0 0.214974,0.0951 0.214974,0.28112 0,0.40514 -0.49196,0.69866 -0.649056,1.22783 v 0.14883 z m 0,0"
       style="fill:#231f20;fill-opacity:1;fill-rule:nonzero;stroke:none;stroke-width:0.352778"
       aria-label="2" />
    <path
       id="path1574"
       d="m 126.67648,133.82955 h 0.22325 l -0.24805,1.13688 c -0.0579,0.25218 0.0207,0.35553 0.23564,0.35553 0.0951,0 0.1571,-0.0124 0.22325,-0.0331 l 0.0372,-0.1695 c -0.0413,0.0124 -0.0992,0.0289 -0.14469,0.0289 -0.11576,0 -0.14883,-0.0703 -0.13229,-0.16536 l 0.26045,-1.15342 h 0.30179 l 0.0413,-0.19017 h -0.30179 l 0.11989,-0.55397 h -0.22738 l -0.12402,0.55397 h -0.22324 z m 0,0"
       style="fill:#231f20;fill-opacity:1;fill-rule:nonzero;stroke:none;stroke-width:0.352778"
       aria-label="t" />
    <path
       id="path1575"
       d="m 127.52191,134.94163 c 0.004,-0.12403 0.062,-0.25218 0.21498,-0.25218 0.11988,0 0.2067,0.0827 0.2067,0.29352 0,0.27698 -0.11162,0.34313 -0.3762,0.34313 v 0.14883 c 0.28112,0 0.40514,0.0827 0.40514,0.3762 0,0.24392 -0.11989,0.37207 -0.23564,0.37207 -0.16124,0 -0.24392,-0.10748 -0.26045,-0.30179 h -0.16123 c 0.004,0.26045 0.16123,0.45062 0.401,0.45062 0.22325,0 0.43409,-0.16123 0.43409,-0.52917 0,-0.19017 -0.062,-0.3762 -0.26045,-0.44235 v -0.004 c 0.12815,-0.0248 0.23151,-0.1695 0.23151,-0.42168 0,-0.29766 -0.19844,-0.43408 -0.39688,-0.43408 -0.23151,0 -0.34313,0.1695 -0.3638,0.38034 z m 0,0"
       style="fill:#231f20;fill-opacity:1;fill-rule:nonzero;stroke:none;stroke-width:0.352778"
       aria-label="3" />
    <path
       id="path1576"
       d="m 154.1084,133.82955 h 0.22324 l -0.24805,1.13688 c -0.0579,0.25218 0.0207,0.35553 0.23565,0.35553 0.0951,0 0.15709,-0.0124 0.22324,-0.0331 l 0.0372,-0.1695 c -0.0413,0.0124 -0.0992,0.0289 -0.14469,0.0289 -0.11575,0 -0.14883,-0.0703 -0.13229,-0.16536 l 0.26045,-1.15342 h 0.30179 l 0.0413,-0.19017 h -0.30179 l 0.11989,-0.55397 H 154.497 l -0.12402,0.55397 h -0.22324 z m 0,0"
       style="fill:#231f20;fill-opacity:1;fill-rule:nonzero;stroke:none;stroke-width:0.352778"
       aria-label="t" />
    <path
       id="path1577"
       d="m 155.26801,134.72665 h 0.004 v 1.0666 H 154.871 Z m -0.0744,-0.16123 -0.49196,1.29398 v 0.0827 h 0.57051 v 0.40515 h 0.17777 v -0.40515 h 0.18603 v -0.14883 h -0.18603 v -1.22783 z m 0,0"
       style="fill:#231f20;fill-opacity:1;fill-rule:nonzero;stroke:none;stroke-width:0.352778"
       aria-label="4" />
    <path
       id="path1578"
       d="M 58.730876,151.34417 H 132.17921"
       style="fill:none;stroke:#9e9c9d;stroke-width:0.0881944;stroke-linecap:butt;stroke-linejoin:miter;stroke-miterlimit:4;stroke-dasharray:none;stroke-opacity:1" />
    <path
       id="path1579"
       d="M 0,0 C 0.348,-0.59 0.775,-1.223 1.283,-1.899 1.869,-2.68 2.342,-3.272 2.701,-3.674 2.412,-3.979 1.94,-4.568 1.283,-5.443 0.752,-6.154 0.326,-6.791 0.006,-7.354 c -0.106,0.204 -0.25,0.44 -0.434,0.709 -0.316,0.469 -0.709,1.014 -1.177,1.635 -0.102,0.137 -0.459,0.582 -1.073,1.336 0.395,0.449 0.903,1.09 1.524,1.922 C -0.693,-1.135 -0.309,-0.551 0,0"
       style="fill:#231f20;fill-opacity:1;fill-rule:nonzero;stroke:none"
       transform="matrix(0.35277776,0,0,-0.35277776,88.627417,157.35208)"
       clip-path="url(#clipPath1580)" />
    <path
       id="path1581"
       d="m 0,0 h -4.969 l 0.047,0.199 c 0.645,0.137 1.072,0.272 1.283,0.405 0.317,0.199 0.575,0.494 0.777,0.884 0.201,0.391 0.301,0.801 0.301,1.231 0,0.062 -0.002,0.154 -0.006,0.275 C -2.805,2.51 -3.095,2.156 -3.437,1.934 -3.778,1.711 -4.127,1.6 -4.483,1.6 c -0.453,0 -0.837,0.158 -1.154,0.474 -0.316,0.317 -0.474,0.705 -0.474,1.166 0,0.453 0.144,0.835 0.433,1.146 0.289,0.31 0.617,0.466 0.985,0.466 0.234,0 0.552,-0.1 0.955,-0.299 -0.164,0.269 -0.271,0.474 -0.32,0.615 -0.049,0.141 -0.073,0.291 -0.073,0.451 0,0.449 0.154,0.827 0.463,1.134 0.309,0.307 0.695,0.46 1.16,0.46 0.457,0 0.843,-0.153 1.157,-0.46 0.315,-0.307 0.472,-0.677 0.472,-1.11 0,-0.344 -0.135,-0.708 -0.404,-1.09 0.328,0.156 0.525,0.244 0.591,0.263 0.106,0.032 0.225,0.047 0.358,0.047 0.391,0 0.73,-0.153 1.017,-0.46 C 0.97,4.097 1.113,3.717 1.113,3.264 1.113,2.795 0.956,2.401 0.642,2.083 0.327,1.765 -0.051,1.605 -0.492,1.605 c -0.242,0 -0.493,0.06 -0.753,0.179 -0.26,0.119 -0.488,0.279 -0.683,0.478 -0.137,0.144 -0.306,0.388 -0.51,0.732 0.016,-0.621 0.111,-1.112 0.285,-1.473 0.174,-0.362 0.44,-0.662 0.799,-0.9 0.243,-0.16 0.678,-0.301 1.307,-0.422 z"
       style="fill:#231f20;fill-opacity:1;fill-rule:nonzero;stroke:none"
       transform="matrix(0.35277776,0,0,-0.35277776,121.3238,160.18703)"
       clip-path="url(#clipPath1582)" />
    <path
       id="path1583"
       d="m 110.9286,156.02562 v -0.19017 h -0.26871 v -2.1332 h -0.15297 c -0.10335,0.0868 -0.23151,0.14469 -0.35966,0.17776 v 0.14056 l 0.28525,-0.0289 v 1.84381 h -0.28112 v 0.19017 z m 1.32706,-1.14515 c 0,0.75241 -0.11576,0.98805 -0.3266,0.98805 -0.20671,0 -0.32246,-0.23564 -0.32246,-0.98805 0,-0.75241 0.11575,-0.98805 0.32246,-0.98805 0.21084,0 0.3266,0.23564 0.3266,0.98805 z m 0.22737,0 c 0,-0.83096 -0.17777,-1.17822 -0.55397,-1.17822 -0.37207,0 -0.54984,0.34726 -0.54984,1.17822 0,0.82682 0.17777,1.17822 0.54984,1.17822 0.3762,0 0.55397,-0.3514 0.55397,-1.17822 z m 1.18236,0 c 0,0.75241 -0.11576,0.98805 -0.3266,0.98805 -0.2067,0 -0.32246,-0.23564 -0.32246,-0.98805 0,-0.75241 0.11576,-0.98805 0.32246,-0.98805 0.21084,0 0.3266,0.23564 0.3266,0.98805 z m 0.22737,0 c 0,-0.83096 -0.17776,-1.17822 -0.55397,-1.17822 -0.37207,0 -0.54983,0.34726 -0.54983,1.17822 0,0.82682 0.17776,1.17822 0.54983,1.17822 0.37621,0 0.55397,-0.3514 0.55397,-1.17822 z m 1.37253,0.64906 c 0,0.26871 0.21084,0.49609 0.49609,0.49609 0.28112,0 0.4961,-0.22738 0.4961,-0.49609 0,-0.26872 -0.21498,-0.4961 -0.4961,-0.4961 -0.28525,0 -0.49609,0.22738 -0.49609,0.4961 z m 0.19017,0 c 0,-0.16123 0.12816,-0.30593 0.30592,-0.30593 0.17364,0 0.30179,0.1447 0.30179,0.30593 0,0.16123 -0.12815,0.30592 -0.30179,0.30592 -0.17776,0 -0.30592,-0.14469 -0.30592,-0.30592 z m -1.26504,-1.30225 c 0,0.27285 0.21497,0.49609 0.49609,0.49609 0.28112,0 0.4961,-0.22324 0.4961,-0.49609 0,-0.26872 -0.21498,-0.49196 -0.4961,-0.49196 -0.28112,0 -0.49609,0.22324 -0.49609,0.49196 z m 0.19017,0 c 0,-0.16123 0.13229,-0.30179 0.30592,-0.30179 0.17364,0 0.30593,0.14056 0.30593,0.30179 0,0.16123 -0.13229,0.30592 -0.30593,0.30592 -0.17363,0 -0.30592,-0.14469 -0.30592,-0.30592 z m 1.42214,-0.52503 -1.31052,2.35644 h 0.1819 l 1.31465,-2.35644 z m 26.40562,2.32337 v -0.19017 h -0.26872 v -2.1332 h -0.15296 c -0.10335,0.0868 -0.23151,0.14469 -0.35967,0.17776 v 0.14056 l 0.28525,-0.0289 v 1.84381 h -0.28112 v 0.19017 z m 1.32705,-1.14515 c 0,0.75241 -0.11576,0.98805 -0.3266,0.98805 -0.2067,0 -0.32246,-0.23564 -0.32246,-0.98805 0,-0.75241 0.11576,-0.98805 0.32246,-0.98805 0.21084,0 0.3266,0.23564 0.3266,0.98805 z m 0.22737,0 c 0,-0.83096 -0.17776,-1.17822 -0.55397,-1.17822 -0.37207,0 -0.54983,0.34726 -0.54983,1.17822 0,0.82682 0.17776,1.17822 0.54983,1.17822 0.37621,0 0.55397,-0.3514 0.55397,-1.17822 z m 1.18236,0 c 0,0.75241 -0.11575,0.98805 -0.32659,0.98805 -0.20671,0 -0.32246,-0.23564 -0.32246,-0.98805 0,-0.75241 0.11575,-0.98805 0.32246,-0.98805 0.21084,0 0.32659,0.23564 0.32659,0.98805 z m 0.22738,0 c 0,-0.83096 -0.17777,-1.17822 -0.55397,-1.17822 -0.37207,0 -0.54984,0.34726 -0.54984,1.17822 0,0.82682 0.17777,1.17822 0.54984,1.17822 0.3762,0 0.55397,-0.3514 0.55397,-1.17822 z m 1.37252,0.64906 c 0,0.26871 0.21084,0.49609 0.4961,0.49609 0.28112,0 0.49609,-0.22738 0.49609,-0.49609 0,-0.26872 -0.21497,-0.4961 -0.49609,-0.4961 -0.28526,0 -0.4961,0.22738 -0.4961,0.4961 z m 0.19017,0 c 0,-0.16123 0.12816,-0.30593 0.30593,-0.30593 0.17363,0 0.30179,0.1447 0.30179,0.30593 0,0.16123 -0.12816,0.30592 -0.30179,0.30592 -0.17777,0 -0.30593,-0.14469 -0.30593,-0.30592 z m -1.26504,-1.30225 c 0,0.27285 0.21498,0.49609 0.4961,0.49609 0.28112,0 0.49609,-0.22324 0.49609,-0.49609 0,-0.26872 -0.21497,-0.49196 -0.49609,-0.49196 -0.28112,0 -0.4961,0.22324 -0.4961,0.49196 z m 0.19017,0 c 0,-0.16123 0.13229,-0.30179 0.30593,-0.30179 0.17363,0 0.30592,0.14056 0.30592,0.30179 0,0.16123 -0.13229,0.30592 -0.30592,0.30592 -0.17364,0 -0.30593,-0.14469 -0.30593,-0.30592 z m 1.42214,-0.52503 -1.31052,2.35644 h 0.18191 l 1.31464,-2.35644 z m 0,0"
       style="fill:#231f20;fill-opacity:1;fill-rule:nonzero;stroke:none;stroke-width:0.352778"
       aria-label="100%100%" />
    <path
       id="path1584"
       d="m 95.798779,158.55156 c 0,0.83509 -0.124023,1.09554 -0.359668,1.09554 -0.23151,0 -0.359668,-0.26045 -0.359668,-1.09554 0,-0.83509 0.128158,-1.09554 0.359668,-1.09554 0.235645,0 0.359668,0.26045 0.359668,1.09554 z m 0.256315,0 c 0,-0.92191 -0.198437,-1.30638 -0.615983,-1.30638 -0.413411,0 -0.611849,0.38447 -0.611849,1.30638 0,0.92191 0.198438,1.31051 0.611849,1.31051 0.417546,0 0.615983,-0.3886 0.615983,-1.31051 z m 0,0"
       style="fill:#231f20;fill-opacity:1;fill-rule:nonzero;stroke:none;stroke-width:0.352778"
       aria-label="0" />
    <path
       id="path1585"
       d="m 107.01462,158.54949 c 0.0289,-0.32246 -0.0703,-0.5209 -0.36793,-0.5209 -0.34727,0 -0.56224,0.26045 -0.69453,0.85576 -0.1323,0.59945 -0.0289,0.8599 0.31419,0.8599 0.30179,0 0.50436,-0.23152 0.61185,-0.55398 h -0.22324 c -0.0992,0.28526 -0.19844,0.36381 -0.34727,0.36381 -0.19017,0 -0.24391,-0.12403 -0.12402,-0.66973 0.11989,-0.5457 0.22737,-0.66559 0.42168,-0.66559 0.14056,0 0.2191,0.0827 0.18603,0.33073 z m 0,0"
       style="fill:#231f20;fill-opacity:1;fill-rule:nonzero;stroke:none;stroke-width:0.352778"
       aria-label="c" />
    <path
       id="path1586"
       d="m 127.67692,158.55156 c 0,0.83509 -0.12402,1.09554 -0.35967,1.09554 -0.23151,0 -0.35966,-0.26045 -0.35966,-1.09554 0,-0.83509 0.12815,-1.09554 0.35966,-1.09554 0.23565,0 0.35967,0.26045 0.35967,1.09554 z m 0.25632,0 c 0,-0.92191 -0.19844,-1.30638 -0.61599,-1.30638 -0.41341,0 -0.61184,0.38447 -0.61184,1.30638 0,0.92191 0.19843,1.31051 0.61184,1.31051 0.41755,0 0.61599,-0.3886 0.61599,-1.31051 z m 0,0"
       style="fill:#231f20;fill-opacity:1;fill-rule:nonzero;stroke:none;stroke-width:0.352778"
       aria-label="0" />
    <g
       id="g1586"
       aria-label="c&#10;100%"
       transform="matrix(0.35277776,0,0,0.35277776,137.53641,159.71092)">
      <path
         id="path1587"
         d="m 3.8448203,-3.2922531 c 0.082031,-0.9140625 -0.1992187,-1.4765625 -1.0429687,-1.4765625 -0.984375,0 -1.59375,0.7382812 -1.96875004,2.4257812 -0.375,1.69921877 -0.0820313,2.43750002 0.89062504,2.43750002 0.8554687,0 1.4296875,-0.65625 1.734375,-1.57031252 H 2.8252891 c -0.28125,0.80859377 -0.5625,1.03125002 -0.984375,1.03125002 -0.5390625,0 -0.6914063,-0.3515625 -0.3515625,-1.89843752 0.3398437,-1.546875 0.6445312,-1.8867187 1.1953125,-1.8867187 0.3984375,0 0.6210937,0.234375 0.5273437,0.9375 z m 0,0"
         style="fill:#231f20;fill-opacity:1;fill-rule:nonzero;stroke:none" />
      <path
         id="path1588"
         d="m -166.78604,-10.44948 v -0.539062 h -0.76172 v -6.046875 h -0.43359 c -0.29297,0.246094 -0.65625,0.410156 -1.01953,0.503906 v 0.398438 l 0.80859,-0.08203 v 5.226563 h -0.79687 v 0.539062 z m 3.76172,-3.246093 c 0,2.132812 -0.32813,2.800781 -0.92578,2.800781 -0.58594,0 -0.91406,-0.667969 -0.91406,-2.800781 0,-2.132813 0.32812,-2.800782 0.91406,-2.800782 0.59765,0 0.92578,0.667969 0.92578,2.800782 z m 0.64453,0 c 0,-2.355469 -0.50391,-3.339844 -1.57031,-3.339844 -1.05469,0 -1.5586,0.984375 -1.5586,3.339844 0,2.34375 0.50391,3.339843 1.5586,3.339843 1.0664,0 1.57031,-0.996093 1.57031,-3.339843 z m 3.35156,0 c 0,2.132812 -0.32812,2.800781 -0.92578,2.800781 -0.58594,0 -0.91406,-0.667969 -0.91406,-2.800781 0,-2.132813 0.32812,-2.800782 0.91406,-2.800782 0.59766,0 0.92578,0.667969 0.92578,2.800782 z m 0.64453,0 c 0,-2.355469 -0.5039,-3.339844 -1.57031,-3.339844 -1.05469,0 -1.55859,0.984375 -1.55859,3.339844 0,2.34375 0.5039,3.339843 1.55859,3.339843 1.06641,0 1.57031,-0.996093 1.57031,-3.339843 z m 3.89063,1.839843 c 0,0.761719 0.59766,1.40625 1.40625,1.40625 0.79687,0 1.40625,-0.644531 1.40625,-1.40625 0,-0.761718 -0.60938,-1.40625 -1.40625,-1.40625 -0.80859,0 -1.40625,0.644532 -1.40625,1.40625 z m 0.53906,0 c 0,-0.457031 0.36328,-0.867187 0.86719,-0.867187 0.49219,0 0.85547,0.410156 0.85547,0.867187 0,0.457032 -0.36328,0.867188 -0.85547,0.867188 -0.50391,0 -0.86719,-0.410156 -0.86719,-0.867188 z m -3.58594,-3.691406 c 0,0.773438 0.60938,1.40625 1.40625,1.40625 0.79688,0 1.40625,-0.632812 1.40625,-1.40625 0,-0.761719 -0.60937,-1.394531 -1.40625,-1.394531 -0.79687,0 -1.40625,0.632812 -1.40625,1.394531 z m 0.53907,0 c 0,-0.457031 0.375,-0.855469 0.86718,-0.855469 0.49219,0 0.86719,0.398438 0.86719,0.855469 0,0.457031 -0.375,0.867188 -0.86719,0.867188 -0.49218,0 -0.86718,-0.410157 -0.86718,-0.867188 z m 4.03125,-1.488281 -3.71485,6.679687 h 0.51563 l 3.72656,-6.679687 z m 0,0"
         style="fill:#231f20;fill-opacity:1;fill-rule:nonzero;stroke:none" />
    </g>
    <path
       id="path1589"
       d="m 64.261686,159.82487 v -0.21084 H 63.96403 v -2.36885 h -0.169499 c -0.115755,0.0951 -0.256315,0.16123 -0.401009,0.1943 v 0.1571 l 0.314193,-0.0289 v 2.04639 h -0.310059 v 0.21084 z m 0,0"
       style="fill:#231f20;fill-opacity:1;fill-rule:nonzero;stroke:none;stroke-width:0.352778"
       aria-label="1" />
    <path
       id="path1590"
       d="m 75.381411,158.54949 c 0.02894,-0.32246 -0.07028,-0.5209 -0.367936,-0.5209 -0.347265,0 -0.562239,0.26045 -0.694531,0.85576 -0.132292,0.59945 -0.02894,0.8599 0.314193,0.8599 0.30179,0 0.504362,-0.23152 0.611849,-0.55398 h -0.223243 c -0.09922,0.28526 -0.198437,0.36381 -0.347265,0.36381 -0.190169,0 -0.243913,-0.12403 -0.124024,-0.66973 0.11989,-0.5457 0.227377,-0.66559 0.42168,-0.66559 0.14056,0 0.219108,0.0827 0.186035,0.33073 z m 0,0"
       style="fill:#231f20;fill-opacity:1;fill-rule:nonzero;stroke:none;stroke-width:0.352778"
       aria-label="c" />
    <path
       id="path1591"
       d="m 155.20393,159.82487 v -0.21084 h -0.29765 v -2.36885 h -0.1695 c -0.11576,0.0951 -0.25632,0.16123 -0.40101,0.1943 v 0.1571 l 0.31419,-0.0289 v 2.04639 h -0.31006 v 0.21084 z M 95.79981,143.2512 c 0,0.83509 -0.124022,1.09554 -0.359667,1.09554 -0.231511,0 -0.359668,-0.26045 -0.359668,-1.09554 0,-0.83509 0.128157,-1.09554 0.359668,-1.09554 0.235645,0 0.359667,0.26045 0.359667,1.09554 z m 0.256314,0 c 0,-0.92191 -0.198437,-1.30638 -0.615981,-1.30638 -0.413414,0 -0.611851,0.38447 -0.611851,1.30638 0,0.92191 0.198437,1.31051 0.611851,1.31051 0.417544,0 0.615981,-0.3886 0.615981,-1.31051 z m 0,0"
       style="fill:#231f20;fill-opacity:1;fill-rule:nonzero;stroke:none;stroke-width:0.352778"
       aria-label="1&#10;0" />
    <path
       id="path1592"
       d="m 107.01462,143.24914 c 0.0289,-0.32246 -0.0703,-0.5209 -0.36793,-0.5209 -0.34727,0 -0.56224,0.26045 -0.69453,0.85576 -0.1323,0.59945 -0.0289,0.8599 0.31419,0.8599 0.30179,0 0.50436,-0.23151 0.61185,-0.55397 h -0.22324 c -0.0992,0.28525 -0.19844,0.3638 -0.34727,0.3638 -0.19017,0 -0.24391,-0.12403 -0.12402,-0.66973 0.11989,-0.5457 0.22737,-0.66559 0.42168,-0.66559 0.14056,0 0.2191,0.0827 0.18603,0.33073 z m 0,0"
       style="fill:#231f20;fill-opacity:1;fill-rule:nonzero;stroke:none;stroke-width:0.352778"
       aria-label="c" />
    <path
       id="path1593"
       d="m 127.67692,143.2512 c 0,0.83509 -0.12402,1.09554 -0.35967,1.09554 -0.23151,0 -0.35966,-0.26045 -0.35966,-1.09554 0,-0.83509 0.12815,-1.09554 0.35966,-1.09554 0.23565,0 0.35967,0.26045 0.35967,1.09554 z m 0.25632,0 c 0,-0.92191 -0.19844,-1.30638 -0.61599,-1.30638 -0.41341,0 -0.61184,0.38447 -0.61184,1.30638 0,0.92191 0.19843,1.31051 0.61184,1.31051 0.41755,0 0.61599,-0.3886 0.61599,-1.31051 z m 0,0"
       style="fill:#231f20;fill-opacity:1;fill-rule:nonzero;stroke:none;stroke-width:0.352778"
       aria-label="0" />
    <path
       id="path1594"
       d="m 138.89278,143.24914 c 0.0289,-0.32246 -0.0703,-0.5209 -0.36794,-0.5209 -0.34726,0 -0.56224,0.26045 -0.69453,0.85576 -0.13229,0.59945 -0.0289,0.8599 0.31419,0.8599 0.30179,0 0.50436,-0.23151 0.61185,-0.55397 h -0.22324 c -0.0992,0.28525 -0.19844,0.3638 -0.34727,0.3638 -0.19017,0 -0.24391,-0.12403 -0.12402,-0.66973 0.11989,-0.5457 0.22738,-0.66559 0.42168,-0.66559 0.14056,0 0.21911,0.0827 0.18603,0.33073 z m 0,0"
       style="fill:#231f20;fill-opacity:1;fill-rule:nonzero;stroke:none;stroke-width:0.352778"
       aria-label="c" />
    <path
       id="path1595"
       d="m 64.261686,144.52451 v -0.21084 H 63.96403 v -2.36885 h -0.169499 c -0.115755,0.0951 -0.256315,0.16123 -0.401009,0.1943 v 0.1571 l 0.314193,-0.0289 v 2.04639 h -0.310059 v 0.21084 z m 0,0"
       style="fill:#231f20;fill-opacity:1;fill-rule:nonzero;stroke:none;stroke-width:0.352778"
       aria-label="1" />
    <path
       id="path1596"
       d="m 75.381411,143.24914 c 0.02894,-0.32246 -0.07028,-0.5209 -0.367936,-0.5209 -0.347265,0 -0.562239,0.26045 -0.694531,0.85576 -0.132292,0.59945 -0.02894,0.8599 0.314193,0.8599 0.30179,0 0.504362,-0.23151 0.611849,-0.55397 h -0.223243 c -0.09922,0.28525 -0.198437,0.3638 -0.347265,0.3638 -0.190169,0 -0.243913,-0.12403 -0.124024,-0.66973 0.11989,-0.5457 0.227377,-0.66559 0.42168,-0.66559 0.14056,0 0.219108,0.0827 0.186035,0.33073 z m 0,0"
       style="fill:#231f20;fill-opacity:1;fill-rule:nonzero;stroke:none;stroke-width:0.352778"
       aria-label="c" />
    <path
       id="path1597"
       d="m 155.20393,144.52451 v -0.21084 h -0.29765 v -2.36885 h -0.1695 c -0.11576,0.0951 -0.25632,0.16123 -0.40101,0.1943 v 0.1571 l 0.31419,-0.0289 v 2.04639 h -0.31006 v 0.21084 z m 0,0"
       style="fill:#231f20;fill-opacity:1;fill-rule:nonzero;stroke:none;stroke-width:0.352778"
       aria-label="1" />
  </g>
</svg>
