<?xml version="1.0" encoding="UTF-8" standalone="no"?>
<!-- Created with Inkscape (http://www.inkscape.org/) -->

<svg
   width="84.039284mm"
   height="38.319111mm"
   viewBox="0 0 84.039284 38.319111"
   version="1.1"
   id="svg1"
   inkscape:version="1.3 (0e150ed6c4, 2023-07-21)"
   sodipodi:docname="Figure_4_CALM_schema.svg"
   xmlns:inkscape="http://www.inkscape.org/namespaces/inkscape"
   xmlns:sodipodi="http://sodipodi.sourceforge.net/DTD/sodipodi-0.dtd"
   xmlns="http://www.w3.org/2000/svg"
   xmlns:svg="http://www.w3.org/2000/svg">
  <sodipodi:namedview
     id="namedview1"
     pagecolor="#ffffff"
     bordercolor="#000000"
     borderopacity="0.25"
     inkscape:showpageshadow="2"
     inkscape:pageopacity="0.0"
     inkscape:pagecheckerboard="0"
     inkscape:deskcolor="#d1d1d1"
     inkscape:document-units="mm"
     inkscape:zoom="1.2685746"
     inkscape:cx="390.59586"
     inkscape:cy="536.42882"
     inkscape:window-width="1920"
     inkscape:window-height="1010"
     inkscape:window-x="2360"
     inkscape:window-y="195"
     inkscape:window-maximized="0"
     inkscape:current-layer="layer1" />
  <defs
     id="defs1" />
  <g
     inkscape:label="Calque 1"
     inkscape:groupmode="layer"
     id="layer1"
     transform="translate(-62.97083,-129.38125)">
    <path
       id="path932"
       d="M 119.33232,158.23401 H 89.332102 v -20.00003 h 30.000218 z"
       style="fill:#f3e5bf;fill-opacity:1;fill-rule:nonzero;stroke:none;stroke-width:0.352778"
       inkscape:export-filename="Figure_perotto1.pdf"
       inkscape:export-xdpi="96"
       inkscape:export-ydpi="96" />
    <path
       id="path933"
       d="m 99.421194,146.81954 h -7.999942 v -6.00005 h 7.999942 z"
       style="fill:#ffffff;fill-opacity:1;fill-rule:nonzero;stroke:#c18f07;stroke-width:0.352778;stroke-linecap:butt;stroke-linejoin:miter;stroke-miterlimit:4;stroke-dasharray:none;stroke-opacity:1" />
    <path
       id="path934"
       d="M 111.42093,146.81954 H 99.420841 v -6.00005 h 12.000089 z"
       style="fill:#ffffff;fill-opacity:1;fill-rule:nonzero;stroke:#c18f07;stroke-width:0.352778;stroke-linecap:butt;stroke-linejoin:miter;stroke-miterlimit:4;stroke-dasharray:none;stroke-opacity:1" />
    <path
       id="path935"
       d="m 117.42097,146.81954 h -6.00004 v -6.00005 h 6.00004 z"
       style="fill:#ffffff;fill-opacity:1;fill-rule:nonzero;stroke:#c18f07;stroke-width:0.352778;stroke-linecap:butt;stroke-linejoin:miter;stroke-miterlimit:4;stroke-dasharray:none;stroke-opacity:1" />
    <path
       id="path936"
       d="m 108.86329,156.37311 h -6.00004 v -6.00004 h 6.00004 z"
       style="fill:#ffffff;fill-opacity:1;fill-rule:nonzero;stroke:#c18f07;stroke-width:0.352778;stroke-linecap:butt;stroke-linejoin:miter;stroke-miterlimit:4;stroke-dasharray:none;stroke-opacity:1" />
    <path
       id="path937"
       d="m 105.91379,146.85382 v 1.82492"
       style="fill:none;stroke:#231f20;stroke-width:0.176389;stroke-linecap:butt;stroke-linejoin:miter;stroke-miterlimit:4;stroke-dasharray:none;stroke-opacity:1" />
    <path
       id="path938"
       d="m 105.0317,148.42153 0.87947,1.52329 0.87913,-1.52329 z"
       style="fill:#231f20;fill-opacity:1;fill-rule:nonzero;stroke:none;stroke-width:0.352778" />
    <path
       id="path939"
       d="m 75.582981,130.18327 c -0.04134,-0.54157 -0.272852,-0.80202 -0.649056,-0.80202 -0.458887,0 -0.740007,0.34313 -0.740007,1.30638 0,0.96325 0.28112,1.31052 0.740007,1.31052 0.429948,0 0.677995,-0.31833 0.686263,-0.8847 h -0.276986 c -0.0041,0.47542 -0.152962,0.64905 -0.409277,0.64905 -0.322461,0 -0.463021,-0.28112 -0.463021,-1.07487 0,-0.79375 0.14056,-1.07487 0.463021,-1.07487 0.214974,0 0.338997,0.1695 0.376204,0.57051 z m 0.590145,0.8599 c 0,-0.60358 0.09095,-0.74001 0.305924,-0.74001 0.219108,0 0.310059,0.13643 0.310059,0.74001 0,0.60771 -0.09095,0.74 -0.310059,0.74 -0.214974,0 -0.305924,-0.13229 -0.305924,-0.74 z m -0.252181,0 c 0,0.66559 0.177767,0.95498 0.558105,0.95498 0.384473,0 0.56224,-0.28939 0.56224,-0.95498 0,-0.66146 -0.177767,-0.95085 -0.56224,-0.95085 -0.380338,0 -0.558105,0.28939 -0.558105,0.95085 z m 1.500683,0.91777 h 0.256315 v -1.4304 c 0.111621,-0.14056 0.223242,-0.22738 0.347266,-0.22738 0.14056,0 0.202571,0.091 0.202571,0.30179 v 1.35599 h 0.252181 v -1.38906 c 0,-0.339 -0.148828,-0.47956 -0.401009,-0.47956 -0.119889,0 -0.297656,0.11162 -0.417545,0.23564 v -0.20257 h -0.239779 z m 1.342554,-1.62057 h 0.248047 v 1.2609 c 0,0.28112 0.111621,0.39688 0.351399,0.39688 0.103353,0 0.169499,-0.0165 0.239779,-0.0372 v -0.19017 c -0.04134,0.0124 -0.107487,0.0331 -0.157096,0.0331 -0.124023,0 -0.181901,-0.0744 -0.181901,-0.1819 v -1.28157 h 0.338997 v -0.21498 H 79.26441 v -0.61185 h -0.252181 v 0.61185 h -0.248047 z m 1.328084,0.5333 c 0.0041,-0.43408 0.124023,-0.57051 0.305925,-0.57051 0.23151,0 0.30179,0.17777 0.310058,0.57051 z m 0.868164,0.21084 v -0.11989 c 0,-0.52503 -0.173633,-0.8723 -0.562239,-0.8723 -0.380339,0 -0.558106,0.28939 -0.558106,0.95085 0,0.66559 0.177767,0.95498 0.558106,0.95498 0.338997,0 0.545703,-0.25632 0.58291,-0.52917 l -0.239779,-0.0289 c -0.02894,0.16537 -0.111621,0.34313 -0.305924,0.34313 -0.239779,0 -0.343132,-0.14469 -0.343132,-0.59531 v -0.10335 z m 0.553972,-0.0744 -0.42168,0.95085 h 0.260449 l 0.310059,-0.71934 0.330729,0.71934 h 0.260449 l -0.463021,-0.95085 0.392741,-0.8847 h -0.260449 l -0.268718,0.64492 -0.30179,-0.64492 h -0.260449 z m 0.777213,-0.66972 h 0.248047 v 1.2609 c 0,0.28112 0.111621,0.39688 0.351399,0.39688 0.103353,0 0.169499,-0.0165 0.239779,-0.0372 v -0.19017 c -0.04134,0.0124 -0.107487,0.0331 -0.157096,0.0331 -0.124024,0 -0.181901,-0.0744 -0.181901,-0.1819 v -1.28157 h 0.338997 v -0.21498 h -0.338997 v -0.61185 h -0.252181 v 0.61185 h -0.248047 z m 0,0"
       style="fill:#231f20;fill-opacity:1;fill-rule:nonzero;stroke:none;stroke-width:0.352778"
       aria-label="Context" />
    <path
       id="path940"
       d="m 72.344917,136.02271 c -0.23151,-0.40928 -0.338997,-0.80615 -0.338997,-1.24024 0,-0.43408 0.107487,-0.82682 0.338997,-1.24023 l -0.152962,-0.0951 c -0.268717,0.42582 -0.392741,0.81856 -0.392741,1.33532 0,0.51677 0.124024,0.91364 0.392741,1.33532 z m 0.353467,-0.25218 h 0.231511 v -1.28985 c 0.09922,-0.12815 0.202571,-0.20257 0.314192,-0.20257 0.124024,0 0.177767,0.0827 0.177767,0.27285 v 1.21957 h 0.231511 v -1.25264 c 0,-0.30179 -0.136426,-0.42995 -0.363802,-0.42995 -0.107487,0 -0.264584,0.10336 -0.359668,0.21084 v -0.81855 h -0.231511 z m 1.422136,0 h 0.227376 v -1.64951 H 74.12052 Z m 0,-2.02572 h 0.227376 v -0.26458 H 74.12052 Z m 1.449007,2.02572 h 0.214974 c -0.02481,-0.0951 -0.03721,-0.22738 -0.03721,-0.44649 v -1.84381 h -0.227376 v 0.76067 c -0.07855,-0.0785 -0.181901,-0.15296 -0.305924,-0.15296 -0.260449,0 -0.475423,0.22324 -0.475423,0.85576 0,0.63666 0.214974,0.8599 0.475423,0.8599 0.144694,0 0.260449,-0.0744 0.338997,-0.19017 h 0.0083 z m -0.04961,-0.31833 c -0.07028,0.0951 -0.173632,0.16123 -0.243912,0.16123 -0.19017,0 -0.310059,-0.16123 -0.310059,-0.66973 0,-0.50849 0.111621,-0.66559 0.305924,-0.66559 0.09922,0 0.181901,0.0786 0.248047,0.1447 z m 1.459343,0.31833 h 0.214974 c -0.02481,-0.0951 -0.03721,-0.22738 -0.03721,-0.44649 v -1.84381 H 76.92965 v 0.76067 c -0.07855,-0.0785 -0.181901,-0.15296 -0.305924,-0.15296 -0.260449,0 -0.475423,0.22324 -0.475423,0.85576 0,0.63666 0.214974,0.8599 0.475423,0.8599 0.144694,0 0.260449,-0.0744 0.338997,-0.19017 h 0.0083 z m -0.04961,-0.31833 c -0.07028,0.0951 -0.173633,0.16123 -0.243912,0.16123 -0.19017,0 -0.310059,-0.16123 -0.310059,-0.66973 0,-0.50849 0.111621,-0.66559 0.305924,-0.66559 0.09922,0 0.181901,0.0786 0.248047,0.1447 z m 0.814421,-0.66146 c 0.0041,-0.39274 0.111621,-0.51263 0.276986,-0.51263 0.206705,0 0.268717,0.1571 0.276985,0.51263 z m 0.781347,0.1943 v -0.11162 c 0,-0.47542 -0.157096,-0.78548 -0.504361,-0.78548 -0.347266,0 -0.504363,0.26045 -0.504363,0.85576 0,0.59945 0.157097,0.8599 0.504363,0.8599 0.30179,0 0.487825,-0.23151 0.525032,-0.47956 l -0.219108,-0.0248 c -0.0248,0.14883 -0.09922,0.31419 -0.272852,0.31419 -0.219108,0 -0.310058,-0.13643 -0.310058,-0.53743 v -0.0909 z m 0.342098,0.78549 h 0.231511 v -1.28985 c 0.09922,-0.12815 0.202571,-0.20257 0.314192,-0.20257 0.124024,0 0.177767,0.0827 0.177767,0.27285 v 1.21957 h 0.231511 v -1.25264 c 0,-0.30179 -0.136426,-0.42995 -0.363802,-0.42995 -0.107487,0 -0.264584,0.10336 -0.37207,0.21084 v -0.17776 h -0.219109 z m 2.292367,-1.16996 c 0.0248,-0.14883 0.111621,-0.32246 0.285254,-0.32246 0.148828,0 0.239778,0.11576 0.239778,0.29352 v 0.11989 c -0.330729,0.0744 -0.777213,0.27699 -0.777213,0.68627 0,0.26045 0.169499,0.42581 0.429948,0.42581 0.103353,0 0.260449,-0.0827 0.3514,-0.17363 l 0.02894,0.14056 h 0.235644 c -0.0248,-0.0372 -0.04134,-0.1447 -0.04134,-0.29353 v -0.91777 c 0,-0.29352 -0.165365,-0.47129 -0.471289,-0.47129 -0.293522,0 -0.446485,0.22324 -0.487826,0.48369 z m 0.525032,0.83923 c -0.08268,0.0868 -0.190169,0.17363 -0.314192,0.17363 -0.165365,0 -0.235645,-0.0992 -0.235645,-0.25631 0,-0.26045 0.338998,-0.41342 0.549837,-0.47543 z m 0.706934,0.33073 h 0.23151 v -1.28985 c 0.09922,-0.12815 0.202572,-0.20257 0.314193,-0.20257 0.124023,0 0.177767,0.0827 0.177767,0.27285 v 1.21957 h 0.23151 v -1.25264 c 0,-0.30179 -0.136425,-0.42995 -0.363802,-0.42995 -0.107487,0 -0.264583,0.10336 -0.37207,0.21084 v -0.17776 h -0.219108 z m 2.166276,0 h 0.214974 c -0.02481,-0.0951 -0.03721,-0.22738 -0.03721,-0.44649 v -1.84381 h -0.227377 v 0.76067 c -0.07855,-0.0785 -0.181901,-0.15296 -0.305924,-0.15296 -0.260449,0 -0.475423,0.22324 -0.475423,0.85576 0,0.63666 0.214974,0.8599 0.475423,0.8599 0.144694,0 0.260449,-0.0744 0.338997,-0.19017 h 0.0083 z m -0.04961,-0.31833 c -0.07028,0.0951 -0.173632,0.16123 -0.243912,0.16123 -0.190169,0 -0.310059,-0.16123 -0.310059,-0.66973 0,-0.50849 0.111621,-0.66559 0.305924,-0.66559 0.09922,0 0.181901,0.0786 0.248047,0.1447 z m -11.968261,3.30109 c 0,-0.5457 0.08268,-0.66559 0.276986,-0.66559 0.194303,0 0.276986,0.11989 0.276986,0.66559 0,0.5457 -0.08268,0.66973 -0.276986,0.66973 -0.194303,0 -0.276986,-0.12403 -0.276986,-0.66973 z m -0.227376,0 c 0,0.59945 0.157096,0.8599 0.504362,0.8599 0.347266,0 0.504362,-0.26045 0.504362,-0.8599 0,-0.59531 -0.157096,-0.85576 -0.504362,-0.85576 -0.347266,0 -0.504362,0.26045 -0.504362,0.85576 z m 1.561662,0.66973 c 0.08268,0.11575 0.198437,0.19017 0.343131,0.19017 0.260449,0 0.475423,-0.22325 0.475423,-0.8599 0,-0.63252 -0.214974,-0.85576 -0.475423,-0.85576 -0.124023,0 -0.227376,0.0744 -0.305924,0.15296 v -0.76068 h -0.227376 v 1.84382 c 0,0.21911 -0.0124,0.3514 -0.03721,0.44648 h 0.177767 z m 0.03721,-1.19063 c 0.06615,-0.0661 0.148828,-0.14469 0.248047,-0.14469 0.194303,0 0.305924,0.15709 0.305924,0.66559 0,0.5085 -0.119889,0.66973 -0.310058,0.66973 -0.07028,0 -0.173633,-0.0662 -0.243913,-0.16123 z m 1.996777,0.0579 c -0.05788,-0.24805 -0.206706,-0.39274 -0.463021,-0.39274 -0.252181,0 -0.429948,0.18603 -0.429948,0.40101 0,0.48369 0.698666,0.49196 0.698666,0.8723 0,0.13642 -0.111621,0.25218 -0.235645,0.25218 -0.169499,0 -0.256315,-0.14883 -0.30179,-0.29353 l -0.21084,0.0455 c 0.07855,0.27699 0.227376,0.43822 0.529167,0.43822 0.260449,0 0.450618,-0.19844 0.450618,-0.45889 0,-0.51263 -0.698665,-0.5333 -0.698665,-0.86816 0,-0.11163 0.07441,-0.19844 0.181901,-0.19844 0.186035,0 0.243913,0.11575 0.285254,0.26045 z m 0.511597,0.31006 c 0.0041,-0.39274 0.111621,-0.51263 0.276985,-0.51263 0.206706,0 0.268718,0.15709 0.276986,0.51263 z m 0.781347,0.1943 v -0.11162 c 0,-0.47542 -0.157096,-0.78548 -0.504362,-0.78548 -0.347265,0 -0.504362,0.26045 -0.504362,0.85576 0,0.59945 0.157097,0.8599 0.504362,0.8599 0.301791,0 0.487826,-0.23151 0.525033,-0.47956 l -0.219108,-0.0248 c -0.0248,0.14883 -0.09922,0.3142 -0.272852,0.3142 -0.219108,0 -0.310058,-0.13643 -0.310058,-0.53744 v -0.0909 z m 0.325562,0.78548 h 0.227376 v -1.17409 c 0.124024,-0.23564 0.252181,-0.29352 0.425814,-0.29352 v -0.21497 c -0.181901,0 -0.28112,0.0331 -0.417546,0.23151 h -0.0083 V 137.9306 H 77.52703 Z m 0.729671,-1.64951 0.405143,1.64951 h 0.305925 l 0.405143,-1.64951 h -0.227376 l -0.322461,1.42214 h -0.0083 l -0.330729,-1.42214 z m 1.582332,0.47956 c 0.0248,-0.14883 0.111622,-0.32246 0.285254,-0.32246 0.148828,0 0.239779,0.11575 0.239779,0.29352 v 0.11989 c -0.330729,0.0744 -0.777214,0.27698 -0.777214,0.68626 0,0.26045 0.169499,0.42582 0.429948,0.42582 0.103353,0 0.260449,-0.0827 0.3514,-0.17364 l 0.02894,0.14056 h 0.235644 c -0.0248,-0.0372 -0.04134,-0.14469 -0.04134,-0.29352 v -0.91777 c 0,-0.29352 -0.165364,-0.47129 -0.471289,-0.47129 -0.293522,0 -0.446484,0.22324 -0.487825,0.48369 z m 0.525033,0.83922 c -0.08268,0.0868 -0.190169,0.17364 -0.314193,0.17364 -0.165364,0 -0.235644,-0.0992 -0.235644,-0.25632 0,-0.26045 0.338997,-0.41341 0.549837,-0.47542 z m 0.917773,0.17364 c 0.08268,0.11575 0.198438,0.19017 0.343132,0.19017 0.260449,0 0.475423,-0.22325 0.475423,-0.8599 0,-0.63252 -0.214974,-0.85576 -0.475423,-0.85576 -0.124024,0 -0.227377,0.0744 -0.305925,0.15296 v -0.76068 H 81.09167 v 1.84382 c 0,0.21911 -0.0124,0.3514 -0.03721,0.44648 h 0.177767 z m 0.03721,-1.19063 c 0.06615,-0.0661 0.148828,-0.14469 0.248047,-0.14469 0.194303,0 0.305924,0.15709 0.305924,0.66559 0,0.5085 -0.119889,0.66973 -0.310058,0.66973 -0.07028,0 -0.173633,-0.0662 -0.243913,-0.16123 z m 1.174089,1.34772 h 0.227376 v -2.2903 h -0.227376 z m 0.804085,-0.97978 c 0.0041,-0.39274 0.111621,-0.51263 0.276986,-0.51263 0.206705,0 0.268717,0.15709 0.276985,0.51263 z m 0.781347,0.1943 v -0.11162 c 0,-0.47542 -0.157096,-0.78548 -0.504361,-0.78548 -0.347266,0 -0.504362,0.26045 -0.504362,0.85576 0,0.59945 0.157096,0.8599 0.504362,0.8599 0.30179,0 0.487825,-0.23151 0.525032,-0.47956 l -0.219108,-0.0248 c -0.0248,0.14883 -0.09922,0.3142 -0.272851,0.3142 -0.219109,0 -0.310059,-0.13643 -0.310059,-0.53744 v -0.0909 z m 0.24288,-1.4428 c 0.227376,0.41341 0.334863,0.80615 0.334863,1.24023 0,0.43408 -0.107487,0.83096 -0.334863,1.24023 l 0.152962,0.0951 c 0.268717,-0.42168 0.392741,-0.81856 0.392741,-1.33532 0,-0.51676 -0.124024,-0.90951 -0.392741,-1.33532 z m 0,0"
       style="fill:#231f20;fill-opacity:1;fill-rule:nonzero;stroke:none;stroke-width:0.352778"
       aria-label="(hidden and &#10;observable)" />
    <path
       id="path941"
       d="m 131.65915,141.6234 h 0.004 l 0.28112,1.36839 h -0.57051 z m -0.19017,-0.19017 -0.55811,2.54661 h 0.27285 l 0.15297,-0.75654 h 0.64905 l 0.15296,0.75654 h 0.27286 l -0.56224,-2.54661 z m 2.19418,1.25677 c -0.0496,-0.35967 -0.20257,-0.57878 -0.53744,-0.57878 -0.38033,0 -0.5581,0.28939 -0.5581,0.95085 0,0.66559 0.17777,0.95498 0.5581,0.95498 0.33487,0 0.50437,-0.25631 0.54571,-0.61598 h -0.24805 c -0.0413,0.31832 -0.13229,0.40101 -0.29766,0.40101 -0.21497,0 -0.30592,-0.1323 -0.30592,-0.74001 0,-0.60358 0.091,-0.74001 0.30592,-0.74001 0.1571,0 0.26459,0.091 0.28939,0.36794 z m 0.1819,-0.33073 h 0.24805 v 1.26091 c 0,0.28112 0.11162,0.39687 0.3514,0.39687 0.10335,0 0.1695,-0.0165 0.23978,-0.0372 v -0.19017 c -0.0413,0.0124 -0.10749,0.0331 -0.1571,0.0331 -0.12402,0 -0.1819,-0.0744 -0.1819,-0.1819 v -1.28158 h 0.339 v -0.21497 h -0.339 v -0.61185 h -0.25218 v 0.61185 h -0.24805 z m 1.21646,1.62057 h 0.25218 v -1.83554 h -0.25218 z m 0,-2.24895 h 0.25218 v -0.29766 h -0.25218 z m 0.89401,1.33118 c 0,-0.60358 0.0909,-0.74001 0.30592,-0.74001 0.21911,0 0.31006,0.13643 0.31006,0.74001 0,0.60771 -0.0909,0.74001 -0.31006,0.74001 -0.21497,0 -0.30592,-0.1323 -0.30592,-0.74001 z m -0.25218,0 c 0,0.66559 0.17776,0.95498 0.5581,0.95498 0.38447,0 0.56224,-0.28939 0.56224,-0.95498 0,-0.66146 -0.17777,-0.95085 -0.56224,-0.95085 -0.38034,0 -0.5581,0.28939 -0.5581,0.95085 z m 1.49758,0.91777 h 0.25631 v -1.4304 c 0.11162,-0.14056 0.22325,-0.22738 0.34727,-0.22738 0.14056,0 0.20257,0.091 0.20257,0.30179 v 1.35599 h 0.25218 v -1.38906 c 0,-0.339 -0.14883,-0.47956 -0.40101,-0.47956 -0.11989,0 -0.29765,0.11162 -0.41754,0.23565 v -0.20257 h -0.23978 z m 0,0"
       style="fill:#231f20;fill-opacity:1;fill-rule:nonzero;stroke:none;stroke-width:0.352778"
       aria-label="Action" />
    <path
       id="path942"
       d="m 122.93409,148.04161 c -0.23151,-0.40928 -0.339,-0.80615 -0.339,-1.24023 0,-0.43408 0.10749,-0.82683 0.339,-1.24024 l -0.15297,-0.0951 c -0.26871,0.42581 -0.39274,0.81855 -0.39274,1.33532 0,0.51676 0.12403,0.91364 0.39274,1.33532 z m 1.22576,-1.41387 c -0.0455,-0.32246 -0.18603,-0.52089 -0.48369,-0.52089 -0.34727,0 -0.50436,0.26045 -0.50436,0.85576 0,0.59944 0.15709,0.85989 0.50436,0.85989 0.29766,0 0.45062,-0.23151 0.48783,-0.55397 h -0.21911 c -0.0413,0.28526 -0.12403,0.3638 -0.26872,0.3638 -0.1943,0 -0.27699,-0.12402 -0.27699,-0.66972 0,-0.54571 0.0827,-0.66559 0.27699,-0.66559 0.14056,0 0.23978,0.0827 0.26045,0.33072 z m 0.47439,0.33487 c 0,-0.54571 0.0827,-0.66559 0.27699,-0.66559 0.1943,0 0.27698,0.11988 0.27698,0.66559 0,0.5457 -0.0827,0.66972 -0.27698,0.66972 -0.19431,0 -0.27699,-0.12402 -0.27699,-0.66972 z m -0.22737,0 c 0,0.59944 0.15709,0.85989 0.50436,0.85989 0.34726,0 0.50436,-0.26045 0.50436,-0.85989 0,-0.59531 -0.1571,-0.85576 -0.50436,-0.85576 -0.34727,0 -0.50436,0.26045 -0.50436,0.85576 z m 1.35082,0.82682 h 0.23151 v -1.28984 c 0.0992,-0.12816 0.20257,-0.20257 0.31419,-0.20257 0.12402,0 0.17777,0.0827 0.17777,0.27285 v 1.21956 h 0.23151 v -1.25264 c 0,-0.30179 -0.13643,-0.42994 -0.3638,-0.42994 -0.10749,0 -0.26459,0.10335 -0.37207,0.21084 v -0.17777 h -0.21911 z m 1.20716,-1.45934 h 0.22324 v 1.13688 c 0,0.25218 0.0992,0.35553 0.31833,0.35553 0.0951,0 0.15296,-0.0124 0.21497,-0.0331 v -0.1695 c -0.0372,0.0124 -0.0951,0.0289 -0.14056,0.0289 -0.11575,0 -0.16536,-0.0703 -0.16536,-0.16536 v -1.15342 h 0.30592 v -0.19017 h -0.30592 v -0.55397 h -0.22738 v 0.55397 h -0.22324 z m 1.06867,1.45934 h 0.22737 v -1.17409 c 0.12403,-0.23564 0.25218,-0.29352 0.42582,-0.29352 v -0.21497 c -0.1819,0 -0.28112,0.0331 -0.41755,0.23151 h -0.008 v -0.19844 h -0.22737 z m 1.01079,-0.82682 c 0,-0.54571 0.0827,-0.66559 0.27698,-0.66559 0.19431,0 0.27699,0.11988 0.27699,0.66559 0,0.5457 -0.0827,0.66972 -0.27699,0.66972 -0.1943,0 -0.27698,-0.12402 -0.27698,-0.66972 z m -0.22738,0 c 0,0.59944 0.1571,0.85989 0.50436,0.85989 0.34727,0 0.50437,-0.26045 0.50437,-0.85989 0,-0.59531 -0.1571,-0.85576 -0.50437,-0.85576 -0.34726,0 -0.50436,0.26045 -0.50436,0.85576 z m 1.36323,0.82682 h 0.22737 v -2.2903 h -0.22737 z m 0.87023,-1.16995 c 0.0248,-0.14883 0.11162,-0.32246 0.28525,-0.32246 0.14883,0 0.23978,0.11575 0.23978,0.29352 v 0.11989 c -0.33073,0.0744 -0.77721,0.27698 -0.77721,0.68626 0,0.26045 0.16949,0.42581 0.42994,0.42581 0.10336,0 0.26045,-0.0827 0.3514,-0.17363 l 0.0289,0.14056 h 0.23565 c -0.0248,-0.0372 -0.0413,-0.14469 -0.0413,-0.29352 v -0.91778 c 0,-0.29352 -0.16537,-0.47128 -0.47129,-0.47128 -0.29353,0 -0.44649,0.22324 -0.48783,0.48369 z m 0.52503,0.83922 c -0.0827,0.0868 -0.19017,0.17363 -0.31419,0.17363 -0.16537,0 -0.23565,-0.0992 -0.23565,-0.25631 0,-0.26045 0.339,-0.41341 0.54984,-0.47542 z m 0.91777,0.17363 c 0.0827,0.11576 0.19844,0.19017 0.34313,0.19017 0.26045,0 0.47543,-0.22324 0.47543,-0.85989 0,-0.63252 -0.21498,-0.85576 -0.47543,-0.85576 -0.12402,0 -0.22737,0.0744 -0.30592,0.15296 v -0.76068 h -0.22738 v 1.84382 c 0,0.2191 -0.0124,0.3514 -0.0372,0.44648 h 0.17776 z m 0.0372,-1.19062 c 0.0662,-0.0661 0.14883,-0.14469 0.24805,-0.14469 0.1943,0 0.30592,0.15709 0.30592,0.66559 0,0.50849 -0.11989,0.66972 -0.31006,0.66972 -0.0703,0 -0.17363,-0.0661 -0.24391,-0.16123 z m 1.17409,1.34772 h 0.22737 v -2.2903 h -0.22737 z m 0.80408,-0.97978 c 0.004,-0.39275 0.11162,-0.51263 0.27699,-0.51263 0.2067,0 0.26872,0.15709 0.27699,0.51263 z m 0.78135,0.1943 v -0.11162 c 0,-0.47543 -0.15709,-0.78548 -0.50436,-0.78548 -0.34727,0 -0.50436,0.26045 -0.50436,0.85576 0,0.59944 0.15709,0.85989 0.50436,0.85989 0.30179,0 0.48782,-0.23151 0.52503,-0.47955 l -0.21911,-0.0248 c -0.0248,0.14883 -0.0992,0.31419 -0.27285,0.31419 -0.21911,0 -0.31006,-0.13642 -0.31006,-0.53743 v -0.0909 z m 0.87747,-0.86403 0.40514,1.64951 h 0.30592 l 0.40515,-1.64951 h -0.22738 l -0.32246,1.42213 h -0.008 l -0.33073,-1.42213 z m 1.58233,0.47956 c 0.0248,-0.14883 0.11162,-0.32246 0.28525,-0.32246 0.14883,0 0.23978,0.11575 0.23978,0.29352 v 0.11989 c -0.33073,0.0744 -0.77721,0.27698 -0.77721,0.68626 0,0.26045 0.1695,0.42581 0.42995,0.42581 0.10335,0 0.26045,-0.0827 0.3514,-0.17363 l 0.0289,0.14056 h 0.23565 c -0.0248,-0.0372 -0.0413,-0.14469 -0.0413,-0.29352 v -0.91778 c 0,-0.29352 -0.16537,-0.47128 -0.47129,-0.47128 -0.29352,0 -0.44649,0.22324 -0.48783,0.48369 z m 0.52503,0.83922 c -0.0827,0.0868 -0.19017,0.17363 -0.31419,0.17363 -0.16537,0 -0.23565,-0.0992 -0.23565,-0.25631 0,-0.26045 0.339,-0.41341 0.54984,-0.47542 z m 0.6904,0.33073 h 0.22738 v -1.17409 c 0.12402,-0.23564 0.25218,-0.29352 0.42581,-0.29352 v -0.21497 c -0.1819,0 -0.28112,0.0331 -0.41755,0.23151 h -0.008 v -0.19844 h -0.22737 z m 0.91157,0 h 0.22738 v -1.64951 h -0.22738 z m 0,-2.02572 h 0.22738 v -0.26458 h -0.22738 z m 0.87023,0.85577 c 0.0248,-0.14883 0.11162,-0.32246 0.28526,-0.32246 0.14882,0 0.23977,0.11575 0.23977,0.29352 v 0.11989 c -0.33072,0.0744 -0.77721,0.27698 -0.77721,0.68626 0,0.26045 0.1695,0.42581 0.42995,0.42581 0.10335,0 0.26045,-0.0827 0.3514,-0.17363 l 0.0289,0.14056 h 0.23564 c -0.0248,-0.0372 -0.0413,-0.14469 -0.0413,-0.29352 v -0.91778 c 0,-0.29352 -0.16536,-0.47128 -0.47129,-0.47128 -0.29352,0 -0.44648,0.22324 -0.48782,0.48369 z m 0.52503,0.83922 c -0.0827,0.0868 -0.19016,0.17363 -0.31419,0.17363 -0.16536,0 -0.23564,-0.0992 -0.23564,-0.25631 0,-0.26045 0.33899,-0.41341 0.54983,-0.47542 z m 0.91778,0.17363 c 0.0827,0.11576 0.19844,0.19017 0.34313,0.19017 0.26045,0 0.47542,-0.22324 0.47542,-0.85989 0,-0.63252 -0.21497,-0.85576 -0.47542,-0.85576 -0.12402,0 -0.22738,0.0744 -0.30592,0.15296 v -0.76068 h -0.22738 v 1.84382 c 0,0.2191 -0.0124,0.3514 -0.0372,0.44648 h 0.17777 z m 0.0372,-1.19062 c 0.0661,-0.0661 0.14882,-0.14469 0.24804,-0.14469 0.19431,0 0.30593,0.15709 0.30593,0.66559 0,0.50849 -0.11989,0.66972 -0.31006,0.66972 -0.0703,0 -0.17364,-0.0661 -0.24391,-0.16123 z m 1.17408,1.34772 h 0.22738 v -2.2903 h -0.22738 z m 0.80409,-0.97978 c 0.004,-0.39275 0.11162,-0.51263 0.27698,-0.51263 0.20671,0 0.26872,0.15709 0.27699,0.51263 z m 0.78135,0.1943 v -0.11162 c 0,-0.47543 -0.1571,-0.78548 -0.50437,-0.78548 -0.34726,0 -0.50436,0.26045 -0.50436,0.85576 0,0.59944 0.1571,0.85989 0.50436,0.85989 0.30179,0 0.48783,-0.23151 0.52504,-0.47955 l -0.21911,-0.0248 c -0.0248,0.14883 -0.0992,0.31419 -0.27285,0.31419 -0.21911,0 -0.31006,-0.13642 -0.31006,-0.53743 v -0.0909 z m 1.17719,-0.50436 c -0.0579,-0.24805 -0.20671,-0.39274 -0.46303,-0.39274 -0.25218,0 -0.42994,0.18603 -0.42994,0.40101 0,0.48369 0.69866,0.49195 0.69866,0.87229 0,0.13643 -0.11162,0.25218 -0.23564,0.25218 -0.1695,0 -0.25632,-0.14882 -0.30179,-0.29352 l -0.21084,0.0455 c 0.0786,0.27698 0.22737,0.43821 0.52916,0.43821 0.26045,0 0.45062,-0.19843 0.45062,-0.45888 0,-0.51263 -0.69866,-0.5333 -0.69866,-0.86817 0,-0.11162 0.0744,-0.19843 0.1819,-0.19843 0.18603,0 0.24391,0.11575 0.28525,0.26044 z m 0.30075,-0.93845 c 0.22738,0.41341 0.33487,0.80616 0.33487,1.24024 0,0.43408 -0.10749,0.83095 -0.33487,1.24023 l 0.15296,0.0951 c 0.26872,-0.42168 0.39275,-0.81856 0.39275,-1.33532 0,-0.51677 -0.12403,-0.90951 -0.39275,-1.33532 z m 0,0"
       style="fill:#231f20;fill-opacity:1;fill-rule:nonzero;stroke:none;stroke-width:0.352778"
       aria-label="(controlable variables)" />
    <path
       id="path943"
       d="m 68.549818,157.18627 v 2.54662 h 1.207162 v -0.23151 h -0.930176 v -0.97979 h 0.65319 v -0.23564 h -0.65319 v -0.86817 h 0.888834 v -0.23151 z m 1.760099,1.59577 -0.421679,0.95085 h 0.260449 l 0.310058,-0.71934 0.33073,0.71934 h 0.260449 l -0.463021,-0.95085 0.392741,-0.8847 h -0.260449 l -0.268718,0.64492 -0.30179,-0.64492 h -0.260449 z m 1.237134,-0.8847 h -0.21084 v 2.43499 h 0.252181 v -0.73174 c 0.08268,0.0827 0.202572,0.1695 0.338997,0.1695 0.289389,0 0.529167,-0.24804 0.529167,-0.95498 0,-0.7028 -0.239778,-0.95084 -0.529167,-0.95084 -0.16123,0 -0.289387,0.0827 -0.376204,0.21084 h -0.0041 z m 0.04134,0.35553 c 0.07855,-0.10748 0.190169,-0.17776 0.268718,-0.17776 0.21084,0 0.343131,0.17776 0.343131,0.74 0,0.56638 -0.119889,0.74001 -0.338997,0.74001 -0.111621,0 -0.198438,-0.0868 -0.272852,-0.16123 z m 1.413867,0.39274 c 0.0041,-0.43408 0.124024,-0.5705 0.305925,-0.5705 0.23151,0 0.30179,0.17776 0.310058,0.5705 z m 0.868164,0.21084 v -0.11989 c 0,-0.52503 -0.173633,-0.87229 -0.562239,-0.87229 -0.380339,0 -0.558106,0.28938 -0.558106,0.95084 0,0.66559 0.177767,0.95498 0.558106,0.95498 0.338997,0 0.545703,-0.25631 0.58291,-0.52916 l -0.239779,-0.0289 c -0.02894,0.16536 -0.111621,0.34313 -0.305924,0.34313 -0.239779,0 -0.343132,-0.1447 -0.343132,-0.59531 v -0.10336 z m 1.346688,-0.41341 c -0.04961,-0.35967 -0.202571,-0.57877 -0.537435,-0.57877 -0.380338,0 -0.558105,0.28938 -0.558105,0.95084 0,0.66559 0.177767,0.95498 0.558105,0.95498 0.334864,0 0.504362,-0.25631 0.545703,-0.61598 h -0.248047 c -0.04134,0.31833 -0.132291,0.40101 -0.297656,0.40101 -0.214974,0 -0.305924,-0.13229 -0.305924,-0.74001 0,-0.60358 0.09095,-0.74 0.305924,-0.74 0.157097,0 0.264583,0.0909 0.289388,0.36793 z m 0.181901,-0.33073 h 0.248047 v 1.26091 c 0,0.28112 0.111621,0.39687 0.3514,0.39687 0.103353,0 0.169498,-0.0165 0.239778,-0.0372 v -0.19017 c -0.04134,0.0124 -0.107486,0.0331 -0.157096,0.0331 -0.124023,0 -0.181901,-0.0744 -0.181901,-0.1819 v -1.28158 h 0.338997 v -0.21497 H 75.89924 v -0.61185 h -0.252181 v 0.61185 h -0.248047 z m 1.402499,0.32246 c 0.02894,-0.16536 0.124023,-0.35966 0.318326,-0.35966 0.161231,0 0.264583,0.12815 0.264583,0.32659 v 0.13229 c -0.367935,0.0827 -0.864029,0.31006 -0.864029,0.76068 0,0.28939 0.190169,0.47542 0.475423,0.47542 0.115755,0 0.293522,-0.0951 0.392741,-0.1943 l 0.02894,0.1571 h 0.264583 c -0.0248,-0.0413 -0.04547,-0.16123 -0.04547,-0.32247 v -1.02526 c 0,-0.32246 -0.186035,-0.52089 -0.525032,-0.52089 -0.322461,0 -0.49196,0.24804 -0.541569,0.53743 z m 0.582909,0.93018 c -0.09095,0.0951 -0.210839,0.19017 -0.351399,0.19017 -0.181901,0 -0.260449,-0.10749 -0.260449,-0.28112 0,-0.28939 0.380338,-0.45889 0.611848,-0.52917 z m 0.56224,-1.25264 h 0.248047 v 1.26091 c 0,0.28112 0.111621,0.39687 0.3514,0.39687 0.103353,0 0.169498,-0.0165 0.239778,-0.0372 v -0.19017 c -0.04134,0.0124 -0.107487,0.0331 -0.157096,0.0331 -0.124023,0 -0.181901,-0.0744 -0.181901,-0.1819 v -1.28158 h 0.338997 v -0.21497 h -0.338997 v -0.61185 h -0.252181 v 0.61185 H 77.94666 Z m 1.21543,1.62058 h 0.252181 v -1.83555 h -0.25218 z m 0,-2.24896 h 0.252181 v -0.29766 h -0.25218 z m 0.895035,1.33118 c 0,-0.60358 0.09095,-0.74 0.305925,-0.74 0.219108,0 0.310059,0.13642 0.310059,0.74 0,0.60772 -0.09095,0.74001 -0.310059,0.74001 -0.214974,0 -0.305925,-0.13229 -0.305925,-0.74001 z m -0.25218,0 c 0,0.66559 0.177767,0.95498 0.558105,0.95498 0.384473,0 0.56224,-0.28939 0.56224,-0.95498 0,-0.66146 -0.177767,-0.95084 -0.56224,-0.95084 -0.380338,0 -0.558105,0.28938 -0.558105,0.95084 z m 1.500683,0.91778 h 0.256315 v -1.43041 c 0.111621,-0.14056 0.223242,-0.22737 0.347266,-0.22737 0.14056,0 0.202571,0.0909 0.202571,0.30179 v 1.35599 h 0.252181 v -1.38907 c 0,-0.33899 -0.148828,-0.47955 -0.401009,-0.47955 -0.119889,0 -0.297656,0.11162 -0.417545,0.23564 v -0.20257 h -0.239779 z m 0,0"
       style="fill:#231f20;fill-opacity:1;fill-rule:nonzero;stroke:none;stroke-width:0.352778"
       aria-label="Expectation" />
    <g
       id="g943"
       aria-label="(some hidden &#10;or observable element)&#10;h"
       transform="matrix(0.35277776,0,0,0.35277776,67.622099,163.54342)">
      <path
         id="path944"
         d="M 2.1434266,0.71509844 C 1.4871766,-0.44505781 1.1824891,-1.5700578 1.1824891,-2.8005266 c 0,-1.2304687 0.3046875,-2.34375 0.9609375,-3.515625 L 1.7098328,-6.5856828 c -0.76171874,1.2070312 -1.11328124,2.3203125 -1.11328124,3.7851562 0,1.4648438 0.3515625,2.58984379 1.11328124,3.78515629 z M 5.5125672,-3.6559953 c -0.1640625,-0.703125 -0.5859375,-1.1132813 -1.3125,-1.1132813 -0.7148438,0 -1.21875,0.5273438 -1.21875,1.1367188 0,1.3710937 1.9804687,1.3945312 1.9804687,2.4726562 0,0.38671879 -0.3164062,0.71484379 -0.6679687,0.71484379 -0.4804688,0 -0.7265625,-0.421875 -0.8554688,-0.83203129 l -0.5976562,0.1289063 c 0.2226562,0.78515624 0.6445312,1.24218749 1.5,1.24218749 0.7382812,0 1.2773437,-0.5625 1.2773437,-1.30078129 0,-1.453125 -1.9804687,-1.5117187 -1.9804687,-2.4609375 0,-0.3164062 0.2109375,-0.5625 0.515625,-0.5625 0.5273437,0 0.6914062,0.328125 0.8085937,0.7382813 z m 1.4501953,1.3125 c 0,-1.546875 0.234375,-1.8867188 0.7851562,-1.8867188 0.5507813,0 0.7851563,0.3398438 0.7851563,1.8867188 0,1.54687499 -0.234375,1.89843749 -0.7851563,1.89843749 -0.5507812,0 -0.7851562,-0.3515625 -0.7851562,-1.89843749 z m -0.6445313,0 c 0,1.69921874 0.4453125,2.43749999 1.4296875,2.43749999 0.984375,0 1.4296875,-0.73828125 1.4296875,-2.43749999 0,-1.6875 -0.4453125,-2.4257813 -1.4296875,-2.4257813 -0.984375,0 -1.4296875,0.7382813 -1.4296875,2.4257813 z M 10.873895,2.546875e-4 V -3.7380266 c 0.164063,-0.2109375 0.398438,-0.4921875 0.785157,-0.4921875 0.351562,0 0.515625,0.140625 0.515625,0.6328125 V 2.546875e-4 h 0.644531 V -3.7380266 c 0.199219,-0.2109375 0.421875,-0.4921875 0.820312,-0.4921875 0.339844,0 0.492188,0.140625 0.492188,0.6328125 V 2.546875e-4 h 0.644531 V -3.6911516 c 0,-0.6679687 -0.328125,-1.078125 -0.949219,-1.078125 -0.457031,0 -0.820312,0.3046875 -1.089843,0.5976563 -0.117188,-0.3515625 -0.457032,-0.5976563 -0.832032,-0.5976563 -0.445312,0 -0.832031,0.3046875 -1.089843,0.5976563 V -4.6755266 H 10.217645 V 2.546875e-4 Z M 16.466669,-2.7770891 c 0.01172,-1.1132812 0.316406,-1.453125 0.785156,-1.453125 0.585937,0 0.761719,0.4453125 0.785156,1.453125 z m 2.214843,0.5507813 v -0.3164063 c 0,-1.3476562 -0.445312,-2.2265625 -1.429687,-2.2265625 -0.984375,0 -1.429688,0.7382813 -1.429688,2.4257813 0,1.69921874 0.445313,2.43749999 1.429688,2.43749999 0.855469,0 1.382812,-0.65625 1.488281,-1.35937499 l -0.621094,-0.070312 c -0.07031,0.42187499 -0.28125,0.89062499 -0.773437,0.89062499 -0.621094,0 -0.878906,-0.38671875 -0.878906,-1.52343749 v -0.2578125 z m 2.967774,2.2265624875 h 0.65625 V -3.6559953 c 0.28125,-0.3632813 0.574219,-0.5742188 0.890625,-0.5742188 0.351562,0 0.503906,0.234375 0.503906,0.7734375 V 2.546875e-4 h 0.65625 V -3.5505266 c 0,-0.8554687 -0.386719,-1.21875 -1.03125,-1.21875 -0.304687,0 -0.75,0.2929688 -1.019531,0.5976563 v -2.3203125 h -0.65625 z m 4.03125,0 h 0.644531 V -4.6755266 h -0.644531 z m 0,-5.7421874875 h 0.644531 v -0.75 h -0.644531 z m 4.107422,5.7421874875 h 0.609375 C 30.32702,-0.26927656 30.291864,-0.64427656 30.291864,-1.2653703 v -5.2265625 h -0.644531 v 2.15625 c -0.222656,-0.2226563 -0.515625,-0.4335938 -0.867188,-0.4335938 -0.738281,0 -1.347656,0.6328125 -1.347656,2.4257813 0,1.80468749 0.609375,2.43749999 1.347656,2.43749999 0.410157,0 0.738282,-0.2109375 0.960938,-0.5390625 h 0.02344 z M 29.647333,-0.90208906 c -0.199219,0.26953125 -0.492188,0.45703125 -0.691406,0.45703125 -0.539063,0 -0.878907,-0.45703125 -0.878907,-1.89843749 0,-1.4414063 0.316407,-1.8867188 0.867188,-1.8867188 0.28125,0 0.515625,0.2226563 0.703125,0.4101563 z m 4.136719,0.9023437475 h 0.609375 C 34.323114,-0.26927656 34.287958,-0.64427656 34.287958,-1.2653703 v -5.2265625 h -0.644531 v 2.15625 c -0.222657,-0.2226563 -0.515625,-0.4335938 -0.867188,-0.4335938 -0.738281,0 -1.347656,0.6328125 -1.347656,2.4257813 0,1.80468749 0.609375,2.43749999 1.347656,2.43749999 0.410156,0 0.738281,-0.2109375 0.960938,-0.5390625 h 0.02344 z M 33.643427,-0.90208906 c -0.199219,0.26953125 -0.492188,0.45703125 -0.691407,0.45703125 -0.539062,0 -0.878906,-0.45703125 -0.878906,-1.89843749 0,-1.4414063 0.316406,-1.8867188 0.867188,-1.8867188 0.28125,0 0.515625,0.2226563 0.703125,0.4101563 z M 35.95202,-2.7770891 c 0.01172,-1.1132812 0.316407,-1.453125 0.785157,-1.453125 0.585937,0 0.761718,0.4453125 0.785156,1.453125 z m 2.214844,0.5507813 v -0.3164063 c 0,-1.3476562 -0.445312,-2.2265625 -1.429687,-2.2265625 -0.984375,0 -1.429688,0.7382813 -1.429688,2.4257813 0,1.69921874 0.445313,2.43749999 1.429688,2.43749999 0.855468,0 1.382812,-0.65625 1.488281,-1.35937499 l -0.621094,-0.070312 c -0.07031,0.42187499 -0.28125,0.89062499 -0.773437,0.89062499 -0.621094,0 -0.878907,-0.38671875 -0.878907,-1.52343749 v -0.2578125 z m 0.969727,2.2265624875 h 0.65625 V -3.6559953 c 0.28125,-0.3632813 0.574218,-0.5742188 0.890625,-0.5742188 0.351562,0 0.503906,0.234375 0.503906,0.7734375 V 2.546875e-4 h 0.65625 V -3.5505266 c 0,-0.8554687 -0.386719,-1.21875 -1.03125,-1.21875 -0.304688,0 -0.75,0.2929688 -1.054688,0.5976563 V -4.6755266 H 39.136591 Z M -12.540167,8.4553328 c 0,-1.546875 0.234375,-1.8867187 0.785156,-1.8867187 0.550781,0 0.785156,0.3398437 0.785156,1.8867187 0,1.5468752 -0.234375,1.8984372 -0.785156,1.8984372 -0.550781,0 -0.785156,-0.351562 -0.785156,-1.8984372 z m -0.644531,0 c 0,1.6992192 0.445312,2.4375002 1.429687,2.4375002 0.984375,0 1.429688,-0.738281 1.429688,-2.4375002 0,-1.6875 -0.445313,-2.4257812 -1.429688,-2.4257812 -0.984375,0 -1.429687,0.7382812 -1.429687,2.4257812 z m 3.7822261,2.3437502 h 0.6445313 V 7.4709578 c 0.3515625,-0.6679687 0.7148437,-0.8320312 1.2070312,-0.8320312 v -0.609375 c -0.515625,0 -0.796875,0.09375 -1.1835937,0.65625 h -0.023437 v -0.5625 h -0.6445313 z m 4.8632813,-2.3437502 c 0,-1.546875 0.234375,-1.8867187 0.7851562,-1.8867187 0.5507813,0 0.7851563,0.3398437 0.7851563,1.8867187 0,1.5468752 -0.234375,1.8984372 -0.7851563,1.8984372 -0.5507812,0 -0.7851562,-0.351562 -0.7851562,-1.8984372 z m -0.6445313,0 c 0,1.6992192 0.4453125,2.4375002 1.4296875,2.4375002 0.984375,0 1.4296875,-0.738281 1.4296875,-2.4375002 0,-1.6875 -0.4453125,-2.4257812 -1.4296875,-2.4257812 -0.984375,0 -1.4296875,0.7382812 -1.4296875,2.4257812 z m 4.42675784,1.8984372 c 0.234375,0.328125 0.5625,0.539063 0.97265625,0.539063 0.73828125,0 1.34765621,-0.632813 1.34765621,-2.4375002 0,-1.7929687 -0.60937496,-2.4257812 -1.34765621,-2.4257812 -0.3515625,0 -0.64453125,0.2109375 -0.8671875,0.4335937 v -2.15625 H -1.2960266 v 5.2265625 c 0,0.6210942 -0.035156,0.9960942 -0.1054687,1.2656252 h 0.50390624 z m 0.10546875,-3.3749997 c 0.1875,-0.1875 0.421875,-0.4101562 0.703125,-0.4101562 0.55078125,0 0.8671875,0.4453125 0.8671875,1.8867187 0,1.4414063 -0.33984375,1.8984372 -0.87890625,1.8984372 -0.19921875,0 -0.4921875,-0.1875 -0.69140625,-0.4570309 z M 5.0086609,7.1428328 c -0.1640625,-0.703125 -0.5859375,-1.1132812 -1.3125,-1.1132812 -0.7148437,0 -1.21875,0.5273437 -1.21875,1.1367187 0,1.3710938 1.9804688,1.3945313 1.9804688,2.4726563 0,0.3867184 -0.3164063,0.7148434 -0.6679688,0.7148434 -0.4804687,0 -0.7265625,-0.4218747 -0.8554687,-0.8320309 L 2.3367859,9.6506453 c 0.2226563,0.7851567 0.6445313,1.2421877 1.5,1.2421877 0.7382813,0 1.2773438,-0.5625 1.2773438,-1.3007814 0,-1.453125 -1.9804688,-1.5117188 -1.9804688,-2.4609375 0,-0.3164063 0.2109375,-0.5625 0.515625,-0.5625 0.5273438,0 0.6914063,0.328125 0.8085938,0.7382812 z m 1.4501953,0.8789063 c 0.011719,-1.1132813 0.3164063,-1.453125 0.7851563,-1.453125 0.5859375,0 0.7617187,0.4453125 0.7851562,1.453125 z M 8.6737,8.5725203 V 8.2561141 c 0,-1.3476563 -0.4453125,-2.2265625 -1.4296875,-2.2265625 -0.984375,0 -1.4296875,0.7382812 -1.4296875,2.4257812 0,1.6992192 0.4453125,2.4375002 1.4296875,2.4375002 0.8554687,0 1.3828125,-0.65625 1.4882812,-1.3593752 L 8.1112,9.4631453 C 8.0408875,9.8850203 7.82995,10.35377 7.3377625,10.35377 6.7166687,10.35377 6.4588562,9.9670516 6.4588562,8.8303328 V 8.5725203 Z M 9.5965516,10.799083 H 10.241083 V 7.4709578 c 0.351562,-0.6679687 0.714844,-0.8320312 1.207031,-0.8320312 v -0.609375 c -0.515625,0 -0.796875,0.09375 -1.183594,0.65625 h -0.02344 v -0.5625 H 9.5965516 Z m 2.0683594,-4.6757814 1.148437,4.6757814 h 0.867188 L 14.828973,6.1233016 H 14.184442 L 13.27038,10.154552 h -0.02344 l -0.9375,-4.0312504 z m 4.485351,1.359375 c 0.07031,-0.421875 0.316407,-0.9140625 0.808594,-0.9140625 0.421875,0 0.679688,0.328125 0.679688,0.8320312 v 0.3398438 c -0.9375,0.2109375 -2.203125,0.7851562 -2.203125,1.9453125 0,0.7382814 0.480468,1.2070314 1.21875,1.2070314 0.292968,0 0.738281,-0.234375 0.996093,-0.492188 l 0.08203,0.398438 H 18.40026 C 18.32995,10.693614 18.283075,10.388927 18.283075,9.9670516 V 7.3654891 c 0,-0.8320313 -0.46875,-1.3359375 -1.335938,-1.3359375 -0.832031,0 -1.265625,0.6328125 -1.382812,1.3710937 z m 1.488282,2.3789062 c -0.234375,0.2460942 -0.539063,0.4921872 -0.890625,0.4921872 -0.46875,0 -0.667969,-0.28125 -0.667969,-0.7265622 0,-0.7382812 0.960937,-1.171875 1.558594,-1.3476562 z m 2.601562,0.4921872 c 0.234375,0.328125 0.5625,0.539063 0.972656,0.539063 0.738282,0 1.347657,-0.632813 1.347657,-2.4375002 0,-1.7929687 -0.609375,-2.4257812 -1.347657,-2.4257812 -0.351562,0 -0.644531,0.2109375 -0.867187,0.4335937 v -2.15625 h -0.644531 v 5.2265625 c 0,0.6210942 -0.03516,0.9960942 -0.105469,1.2656252 h 0.503906 z m 0.105469,-3.3749997 c 0.1875,-0.1875 0.421875,-0.4101562 0.703125,-0.4101562 0.550781,0 0.867187,0.4453125 0.867187,1.8867187 0,1.4414063 -0.339843,1.8984372 -0.878906,1.8984372 -0.199219,0 -0.492187,-0.1875 -0.691406,-0.4570309 z M 23.6737,10.799083 h 0.644531 V 4.3068953 H 23.6737 Z m 2.279297,-2.7773439 c 0.01172,-1.1132813 0.316406,-1.453125 0.785156,-1.453125 0.585938,0 0.761719,0.4453125 0.785156,1.453125 z m 2.214844,0.5507812 V 8.2561141 c 0,-1.3476563 -0.445313,-2.2265625 -1.429688,-2.2265625 -0.984375,0 -1.429687,0.7382812 -1.429687,2.4257812 0,1.6992192 0.445312,2.4375002 1.429687,2.4375002 0.855469,0 1.382813,-0.65625 1.488281,-1.3593752 l -0.621093,-0.070312 c -0.07031,0.421875 -0.28125,0.8906252 -0.773438,0.8906252 -0.621094,0 -0.878906,-0.3867189 -0.878906,-1.5234377 V 8.5725203 Z M 31.45202,8.0217391 c 0.01172,-1.1132813 0.316407,-1.453125 0.785157,-1.453125 0.585937,0 0.761718,0.4453125 0.785156,1.453125 z m 2.214844,0.5507812 V 8.2561141 c 0,-1.3476563 -0.445312,-2.2265625 -1.429687,-2.2265625 -0.984375,0 -1.429688,0.7382812 -1.429688,2.4257812 0,1.6992192 0.445313,2.4375002 1.429688,2.4375002 0.855468,0 1.382812,-0.65625 1.488281,-1.3593752 l -0.621094,-0.070312 c -0.07031,0.421875 -0.28125,0.8906252 -0.773437,0.8906252 -0.621094,0 -0.878907,-0.3867189 -0.878907,-1.5234377 v -0.257813 z m 1.004883,2.2265627 h 0.644531 V 4.3068953 h -0.644531 z m 2.279297,-2.7773439 c 0.01172,-1.1132813 0.316406,-1.453125 0.785156,-1.453125 0.585937,0 0.761719,0.4453125 0.785156,1.453125 z m 2.214843,0.5507812 V 8.2561141 c 0,-1.3476563 -0.445312,-2.2265625 -1.429687,-2.2265625 -0.984375,0 -1.429688,0.7382812 -1.429688,2.4257812 0,1.6992192 0.445313,2.4375002 1.429688,2.4375002 0.855469,0 1.382812,-0.65625 1.488281,-1.3593752 l -0.621094,-0.070312 c -0.07031,0.421875 -0.28125,0.8906252 -0.773437,0.8906252 -0.621094,0 -0.878906,-0.3867189 -0.878906,-1.5234377 v -0.257813 z m 1.69629,2.2265627 V 7.0608016 c 0.164062,-0.2109375 0.398437,-0.4921875 0.785156,-0.4921875 0.351562,0 0.515625,0.140625 0.515625,0.6328125 v 3.5976564 h 0.644531 V 7.0608016 c 0.199219,-0.2109375 0.421875,-0.4921875 0.820313,-0.4921875 0.339843,0 0.492187,0.140625 0.492187,0.6328125 V 10.799083 H 44.76452 V 7.1076766 c 0,-0.6679688 -0.328125,-1.078125 -0.949218,-1.078125 -0.457032,0 -0.820313,0.3046875 -1.089844,0.5976562 -0.117188,-0.3515625 -0.457031,-0.5976562 -0.832031,-0.5976562 -0.445313,0 -0.832032,0.3046875 -1.089844,0.5976562 V 6.1233016 H 40.205927 V 10.799083 Z M 46.45495,8.0217391 c 0.01172,-1.1132813 0.316406,-1.453125 0.785156,-1.453125 0.585938,0 0.761719,0.4453125 0.785156,1.453125 z m 2.214844,0.5507812 V 8.2561141 c 0,-1.3476563 -0.445313,-2.2265625 -1.429688,-2.2265625 -0.984375,0 -1.429687,0.7382812 -1.429687,2.4257812 0,1.6992192 0.445312,2.4375002 1.429687,2.4375002 0.855469,0 1.382813,-0.65625 1.488281,-1.3593752 l -0.621093,-0.070312 c -0.07031,0.421875 -0.28125,0.8906252 -0.773438,0.8906252 -0.621094,0 -0.878906,-0.3867189 -0.878906,-1.5234377 v -0.257813 z m 0.969726,2.2265627 h 0.65625 V 7.1428328 c 0.28125,-0.3632812 0.574219,-0.5742187 0.890625,-0.5742187 0.351563,0 0.503907,0.234375 0.503907,0.7734375 v 3.4570314 h 0.65625 V 7.2483016 c 0,-0.8554688 -0.386719,-1.21875 -1.03125,-1.21875 -0.304688,0 -0.75,0.2929687 -1.054688,0.5976562 V 6.1233016 H 49.63952 Z m 3.421875,-4.1367189 h 0.632813 v 3.2226562 c 0,0.7148437 0.28125,1.0078127 0.902344,1.0078127 0.269531,0 0.433593,-0.03516 0.609375,-0.09375 v -0.480469 c -0.105469,0.03516 -0.269532,0.08203 -0.398438,0.08203 -0.328125,0 -0.46875,-0.199218 -0.46875,-0.4687497 V 6.6623641 h 0.867188 V 6.1233016 H 54.338739 V 4.5529891 h -0.644531 v 1.5703125 h -0.632813 z m 2.794922,-2.1796875 c 0.644531,1.171875 0.949219,2.2851562 0.949219,3.515625 0,1.2304687 -0.304688,2.3554684 -0.949219,3.5156254 l 0.433594,0.269531 c 0.761719,-1.195313 1.113281,-2.3203127 1.113281,-3.7851564 0,-1.4648438 -0.351562,-2.578125 -1.113281,-3.7851563 z m 0,0"
         style="fill:#231f20;fill-opacity:1;fill-rule:nonzero;stroke:none" />
      <path
         id="path945"
         d="m 71.29577,-54.278066 h 0.65625 l 0.808594,-3.65625 c 0.363281,-0.363281 0.703125,-0.574218 1.007813,-0.574218 0.351562,0 0.46875,0.234375 0.351562,0.773437 l -0.773437,3.457031 h 0.65625 l 0.785156,-3.550781 c 0.1875,-0.855469 -0.117188,-1.21875 -0.761719,-1.21875 -0.304687,0 -0.820312,0.292969 -1.148437,0.597656 l 0.503906,-2.320312 h -0.644531 z m 0,0"
         style="fill:#231f20;fill-opacity:1;fill-rule:nonzero;stroke:none" />
    </g>
    <path
       id="path946"
       d="m 94.817964,145.45469 v -0.14883 h -0.206705 v -1.65778 h -0.11989 c -0.08268,0.0703 -0.177766,0.11162 -0.281119,0.13643 v 0.11162 l 0.223242,-0.0207 v 1.4304 h -0.219108 v 0.14883 z m 0,0"
       style="fill:#231f20;fill-opacity:1;fill-rule:nonzero;stroke:none;stroke-width:0.352778"
       aria-label="1" />
    <path
       id="path947"
       d="m 95.98276,144.39635 h 0.231511 l 0.285254,-1.28984 c 0.128157,-0.12816 0.248046,-0.20258 0.355533,-0.20258 0.124024,0 0.165365,0.0827 0.124024,0.27286 l -0.272852,1.21956 h 0.231511 l 0.276985,-1.25264 c 0.06615,-0.30179 -0.04134,-0.42995 -0.268717,-0.42995 -0.107487,0 -0.289388,0.10336 -0.405143,0.21084 l 0.177767,-0.81855 h -0.227377 z m 0,0"
       style="fill:#231f20;fill-opacity:1;fill-rule:nonzero;stroke:none;stroke-width:0.352778"
       aria-label=" h" />
    <path
       id="path948"
       d="m 98.12424,145.45469 v -0.14883 h -0.677995 c 0.268717,-0.62012 0.665592,-0.76068 0.665592,-1.20303 0,-0.29765 -0.16123,-0.45475 -0.396875,-0.45475 -0.214974,0 -0.396875,0.11989 -0.417545,0.52503 h 0.165364 c 0.0124,-0.26871 0.115756,-0.3762 0.256315,-0.3762 0.124024,0 0.214974,0.0951 0.214974,0.28112 0,0.40514 -0.491959,0.69866 -0.649056,1.22783 v 0.14883 z m 0,0"
       style="fill:#231f20;fill-opacity:1;fill-rule:nonzero;stroke:none;stroke-width:0.352778"
       aria-label="2" />
    <path
       id="path949"
       d="m 101.73022,142.74684 h -0.19017 l -0.48369,2.19108 h 0.22738 l 0.14469,-0.66146 c 0.062,0.0744 0.14883,0.15296 0.27285,0.15296 0.26045,0 0.52503,-0.22324 0.66973,-0.85989 0.13642,-0.63252 -0.0289,-0.85577 -0.28939,-0.85577 -0.14883,0 -0.27698,0.0744 -0.38034,0.19017 h -0.004 z m -0.0289,0.31419 c 0.091,-0.0951 0.20671,-0.1571 0.27285,-0.1571 0.19431,0 0.27699,0.1571 0.16537,0.6656 -0.11162,0.50849 -0.26045,0.66972 -0.45062,0.66972 -0.10335,0 -0.16536,-0.0827 -0.21911,-0.14882 z m 0,0"
       style="fill:#231f20;fill-opacity:1;fill-rule:nonzero;stroke:none;stroke-width:0.352778"
       aria-label="p" />
    <path
       id="path950"
       d="m 103.20196,145.45469 v -0.14883 h -0.20671 v -1.65778 h -0.11988 c -0.0827,0.0703 -0.17777,0.11162 -0.28112,0.13643 v 0.11162 l 0.22324,-0.0207 v 1.4304 h -0.21911 v 0.14883 z m 0,0"
       style="fill:#231f20;fill-opacity:1;fill-rule:nonzero;stroke:none;stroke-width:0.352778"
       aria-label="1" />
    <path
       id="path951"
       d="m 104.94139,142.74684 h -0.19017 l -0.48369,2.19108 h 0.22738 l 0.14469,-0.66146 c 0.062,0.0744 0.14883,0.15296 0.27285,0.15296 0.26045,0 0.52503,-0.22324 0.66973,-0.85989 0.13642,-0.63252 -0.0289,-0.85577 -0.28939,-0.85577 -0.14883,0 -0.27698,0.0744 -0.38034,0.19017 h -0.004 z m -0.0289,0.31419 c 0.0909,-0.0951 0.20671,-0.1571 0.27285,-0.1571 0.19431,0 0.27699,0.1571 0.16537,0.6656 -0.11162,0.50849 -0.26045,0.66972 -0.45062,0.66972 -0.10335,0 -0.16536,-0.0827 -0.21911,-0.14882 z m 0,0"
       style="fill:#231f20;fill-opacity:1;fill-rule:nonzero;stroke:none;stroke-width:0.352778"
       aria-label=" p" />
    <path
       id="path952"
       d="m 106.50823,145.45469 v -0.14883 h -0.678 c 0.26872,-0.62012 0.66559,-0.76068 0.66559,-1.20303 0,-0.29765 -0.16123,-0.45475 -0.39687,-0.45475 -0.21497,0 -0.39688,0.11989 -0.41755,0.52503 h 0.16537 c 0.0124,-0.26871 0.11575,-0.3762 0.25631,-0.3762 0.12403,0 0.21498,0.0951 0.21498,0.28112 0,0.40514 -0.49196,0.69866 -0.64906,1.22783 v 0.14883 z m 0,0"
       style="fill:#231f20;fill-opacity:1;fill-rule:nonzero;stroke:none;stroke-width:0.352778"
       aria-label="2 " />
    <path
       id="path953"
       d="m 107.99546,142.74684 h -0.19017 l -0.4837,2.19108 h 0.22738 l 0.14469,-0.66146 c 0.062,0.0744 0.14883,0.15296 0.27286,0.15296 0.26045,0 0.52503,-0.22324 0.66972,-0.85989 0.13643,-0.63252 -0.0289,-0.85577 -0.28939,-0.85577 -0.14882,0 -0.27698,0.0744 -0.38033,0.19017 h -0.004 z m -0.0289,0.31419 c 0.0909,-0.0951 0.2067,-0.1571 0.27285,-0.1571 0.1943,0 0.27698,0.1571 0.16536,0.6656 -0.11162,0.50849 -0.26045,0.66972 -0.45062,0.66972 -0.10335,0 -0.16536,-0.0827 -0.2191,-0.14882 z m 0,0"
       style="fill:#231f20;fill-opacity:1;fill-rule:nonzero;stroke:none;stroke-width:0.352778"
       aria-label="p" />
    <path
       id="path954"
       d="m 108.91324,144.04909 c 0.004,-0.12402 0.062,-0.25218 0.21498,-0.25218 0.11989,0 0.2067,0.0827 0.2067,0.29352 0,0.27699 -0.11162,0.34313 -0.3762,0.34313 v 0.14883 c 0.28112,0 0.40514,0.0827 0.40514,0.37621 0,0.24391 -0.11989,0.37207 -0.23564,0.37207 -0.16123,0 -0.24392,-0.10749 -0.26045,-0.30179 h -0.16123 c 0.004,0.26044 0.16123,0.45061 0.40101,0.45061 0.22324,0 0.43408,-0.16123 0.43408,-0.52916 0,-0.19017 -0.062,-0.37621 -0.26045,-0.44235 v -0.004 c 0.12816,-0.0248 0.23151,-0.1695 0.23151,-0.42168 0,-0.29765 -0.19844,-0.43408 -0.39687,-0.43408 -0.23152,0 -0.34314,0.1695 -0.36381,0.38034 z m 0,0"
       style="fill:#231f20;fill-opacity:1;fill-rule:nonzero;stroke:none;stroke-width:0.352778"
       aria-label="3" />
    <path
       id="path955"
       d="m 114.42402,143.23466 c 0.0289,-0.32246 -0.0703,-0.5209 -0.36793,-0.5209 -0.34727,0 -0.56224,0.26045 -0.69453,0.85577 -0.1323,0.59944 -0.0289,0.85989 0.31419,0.85989 0.30179,0 0.50436,-0.23151 0.61185,-0.55397 h -0.22324 c -0.0992,0.28526 -0.19844,0.3638 -0.34727,0.3638 -0.19017,0 -0.24391,-0.12402 -0.12402,-0.66972 0.11989,-0.54571 0.22737,-0.6656 0.42168,-0.6656 0.14056,0 0.2191,0.0827 0.18603,0.33073 z m 0,0"
       style="fill:#231f20;fill-opacity:1;fill-rule:nonzero;stroke:none;stroke-width:0.352778"
       aria-label="c" />
    <path
       id="path956"
       d="m 115.16711,145.45469 v -0.14883 h -0.20671 v -1.65778 h -0.11988 c -0.0827,0.0703 -0.17777,0.11162 -0.28112,0.13643 v 0.11162 l 0.22324,-0.0207 v 1.4304 h -0.21911 v 0.14883 z m 0,0"
       style="fill:#231f20;fill-opacity:1;fill-rule:nonzero;stroke:none;stroke-width:0.352778"
       aria-label="1" />
    <path
       id="path957"
       d="m 105.75167,153.5069 c 0.0951,-0.39274 0.22738,-0.51263 0.39274,-0.51263 0.20671,0 0.23565,0.1571 0.16123,0.51263 z m 0.74001,0.19431 0.0248,-0.11162 c 0.10749,-0.47543 0.0165,-0.78548 -0.33073,-0.78548 -0.34726,0 -0.56224,0.26044 -0.69453,0.85576 -0.13229,0.59944 -0.0289,0.85989 0.31419,0.85989 0.3018,0 0.54157,-0.23151 0.63252,-0.47955 l -0.21084,-0.0248 c -0.0661,0.14883 -0.17363,0.31419 -0.34726,0.31419 -0.21498,0 -0.27699,-0.13642 -0.18604,-0.53743 l 0.0165,-0.0909 z m 0,0"
       style="fill:#231f20;fill-opacity:1;fill-rule:nonzero;stroke:none;stroke-width:0.352778"
       aria-label=" e" />
    <path
       id="path958"
       d="m 85.687981,134.57912 h 20.288959 m -0.0631,0.0293 v 6.21101 m -10.492671,-6.24029 v 6.24029 m 10.555821,15.55361 v 5.60776 m 0,-0.0998 H 83.957959 m 33.511061,-18.05763 h 10.96222"
       style="fill:none;stroke:#231f20;stroke-width:0.176389;stroke-linecap:butt;stroke-linejoin:round;stroke-miterlimit:10;stroke-dasharray:none;stroke-opacity:1" />
  </g>
</svg>
