<?xml version="1.0" encoding="UTF-8" standalone="no"?>
<!-- Created with Inkscape (http://www.inkscape.org/) -->

<svg
   width="75.855827mm"
   height="38.659706mm"
   viewBox="0 0 75.855827 38.659706"
   version="1.1"
   id="svg1"
   xmlns:inkscape="http://www.inkscape.org/namespaces/inkscape"
   xmlns:sodipodi="http://sodipodi.sourceforge.net/DTD/sodipodi-0.dtd"
   xmlns="http://www.w3.org/2000/svg"
   xmlns:svg="http://www.w3.org/2000/svg">
  <sodipodi:namedview
     id="namedview1"
     pagecolor="#ffffff"
     bordercolor="#000000"
     borderopacity="0.25"
     inkscape:showpageshadow="2"
     inkscape:pageopacity="0.0"
     inkscape:pagecheckerboard="0"
     inkscape:deskcolor="#d1d1d1"
     inkscape:document-units="mm" />
  <defs
     id="defs1">
    <clipPath
       clipPathUnits="userSpaceOnUse"
       id="clipPath1051">
      <path
         d="M 0,0 H 595.276 V 841.89 H 0 Z"
         transform="matrix(1,0,0,-1.1700444,-303.73071,799.65011)"
         id="path1051" />
    </clipPath>
    <clipPath
       clipPathUnits="userSpaceOnUse"
       id="clipPath1061">
      <path
         d="M 0,0 H 595.276 V 841.89 H 0 Z"
         transform="matrix(1,0,0,-1.1700444,-389.02708,783.83391)"
         id="path1061" />
    </clipPath>
    <clipPath
       clipPathUnits="userSpaceOnUse"
       id="clipPath1071">
      <path
         d="M 0,0 H 595.276 V 841.89 H 0 Z"
         transform="matrix(1,0,0,-1.1700444,-449.02709,783.83391)"
         id="path1071" />
    </clipPath>
    <clipPath
       clipPathUnits="userSpaceOnUse"
       id="clipPath1074">
      <path
         d="M 0,0 H 595.276 V 841.89 H 0 Z"
         transform="matrix(1,0,0,-1.1700444,-303.73071,749.3382)"
         id="path1074" />
    </clipPath>
  </defs>
  <g
     inkscape:label="Calque 1"
     inkscape:groupmode="layer"
     id="layer1"
     transform="translate(-66.939607,-129.11667)">
    <path
       id="path987"
       d="m 91.437511,152.72011 h -17.99978 v -14.99975 h 17.99978 z"
       style="fill:#f3e5bf;fill-opacity:1;fill-rule:nonzero;stroke:none;stroke-width:0.352778" />
    <path
       id="path988"
       d="m 121.52804,157.48896 h -17.99978 v -14.99975 h 17.99978 z"
       style="fill:#f3e5bf;fill-opacity:1;fill-rule:nonzero;stroke:none;stroke-width:0.352778" />
    <path
       id="path989"
       d="m 142.69471,157.48896 h -17.99978 v -14.99975 h 17.99978 z"
       style="fill:#f3e5bf;fill-opacity:1;fill-rule:nonzero;stroke:none;stroke-width:0.352778" />
    <path
       id="path990"
       d="m 73.437488,136.39743 h 17.99978"
       style="fill:none;stroke:#231f20;stroke-width:0.176389;stroke-linecap:butt;stroke-linejoin:miter;stroke-miterlimit:4;stroke-dasharray:0.352778, 0.352778;stroke-dashoffset:0;stroke-opacity:1" />
    <path
       id="path991"
       d="m 73.437488,160.38631 h 17.99978"
       style="fill:none;stroke:#231f20;stroke-width:0.176389;stroke-linecap:butt;stroke-linejoin:miter;stroke-miterlimit:4;stroke-dasharray:0.352778, 0.352778;stroke-dashoffset:0;stroke-opacity:1" />
    <path
       id="path992"
       d="m 80.43069,144.07034 v 0.91228"
       style="fill:none;stroke:#231f20;stroke-width:0.176389;stroke-linecap:butt;stroke-linejoin:miter;stroke-miterlimit:4;stroke-dasharray:none;stroke-opacity:1" />
    <path
       id="path993"
       d="m 79.548384,144.72528 0.879475,1.52329 0.879475,-1.52329 z"
       style="fill:#231f20;fill-opacity:1;fill-rule:nonzero;stroke:none;stroke-width:0.352778" />
    <path
       id="path994"
       d="m 67.485309,133.93889 c -0.231511,-0.40927 -0.338998,-0.80615 -0.338998,-1.24023 0,-0.43408 0.107487,-0.82682 0.338998,-1.24024 l -0.152963,-0.0951 c -0.268717,0.42581 -0.39274,0.81855 -0.39274,1.33532 0,0.51676 0.124023,0.91364 0.39274,1.33532 z m 0.531233,-1.42213 c 0.02481,-0.14883 0.111621,-0.32246 0.285254,-0.32246 0.148828,0 0.239779,0.11575 0.239779,0.29352 v 0.11989 c -0.330729,0.0744 -0.777214,0.27698 -0.777214,0.68626 0,0.26045 0.169499,0.42581 0.429948,0.42581 0.103353,0 0.26045,-0.0827 0.3514,-0.17363 l 0.02894,0.14056 h 0.235644 c -0.0248,-0.0372 -0.04134,-0.14469 -0.04134,-0.29352 v -0.91777 c 0,-0.29353 -0.165364,-0.47129 -0.471289,-0.47129 -0.293522,0 -0.446484,0.22324 -0.487825,0.48369 z m 0.525033,0.83922 c -0.08268,0.0868 -0.190169,0.17364 -0.314193,0.17364 -0.165364,0 -0.235644,-0.0992 -0.235644,-0.25632 0,-0.26045 0.338997,-0.41341 0.549837,-0.47542 z m 0.607715,-1.89756 c 0.227376,0.41342 0.334863,0.80616 0.334863,1.24024 0,0.43408 -0.107487,0.83096 -0.334863,1.24023 l 0.152962,0.0951 c 0.268717,-0.42168 0.392741,-0.81856 0.392741,-1.33532 0,-0.51677 -0.124024,-0.90951 -0.392741,-1.33532 z m -1.663981,15.36134 c -0.231511,-0.40928 -0.338998,-0.80615 -0.338998,-1.24023 0,-0.43409 0.107487,-0.82683 0.338998,-1.24024 l -0.152963,-0.0951 c -0.268717,0.42581 -0.39274,0.81855 -0.39274,1.33532 0,0.51676 0.124023,0.91363 0.39274,1.33531 z m 0.564306,-0.40928 c 0.08268,0.11576 0.198438,0.19017 0.343132,0.19017 0.260449,0 0.475423,-0.22324 0.475423,-0.85989 0,-0.63252 -0.214974,-0.85577 -0.475423,-0.85577 -0.124024,0 -0.227376,0.0744 -0.305925,0.15297 v -0.76068 h -0.227376 v 1.84381 c 0,0.21911 -0.0124,0.3514 -0.03721,0.44649 h 0.177767 z m 0.03721,-1.19062 c 0.06615,-0.0662 0.148828,-0.1447 0.248047,-0.1447 0.194304,0 0.305925,0.1571 0.305925,0.6656 0,0.50849 -0.11989,0.66972 -0.310059,0.66972 -0.07028,0 -0.173633,-0.0661 -0.243913,-0.16123 z m 1.062468,-0.88057 c 0.227376,0.41341 0.334863,0.80615 0.334863,1.24024 0,0.43408 -0.107487,0.83095 -0.334863,1.24023 l 0.152962,0.0951 c 0.268717,-0.42168 0.392741,-0.81855 0.392741,-1.33531 0,-0.51677 -0.124024,-0.90951 -0.392741,-1.33532 z m -1.575098,13.53302 c -0.23151,-0.40927 -0.338997,-0.80615 -0.338997,-1.24023 0,-0.43408 0.107487,-0.82682 0.338997,-1.24023 l -0.152962,-0.0951 c -0.268717,0.42581 -0.392741,0.81856 -0.392741,1.33532 0,0.51676 0.124024,0.91364 0.392741,1.33532 z m 1.225765,-1.41386 c -0.04548,-0.32246 -0.186035,-0.5209 -0.483691,-0.5209 -0.347266,0 -0.504362,0.26045 -0.504362,0.85576 0,0.59945 0.157096,0.8599 0.504362,0.8599 0.297656,0 0.450618,-0.23151 0.487825,-0.55398 h -0.219108 c -0.04134,0.28526 -0.124023,0.36381 -0.268717,0.36381 -0.194304,0 -0.276986,-0.12403 -0.276986,-0.66973 0,-0.5457 0.08268,-0.66559 0.276986,-0.66559 0.14056,0 0.239778,0.0827 0.260449,0.33073 z m 0.26355,-1.0666 c 0.227376,0.41341 0.334863,0.80615 0.334863,1.24023 0,0.43408 -0.107487,0.83096 -0.334863,1.24023 l 0.152962,0.0951 c 0.268718,-0.42168 0.392741,-0.81856 0.392741,-1.33532 0,-0.51676 -0.124023,-0.90951 -0.392741,-1.33532 z m -1.578198,10.12237 c -0.231511,-0.40927 -0.338998,-0.80615 -0.338998,-1.24023 0,-0.43408 0.107487,-0.82682 0.338998,-1.24023 l -0.152963,-0.0951 c -0.268717,0.42582 -0.39274,0.81856 -0.39274,1.33532 0,0.51676 0.124023,0.91364 0.39274,1.33532 z m 1.110009,-0.25218 h 0.214974 c -0.0248,-0.0951 -0.03721,-0.22737 -0.03721,-0.44648 v -1.84382 h -0.227376 v 0.76068 c -0.07855,-0.0785 -0.181901,-0.15296 -0.305924,-0.15296 -0.26045,0 -0.475424,0.22324 -0.475424,0.85576 0,0.63665 0.214974,0.8599 0.475424,0.8599 0.144694,0 0.260449,-0.0744 0.338997,-0.19017 h 0.0083 z m -0.04961,-0.31832 c -0.07028,0.0951 -0.173633,0.16123 -0.243913,0.16123 -0.190169,0 -0.310058,-0.16123 -0.310058,-0.66973 0,-0.5085 0.111621,-0.66559 0.305924,-0.66559 0.09922,0 0.181901,0.0786 0.248047,0.14469 z m 0.603581,-1.90996 c 0.227376,0.41341 0.334863,0.80615 0.334863,1.24023 0,0.43408 -0.107487,0.83096 -0.334863,1.24023 l 0.152962,0.0951 c 0.268717,-0.42168 0.392741,-0.81856 0.392741,-1.33532 0,-0.51676 -0.124024,-0.9095 -0.392741,-1.33532 z m 71.611128,-26.14208 c -0.23151,-0.40927 -0.339,-0.80615 -0.339,-1.24023 0,-0.43408 0.10749,-0.82682 0.339,-1.24023 l -0.15296,-0.0951 c -0.26872,0.42581 -0.39274,0.81856 -0.39274,1.33532 0,0.51676 0.12402,0.91364 0.39274,1.33532 z m 0.46509,-1.23196 c 0.004,-0.39274 0.11162,-0.51263 0.27698,-0.51263 0.20671,0 0.26872,0.15709 0.27699,0.51263 z m 0.78135,0.1943 v -0.11162 c 0,-0.47542 -0.1571,-0.78548 -0.50437,-0.78548 -0.34726,0 -0.50436,0.26045 -0.50436,0.85576 0,0.59945 0.1571,0.8599 0.50436,0.8599 0.30179,0 0.48783,-0.23151 0.52503,-0.47956 l -0.2191,-0.0248 c -0.0248,0.14883 -0.0992,0.3142 -0.27285,0.3142 -0.21911,0 -0.31006,-0.13643 -0.31006,-0.53744 v -0.091 z m 0.24287,-1.4428 c 0.22738,0.41341 0.33487,0.80615 0.33487,1.24023 0,0.43408 -0.10749,0.83096 -0.33487,1.24023 l 0.15297,0.0951 c 0.26871,-0.42168 0.39274,-0.81856 0.39274,-1.33532 0,-0.51676 -0.12403,-0.90951 -0.39274,-1.33532 z m 0,0"
       style="fill:#231f20;fill-opacity:1;fill-rule:nonzero;stroke:none;stroke-width:0.352778"
       aria-label="(a)&#10;(b)&#10;(c)&#10;(d)&#10;(e)" />
    <path
       id="path995"
       d="M 86.430536,135.16272 H 74.430448 v -5.00027 h 12.000088 z"
       style="fill:#ffffff;fill-opacity:1;fill-rule:nonzero;stroke:#c18f07;stroke-width:0.352778;stroke-linecap:butt;stroke-linejoin:miter;stroke-miterlimit:4;stroke-dasharray:none;stroke-opacity:1" />
    <path
       id="path996"
       d="m 76.609282,133.68671 v -0.19016 h -0.268718 v -2.13321 h -0.152962 c -0.103353,0.0868 -0.231511,0.1447 -0.359668,0.17777 v 0.14056 l 0.285254,-0.0289 v 1.84382 h -0.28112 v 0.19016 z m 2.031917,-1.14515 c 0,0.75241 -0.115755,0.98806 -0.326595,0.98806 -0.206706,0 -0.322461,-0.23565 -0.322461,-0.98806 0,-0.7524 0.115755,-0.98805 0.322461,-0.98805 0.21084,0 0.326595,0.23565 0.326595,0.98805 z m 0.227376,0 c 0,-0.83095 -0.177767,-1.17822 -0.553971,-1.17822 -0.372071,0 -0.549837,0.34727 -0.549837,1.17822 0,0.82683 0.177766,1.17823 0.549837,1.17823 0.376204,0 0.553971,-0.3514 0.553971,-1.17823 z m 1.887223,0 c 0,0.75241 -0.115755,0.98806 -0.326595,0.98806 -0.206706,0 -0.322461,-0.23565 -0.322461,-0.98806 0,-0.7524 0.115755,-0.98805 0.322461,-0.98805 0.21084,0 0.326595,0.23565 0.326595,0.98805 z m 0.227376,0 c 0,-0.83095 -0.177766,-1.17822 -0.553971,-1.17822 -0.37207,0 -0.549837,0.34727 -0.549837,1.17822 0,0.82683 0.177767,1.17823 0.549837,1.17823 0.376205,0 0.553971,-0.3514 0.553971,-1.17823 z m 1.968872,1.14515 v -0.19016 h -0.268717 v -2.13321 h -0.152962 c -0.103353,0.0868 -0.23151,0.1447 -0.359668,0.17777 v 0.14056 l 0.285254,-0.0289 v 1.84382 h -0.28112 v 0.19016 z m 2.035018,-1.14515 c 0,0.75241 -0.115755,0.98806 -0.326595,0.98806 -0.206705,0 -0.322461,-0.23565 -0.322461,-0.98806 0,-0.7524 0.115756,-0.98805 0.322461,-0.98805 0.21084,0 0.326595,0.23565 0.326595,0.98805 z m 0.227377,0 c 0,-0.83095 -0.177767,-1.17822 -0.553972,-1.17822 -0.37207,0 -0.549837,0.34727 -0.549837,1.17822 0,0.82683 0.177767,1.17823 0.549837,1.17823 0.376205,0 0.553972,-0.3514 0.553972,-1.17823 z m 0,0"
       style="fill:#231f20;fill-opacity:1;fill-rule:nonzero;stroke:none;stroke-width:0.352778"
       aria-label="1 0 0 1 0" />
    <path
       id="path997"
       d="m 90.43033,135.16272 h -3.999794 v -5.00027 h 3.999794 z"
       style="fill:#ffffff;fill-opacity:1;fill-rule:nonzero;stroke:#c18f07;stroke-width:0.352778;stroke-linecap:butt;stroke-linejoin:miter;stroke-miterlimit:4;stroke-dasharray:none;stroke-opacity:1" />
    <path
       id="path998"
       d="m 88.867982,133.68671 v -0.19016 h -0.268717 v -2.13321 h -0.152963 c -0.103353,0.0868 -0.23151,0.1447 -0.359668,0.17777 v 0.14056 l 0.285254,-0.0289 v 1.84382 h -0.281119 v 0.19016 z m 0,0"
       style="fill:#231f20;fill-opacity:1;fill-rule:nonzero;stroke:none;stroke-width:0.352778"
       aria-label="1" />
    <path
       id="path999"
       d="M 86.430536,144.07036 H 74.430448 v -5.00028 h 12.000088 z"
       style="fill:#ffffff;fill-opacity:1;fill-rule:nonzero;stroke:#c18f07;stroke-width:0.352778;stroke-linecap:butt;stroke-linejoin:miter;stroke-miterlimit:4;stroke-dasharray:none;stroke-opacity:1" />
    <path
       id="path1000"
       d="m 76.774646,141.69656 h -0.248047 l 0.05788,-0.49609 h 0.264583 v -0.17777 h -0.252181 l 0.08268,-0.71933 h -0.186035 l -0.07855,0.71933 h -0.314193 l 0.07855,-0.71933 h -0.181901 l -0.08268,0.71933 h -0.281119 v 0.17777 h 0.264583 l -0.05788,0.49609 h -0.285254 v 0.17777 h 0.264584 l -0.08268,0.71934 h 0.19017 l 0.07855,-0.71934 h 0.314193 l -0.07855,0.71934 h 0.186035 l 0.07855,-0.71934 h 0.268717 z m -0.380338,-0.49609 -0.05374,0.49609 h -0.318327 l 0.05788,-0.49609 z m 2.246891,0.24805 c 0,0.7524 -0.115755,0.98805 -0.326595,0.98805 -0.206706,0 -0.322461,-0.23565 -0.322461,-0.98805 0,-0.75241 0.115755,-0.98806 0.322461,-0.98806 0.21084,0 0.326595,0.23565 0.326595,0.98806 z m 0.227376,0 c 0,-0.83096 -0.177767,-1.17823 -0.553971,-1.17823 -0.372071,0 -0.549837,0.34727 -0.549837,1.17823 0,0.82682 0.177766,1.17822 0.549837,1.17822 0.376204,0 0.553971,-0.3514 0.553971,-1.17822 z m 1.887223,0 c 0,0.7524 -0.115755,0.98805 -0.326595,0.98805 -0.206706,0 -0.322461,-0.23565 -0.322461,-0.98805 0,-0.75241 0.115755,-0.98806 0.322461,-0.98806 0.21084,0 0.326595,0.23565 0.326595,0.98806 z m 0.227376,0 c 0,-0.83096 -0.177766,-1.17823 -0.553971,-1.17823 -0.37207,0 -0.549837,0.34727 -0.549837,1.17823 0,0.82682 0.177767,1.17822 0.549837,1.17822 0.376205,0 0.553971,-0.3514 0.553971,-1.17822 z m 2.134237,0.24804 h -0.248047 l 0.05788,-0.49609 h 0.264583 v -0.17777 h -0.252181 l 0.08268,-0.71933 h -0.186035 l -0.07855,0.71933 H 82.44355 l 0.07855,-0.71933 h -0.181901 l -0.08268,0.71933 h -0.28112 v 0.17777 h 0.264584 l -0.05788,0.49609 h -0.285254 v 0.17777 h 0.264584 l -0.08268,0.71934 h 0.19017 l 0.07855,-0.71934 h 0.314193 l -0.07855,0.71934 h 0.186035 l 0.07855,-0.71934 h 0.268717 z m -0.380338,-0.49609 -0.05374,0.49609 h -0.318327 l 0.05788,-0.49609 z m 2.498038,0.49609 h -0.248047 l 0.05788,-0.49609 h 0.264583 v -0.17777 h -0.252181 l 0.08268,-0.71933 H 84.95399 l -0.07855,0.71933 h -0.314192 l 0.07855,-0.71933 h -0.181901 l -0.08268,0.71933 h -0.281119 v 0.17777 h 0.264583 l -0.05788,0.49609 h -0.285253 v 0.17777 h 0.264583 l -0.08268,0.71934 h 0.190169 l 0.07855,-0.71934 h 0.314192 l -0.07855,0.71934 h 0.186036 l 0.07855,-0.71934 h 0.268717 z m -0.380338,-0.49609 -0.05374,0.49609 h -0.318327 l 0.05788,-0.49609 z m 0,0"
       style="fill:#231f20;fill-opacity:1;fill-rule:nonzero;stroke:none;stroke-width:0.352778"
       aria-label="# 0 0 # #" />
    <path
       id="path1001"
       d="m 90.43033,144.07036 h -3.999794 v -5.00028 h 3.999794 z"
       style="fill:#ffffff;fill-opacity:1;fill-rule:nonzero;stroke:#c18f07;stroke-width:0.352778;stroke-linecap:butt;stroke-linejoin:miter;stroke-miterlimit:4;stroke-dasharray:none;stroke-opacity:1" />
    <path
       id="path1002"
       d="m 88.867982,142.59367 v -0.19017 h -0.268717 v -2.13321 h -0.152963 c -0.103353,0.0868 -0.23151,0.1447 -0.359668,0.17777 v 0.14056 l 0.285254,-0.0289 v 1.84382 h -0.281119 v 0.19017 z m 0,0"
       style="fill:#231f20;fill-opacity:1;fill-rule:nonzero;stroke:none;stroke-width:0.352778"
       aria-label="1" />
    <path
       id="path1003"
       d="m 127.72811,138.11265 h -12.00009 v -5.00028 h 12.00009 z"
       style="fill:#ffffff;fill-opacity:1;fill-rule:nonzero;stroke:#c18f07;stroke-width:0.352778;stroke-linecap:butt;stroke-linejoin:miter;stroke-miterlimit:4;stroke-dasharray:none;stroke-opacity:1" />
    <path
       id="path1004"
       d="m 118.07239,135.7393 h -0.24805 l 0.0579,-0.4961 h 0.26459 v -0.17776 h -0.25219 l 0.0827,-0.71934 h -0.18604 l -0.0785,0.71934 h -0.31419 l 0.0786,-0.71934 h -0.1819 l -0.0827,0.71934 h -0.28112 v 0.17776 h 0.26458 l -0.0579,0.4961 h -0.28525 v 0.17777 h 0.26458 l -0.0827,0.71933 h 0.19017 l 0.0785,-0.71933 h 0.31419 l -0.0785,0.71933 h 0.18604 l 0.0785,-0.71933 h 0.26872 z m -0.38034,-0.4961 -0.0537,0.4961 h -0.31833 l 0.0579,-0.4961 z m 2.24689,0.24805 c 0,0.75241 -0.11575,0.98805 -0.32659,0.98805 -0.20671,0 -0.32246,-0.23564 -0.32246,-0.98805 0,-0.75241 0.11575,-0.98805 0.32246,-0.98805 0.21084,0 0.32659,0.23564 0.32659,0.98805 z m 0.22738,0 c 0,-0.83096 -0.17777,-1.17822 -0.55397,-1.17822 -0.37207,0 -0.54984,0.34726 -0.54984,1.17822 0,0.82682 0.17777,1.17822 0.54984,1.17822 0.3762,0 0.55397,-0.3514 0.55397,-1.17822 z m 1.88619,0 c 0,0.75241 -0.11575,0.98805 -0.32659,0.98805 -0.20671,0 -0.32247,-0.23564 -0.32247,-0.98805 0,-0.75241 0.11576,-0.98805 0.32247,-0.98805 0.21084,0 0.32659,0.23564 0.32659,0.98805 z m 0.22738,0 c 0,-0.83096 -0.17777,-1.17822 -0.55397,-1.17822 -0.37207,0 -0.54984,0.34726 -0.54984,1.17822 0,0.82682 0.17777,1.17822 0.54984,1.17822 0.3762,0 0.55397,-0.3514 0.55397,-1.17822 z m 2.13527,0.24805 h -0.24805 l 0.0579,-0.4961 h 0.26458 v -0.17776 h -0.25218 l 0.0827,-0.71934 h -0.18603 l -0.0785,0.71934 h -0.31419 l 0.0785,-0.71934 h -0.1819 l -0.0827,0.71934 h -0.28112 v 0.17776 h 0.26458 l -0.0579,0.4961 h -0.28526 v 0.17777 h 0.26459 l -0.0827,0.71933 h 0.19017 l 0.0785,-0.71933 h 0.31419 l -0.0785,0.71933 h 0.18603 l 0.0785,-0.71933 h 0.26872 z m -0.38034,-0.4961 -0.0537,0.4961 h -0.31832 l 0.0579,-0.4961 z m 2.49804,0.4961 h -0.24805 l 0.0579,-0.4961 h 0.26458 v -0.17776 h -0.25218 l 0.0827,-0.71934 h -0.18603 l -0.0785,0.71934 H 125.859 l 0.0785,-0.71934 h -0.1819 l -0.0827,0.71934 h -0.28112 v 0.17776 h 0.26458 l -0.0579,0.4961 h -0.28526 v 0.17777 h 0.26459 l -0.0827,0.71933 h 0.19017 l 0.0785,-0.71933 h 0.31419 l -0.0785,0.71933 h 0.18603 l 0.0785,-0.71933 h 0.26872 z m -0.38034,-0.4961 -0.0537,0.4961 h -0.31832 l 0.0579,-0.4961 z m 0,0"
       style="fill:#231f20;fill-opacity:1;fill-rule:nonzero;stroke:none;stroke-width:0.352778"
       aria-label="# 0 0 # #" />
    <path
       id="path1005"
       d="m 131.72826,138.11265 h -3.9998 v -5.00028 h 3.9998 z"
       style="fill:#ffffff;fill-opacity:1;fill-rule:nonzero;stroke:#c18f07;stroke-width:0.352778;stroke-linecap:butt;stroke-linejoin:miter;stroke-miterlimit:4;stroke-dasharray:none;stroke-opacity:1" />
    <path
       id="path1006"
       d="m 130.1657,136.6364 v -0.19017 h -0.26871 v -2.1332 h -0.15297 c -0.10335,0.0868 -0.23151,0.14469 -0.35966,0.17777 v 0.14056 l 0.28525,-0.0289 v 1.84381 h -0.28112 v 0.19017 z m 0,0"
       style="fill:#231f20;fill-opacity:1;fill-rule:nonzero;stroke:none;stroke-width:0.352778"
       aria-label="1" />
    <path
       id="path1007"
       d="M 86.430536,159.0941 H 74.430448 v -5.00027 h 12.000088 z"
       style="fill:#ffffff;fill-opacity:1;fill-rule:nonzero;stroke:none;stroke-width:0.352778" />
    <path
       id="path1008"
       d="M 85.901056,159.09402 H 74.783618"
       style="fill:none;stroke:#c18f07;stroke-width:0.352778;stroke-linecap:butt;stroke-linejoin:miter;stroke-miterlimit:4;stroke-dasharray:0.352778, 0.352778;stroke-dashoffset:0;stroke-opacity:1" />
    <path
       id="path1009"
       d="m 74.430522,158.55833 v -4.10739"
       style="fill:none;stroke:#c18f07;stroke-width:0.352778;stroke-linecap:butt;stroke-linejoin:miter;stroke-miterlimit:4;stroke-dasharray:0.357011, 0.357011;stroke-dashoffset:0;stroke-opacity:1" />
    <path
       id="path1010"
       d="M 74.959953,154.09382 H 86.077391"
       style="fill:none;stroke:#c18f07;stroke-width:0.352778;stroke-linecap:butt;stroke-linejoin:miter;stroke-miterlimit:4;stroke-dasharray:0.352778, 0.352778;stroke-dashoffset:0;stroke-opacity:1" />
    <path
       id="path1011"
       d="m 86.430487,154.62958 v 4.10739"
       style="fill:none;stroke:#c18f07;stroke-width:0.352778;stroke-linecap:butt;stroke-linejoin:miter;stroke-miterlimit:4;stroke-dasharray:0.357011, 0.357011;stroke-dashoffset:0;stroke-opacity:1" />
    <path
       id="path1012"
       d="M 74.606999,159.09402 H 74.43061 v -0.17851 m 0,-4.64326 v -0.1785 h 0.176389 m 11.646958,0 h 0.176389 v 0.1785 m 0,4.64326 v 0.17851 h -0.176389"
       style="fill:none;stroke:#c18f07;stroke-width:0.352778;stroke-linecap:butt;stroke-linejoin:miter;stroke-miterlimit:4;stroke-dasharray:none;stroke-opacity:1" />
    <path
       id="path1013"
       d="m 76.774646,156.72097 h -0.248047 l 0.05788,-0.4961 h 0.264583 v -0.17776 h -0.252181 l 0.08268,-0.71934 h -0.186035 l -0.07855,0.71934 h -0.314193 l 0.07855,-0.71934 h -0.181901 l -0.08268,0.71934 h -0.281119 v 0.17776 h 0.264583 l -0.05788,0.4961 h -0.285254 v 0.17776 h 0.264584 l -0.08268,0.71934 h 0.19017 l 0.07855,-0.71934 h 0.314193 l -0.07855,0.71934 h 0.186035 l 0.07855,-0.71934 h 0.268717 z m -0.380338,-0.4961 -0.05374,0.4961 h -0.318327 l 0.05788,-0.4961 z m 2.246891,0.24805 c 0,0.75241 -0.115755,0.98805 -0.326595,0.98805 -0.206706,0 -0.322461,-0.23564 -0.322461,-0.98805 0,-0.75241 0.115755,-0.98805 0.322461,-0.98805 0.21084,0 0.326595,0.23564 0.326595,0.98805 z m 0.227376,0 c 0,-0.83096 -0.177767,-1.17822 -0.553971,-1.17822 -0.372071,0 -0.549837,0.34726 -0.549837,1.17822 0,0.82682 0.177766,1.17822 0.549837,1.17822 0.376204,0 0.553971,-0.3514 0.553971,-1.17822 z m 1.887223,0 c 0,0.75241 -0.115755,0.98805 -0.326595,0.98805 -0.206706,0 -0.322461,-0.23564 -0.322461,-0.98805 0,-0.75241 0.115755,-0.98805 0.322461,-0.98805 0.21084,0 0.326595,0.23564 0.326595,0.98805 z m 0.227376,0 c 0,-0.83096 -0.177766,-1.17822 -0.553971,-1.17822 -0.37207,0 -0.549837,0.34726 -0.549837,1.17822 0,0.82682 0.177767,1.17822 0.549837,1.17822 0.376205,0 0.553971,-0.3514 0.553971,-1.17822 z m 2.134237,0.24805 h -0.248047 l 0.05788,-0.4961 h 0.264583 v -0.17776 h -0.252181 l 0.08268,-0.71934 h -0.186035 l -0.07855,0.71934 H 82.44355 l 0.07855,-0.71934 h -0.181901 l -0.08268,0.71934 h -0.28112 v 0.17776 h 0.264584 l -0.05788,0.4961 h -0.285254 v 0.17776 h 0.264584 l -0.08268,0.71934 h 0.19017 l 0.07855,-0.71934 h 0.314193 l -0.07855,0.71934 h 0.186035 l 0.07855,-0.71934 h 0.268717 z m -0.380338,-0.4961 -0.05374,0.4961 h -0.318327 l 0.05788,-0.4961 z m 2.498038,0.4961 h -0.248047 l 0.05788,-0.4961 h 0.264583 v -0.17776 h -0.252181 l 0.08268,-0.71934 H 84.95399 l -0.07855,0.71934 h -0.314192 l 0.07855,-0.71934 h -0.181901 l -0.08268,0.71934 h -0.281119 v 0.17776 h 0.264583 l -0.05788,0.4961 h -0.285253 v 0.17776 h 0.264583 l -0.08268,0.71934 h 0.190169 l 0.07855,-0.71934 h 0.314192 l -0.07855,0.71934 h 0.186036 l 0.07855,-0.71934 h 0.268717 z m -0.380338,-0.4961 -0.05374,0.4961 h -0.318327 l 0.05788,-0.4961 z m 0,0"
       style="fill:#231f20;fill-opacity:1;fill-rule:nonzero;stroke:none;stroke-width:0.352778"
       aria-label="# 0 0 # #" />
    <path
       id="path1014"
       d="m 90.43033,159.0941 h -3.999794 v -5.00027 h 3.999794 z"
       style="fill:#ffffff;fill-opacity:1;fill-rule:nonzero;stroke:none;stroke-width:0.352778" />
    <path
       id="path1015"
       d="M 89.922485,159.09402 H 86.772532"
       style="fill:none;stroke:#c18f07;stroke-width:0.352778;stroke-linecap:butt;stroke-linejoin:miter;stroke-miterlimit:4;stroke-dasharray:0.331611, 0.331611;stroke-dashoffset:0;stroke-opacity:1" />
    <path
       id="path1016"
       d="m 86.430487,158.55833 v -4.10739"
       style="fill:none;stroke:#c18f07;stroke-width:0.352778;stroke-linecap:butt;stroke-linejoin:miter;stroke-miterlimit:4;stroke-dasharray:0.357011, 0.357011;stroke-dashoffset:0;stroke-opacity:1" />
    <path
       id="path1017"
       d="m 86.938434,154.09382 h 3.149953"
       style="fill:none;stroke:#c18f07;stroke-width:0.352778;stroke-linecap:butt;stroke-linejoin:miter;stroke-miterlimit:4;stroke-dasharray:0.331611, 0.331611;stroke-dashoffset:0;stroke-opacity:1" />
    <path
       id="path1018"
       d="m 90.430405,154.62958 v 4.10739"
       style="fill:none;stroke:#c18f07;stroke-width:0.352778;stroke-linecap:butt;stroke-linejoin:miter;stroke-miterlimit:4;stroke-dasharray:0.357011, 0.357011;stroke-dashoffset:0;stroke-opacity:1" />
    <path
       id="path1019"
       d="M 86.606859,159.09402 H 86.43047 v -0.17851 m 0,-4.64326 v -0.1785 h 0.176389 m 3.647016,0 h 0.176389 v 0.1785 m 0,4.64326 v 0.17851 h -0.176389"
       style="fill:none;stroke:#c18f07;stroke-width:0.352778;stroke-linecap:butt;stroke-linejoin:miter;stroke-miterlimit:4;stroke-dasharray:none;stroke-opacity:1" />
    <path
       id="path1020"
       d="m 88.867982,157.61807 v -0.19017 h -0.268717 v -2.1332 h -0.152963 c -0.103353,0.0868 -0.23151,0.14469 -0.359668,0.17776 v 0.14056 l 0.285254,-0.0289 v 1.84382 h -0.281119 v 0.19017 z m 0,0"
       style="fill:#231f20;fill-opacity:1;fill-rule:nonzero;stroke:none;stroke-width:0.352778"
       aria-label="1" />
    <path
       id="path1021"
       d="m 116.59162,163.78005 h -12.00008 v -5.00027 h 12.00008 z"
       style="fill:#ffffff;fill-opacity:1;fill-rule:nonzero;stroke:none;stroke-width:0.352778" />
    <path
       id="path1022"
       d="M 116.06218,163.78004 H 104.94474"
       style="fill:none;stroke:#c18f07;stroke-width:0.352778;stroke-linecap:butt;stroke-linejoin:miter;stroke-miterlimit:4;stroke-dasharray:0.352778, 0.352778;stroke-dashoffset:0;stroke-opacity:1" />
    <path
       id="path1023"
       d="m 104.59165,163.24434 v -4.10739"
       style="fill:none;stroke:#c18f07;stroke-width:0.352778;stroke-linecap:butt;stroke-linejoin:miter;stroke-miterlimit:4;stroke-dasharray:0.357011, 0.357011;stroke-dashoffset:0;stroke-opacity:1" />
    <path
       id="path1024"
       d="m 105.12108,158.77987 h 11.11744"
       style="fill:none;stroke:#c18f07;stroke-width:0.352778;stroke-linecap:butt;stroke-linejoin:miter;stroke-miterlimit:4;stroke-dasharray:0.352778, 0.352778;stroke-dashoffset:0;stroke-opacity:1" />
    <path
       id="path1025"
       d="m 116.59161,159.3156 v 4.10739"
       style="fill:none;stroke:#c18f07;stroke-width:0.352778;stroke-linecap:butt;stroke-linejoin:miter;stroke-miterlimit:4;stroke-dasharray:0.357011, 0.357011;stroke-dashoffset:0;stroke-opacity:1" />
    <path
       id="path1026"
       d="m 104.76812,163.78004 h -0.17639 v -0.17851 m 0,-4.64326 v -0.1785 h 0.17639 m 11.64696,0 h 0.17639 v 0.1785 m 0,4.64326 v 0.17851 h -0.17639"
       style="fill:none;stroke:#c18f07;stroke-width:0.352778;stroke-linecap:butt;stroke-linejoin:miter;stroke-miterlimit:4;stroke-dasharray:none;stroke-opacity:1" />
    <path
       id="path1027"
       d="m 106.68704,161.15893 c 0,0.75241 -0.11576,0.98805 -0.3266,0.98805 -0.20671,0 -0.32246,-0.23564 -0.32246,-0.98805 0,-0.75241 0.11575,-0.98805 0.32246,-0.98805 0.21084,0 0.3266,0.23564 0.3266,0.98805 z m 0.22737,0 c 0,-0.83096 -0.17777,-1.17822 -0.55397,-1.17822 -0.37207,0 -0.54984,0.34726 -0.54984,1.17822 0,0.82682 0.17777,1.17822 0.54984,1.17822 0.3762,0 0.55397,-0.3514 0.55397,-1.17822 z m 1.88722,0 c 0,0.75241 -0.11575,0.98805 -0.32659,0.98805 -0.20671,0 -0.32246,-0.23564 -0.32246,-0.98805 0,-0.75241 0.11575,-0.98805 0.32246,-0.98805 0.21084,0 0.32659,0.23564 0.32659,0.98805 z m 0.22738,0 c 0,-0.83096 -0.17777,-1.17822 -0.55397,-1.17822 -0.37207,0 -0.54984,0.34726 -0.54984,1.17822 0,0.82682 0.17777,1.17822 0.54984,1.17822 0.3762,0 0.55397,-0.3514 0.55397,-1.17822 z m 1.88722,0 c 0,0.75241 -0.11575,0.98805 -0.32659,0.98805 -0.20671,0 -0.32246,-0.23564 -0.32246,-0.98805 0,-0.75241 0.11575,-0.98805 0.32246,-0.98805 0.21084,0 0.32659,0.23564 0.32659,0.98805 z m 0.22738,0 c 0,-0.83096 -0.17777,-1.17822 -0.55397,-1.17822 -0.37207,0 -0.54984,0.34726 -0.54984,1.17822 0,0.82682 0.17777,1.17822 0.54984,1.17822 0.3762,0 0.55397,-0.3514 0.55397,-1.17822 z m 2.13527,0.24805 h -0.24805 l 0.0579,-0.4961 h 0.26458 v -0.17776 h -0.25218 l 0.0827,-0.71934 h -0.18604 l -0.0785,0.71934 h -0.31419 l 0.0786,-0.71934 h -0.1819 l -0.0827,0.71934 h -0.28112 v 0.17776 h 0.26459 l -0.0579,0.4961 h -0.28525 v 0.17776 h 0.26458 l -0.0827,0.71934 h 0.19017 l 0.0786,-0.71934 h 0.31419 l -0.0785,0.71934 h 0.18603 l 0.0785,-0.71934 h 0.26872 z m -0.38034,-0.4961 -0.0537,0.4961 h -0.31833 l 0.0579,-0.4961 z m 2.49804,0.4961 h -0.24805 l 0.0579,-0.4961 h 0.26458 v -0.17776 h -0.25218 l 0.0827,-0.71934 h -0.18604 l -0.0785,0.71934 h -0.31419 l 0.0786,-0.71934 h -0.1819 l -0.0827,0.71934 h -0.28112 v 0.17776 h 0.26459 l -0.0579,0.4961 h -0.28525 v 0.17776 h 0.26458 l -0.0827,0.71934 h 0.19017 l 0.0785,-0.71934 h 0.31419 l -0.0785,0.71934 h 0.18603 l 0.0785,-0.71934 h 0.26872 z m -0.38034,-0.4961 -0.0537,0.4961 h -0.31833 l 0.0579,-0.4961 z m 0,0"
       style="fill:#231f20;fill-opacity:1;fill-rule:nonzero;stroke:none;stroke-width:0.352778"
       aria-label="0 0 0 # #" />
    <path
       id="path1028"
       d="m 120.59142,163.78005 h -3.9998 v -5.00027 h 3.9998 z"
       style="fill:#ffffff;fill-opacity:1;fill-rule:nonzero;stroke:none;stroke-width:0.352778" />
    <path
       id="path1029"
       d="m 120.08361,163.78004 h -3.14995"
       style="fill:none;stroke:#c18f07;stroke-width:0.352778;stroke-linecap:butt;stroke-linejoin:miter;stroke-miterlimit:4;stroke-dasharray:0.331611, 0.331611;stroke-dashoffset:0;stroke-opacity:1" />
    <path
       id="path1030"
       d="m 116.59161,163.24434 v -4.10739"
       style="fill:none;stroke:#c18f07;stroke-width:0.352778;stroke-linecap:butt;stroke-linejoin:miter;stroke-miterlimit:4;stroke-dasharray:0.357011, 0.357011;stroke-dashoffset:0;stroke-opacity:1" />
    <path
       id="path1031"
       d="m 117.09956,158.77987 h 3.14995"
       style="fill:none;stroke:#c18f07;stroke-width:0.352778;stroke-linecap:butt;stroke-linejoin:miter;stroke-miterlimit:4;stroke-dasharray:0.331611, 0.331611;stroke-dashoffset:0;stroke-opacity:1" />
    <path
       id="path1032"
       d="m 120.59153,159.3156 v 4.10739"
       style="fill:none;stroke:#c18f07;stroke-width:0.352778;stroke-linecap:butt;stroke-linejoin:miter;stroke-miterlimit:4;stroke-dasharray:0.357011, 0.357011;stroke-dashoffset:0;stroke-opacity:1" />
    <path
       id="path1033"
       d="m 116.76798,163.78004 h -0.17639 v -0.17851 m 0,-4.64326 v -0.1785 h 0.17639 m 3.64702,0 h 0.17639 v 0.1785 m 0,4.64326 v 0.17851 H 120.415"
       style="fill:none;stroke:#c18f07;stroke-width:0.352778;stroke-linecap:butt;stroke-linejoin:miter;stroke-miterlimit:4;stroke-dasharray:none;stroke-opacity:1" />
    <path
       id="path1034"
       d="m 119.02945,162.30408 v -0.19017 h -0.26872 v -2.1332 h -0.15296 c -0.10336,0.0868 -0.23151,0.14469 -0.35967,0.17776 v 0.14056 l 0.28525,-0.0289 v 1.84381 h -0.28112 v 0.19017 z m 0,0"
       style="fill:#231f20;fill-opacity:1;fill-rule:nonzero;stroke:none;stroke-width:0.352778"
       aria-label="1" />
    <path
       id="path1035"
       d="M 137.75829,163.78005 H 125.7582 v -5.00027 h 12.00009 z"
       style="fill:#ffffff;fill-opacity:1;fill-rule:nonzero;stroke:none;stroke-width:0.352778" />
    <path
       id="path1036"
       d="M 137.22885,163.78004 H 126.11141"
       style="fill:none;stroke:#c18f07;stroke-width:0.352778;stroke-linecap:butt;stroke-linejoin:miter;stroke-miterlimit:4;stroke-dasharray:0.352778, 0.352778;stroke-dashoffset:0;stroke-opacity:1" />
    <path
       id="path1037"
       d="m 125.75831,163.24434 v -4.10739"
       style="fill:none;stroke:#c18f07;stroke-width:0.352778;stroke-linecap:butt;stroke-linejoin:miter;stroke-miterlimit:4;stroke-dasharray:0.357011, 0.357011;stroke-dashoffset:0;stroke-opacity:1" />
    <path
       id="path1038"
       d="m 126.28774,158.77987 h 11.11744"
       style="fill:none;stroke:#c18f07;stroke-width:0.352778;stroke-linecap:butt;stroke-linejoin:miter;stroke-miterlimit:4;stroke-dasharray:0.352778, 0.352778;stroke-dashoffset:0;stroke-opacity:1" />
    <path
       id="path1039"
       d="m 137.75828,159.3156 v 4.10739"
       style="fill:none;stroke:#c18f07;stroke-width:0.352778;stroke-linecap:butt;stroke-linejoin:miter;stroke-miterlimit:4;stroke-dasharray:0.357011, 0.357011;stroke-dashoffset:0;stroke-opacity:1" />
    <path
       id="path1040"
       d="m 125.93479,163.78004 h -0.17639 v -0.17851 m 0,-4.64326 v -0.1785 h 0.17639 m 11.64696,0 h 0.17639 v 0.1785 m 0,4.64326 v 0.17851 h -0.17639"
       style="fill:none;stroke:#c18f07;stroke-width:0.352778;stroke-linecap:butt;stroke-linejoin:miter;stroke-miterlimit:4;stroke-dasharray:none;stroke-opacity:1" />
    <path
       id="path1041"
       d="m 127.93638,162.30408 v -0.19017 h -0.26872 v -2.1332 h -0.15296 c -0.10336,0.0868 -0.23151,0.14469 -0.35967,0.17776 v 0.14056 l 0.28525,-0.0289 v 1.84381 h -0.28112 v 0.19017 z m 2.03191,-1.14515 c 0,0.75241 -0.11575,0.98805 -0.32659,0.98805 -0.20671,0 -0.32246,-0.23564 -0.32246,-0.98805 0,-0.75241 0.11575,-0.98805 0.32246,-0.98805 0.21084,0 0.32659,0.23564 0.32659,0.98805 z m 0.22738,0 c 0,-0.83096 -0.17777,-1.17822 -0.55397,-1.17822 -0.37207,0 -0.54984,0.34726 -0.54984,1.17822 0,0.82682 0.17777,1.17822 0.54984,1.17822 0.3762,0 0.55397,-0.3514 0.55397,-1.17822 z m 1.88722,0 c 0,0.75241 -0.11575,0.98805 -0.32659,0.98805 -0.20671,0 -0.32246,-0.23564 -0.32246,-0.98805 0,-0.75241 0.11575,-0.98805 0.32246,-0.98805 0.21084,0 0.32659,0.23564 0.32659,0.98805 z m 0.22738,0 c 0,-0.83096 -0.17777,-1.17822 -0.55397,-1.17822 -0.37207,0 -0.54984,0.34726 -0.54984,1.17822 0,0.82682 0.17777,1.17822 0.54984,1.17822 0.3762,0 0.55397,-0.3514 0.55397,-1.17822 z m 1.96991,1.14515 v -0.19017 h -0.26872 v -2.1332 h -0.15296 c -0.10336,0.0868 -0.23151,0.14469 -0.35967,0.17776 v 0.14056 l 0.28525,-0.0289 v 1.84381 h -0.28112 v 0.19017 z m 2.03501,-1.14515 c 0,0.75241 -0.11575,0.98805 -0.32659,0.98805 -0.20671,0 -0.32246,-0.23564 -0.32246,-0.98805 0,-0.75241 0.11575,-0.98805 0.32246,-0.98805 0.21084,0 0.32659,0.23564 0.32659,0.98805 z m 0.22738,0 c 0,-0.83096 -0.17777,-1.17822 -0.55397,-1.17822 -0.37207,0 -0.54984,0.34726 -0.54984,1.17822 0,0.82682 0.17777,1.17822 0.54984,1.17822 0.3762,0 0.55397,-0.3514 0.55397,-1.17822 z m 0,0"
       style="fill:#231f20;fill-opacity:1;fill-rule:nonzero;stroke:none;stroke-width:0.352778"
       aria-label="1 0 0 1 0" />
    <path
       id="path1042"
       d="m 141.75808,163.78005 h -3.99979 v -5.00027 h 3.99979 z"
       style="fill:#ffffff;fill-opacity:1;fill-rule:nonzero;stroke:none;stroke-width:0.352778" />
    <path
       id="path1043"
       d="m 141.25027,163.78004 h -3.14995"
       style="fill:none;stroke:#c18f07;stroke-width:0.352778;stroke-linecap:butt;stroke-linejoin:miter;stroke-miterlimit:4;stroke-dasharray:0.331611, 0.331611;stroke-dashoffset:0;stroke-opacity:1" />
    <path
       id="path1044"
       d="m 137.75828,163.24434 v -4.10739"
       style="fill:none;stroke:#c18f07;stroke-width:0.352778;stroke-linecap:butt;stroke-linejoin:miter;stroke-miterlimit:4;stroke-dasharray:0.357011, 0.357011;stroke-dashoffset:0;stroke-opacity:1" />
    <path
       id="path1045"
       d="m 138.26622,158.77987 h 3.14995"
       style="fill:none;stroke:#c18f07;stroke-width:0.352778;stroke-linecap:butt;stroke-linejoin:miter;stroke-miterlimit:4;stroke-dasharray:0.331611, 0.331611;stroke-dashoffset:0;stroke-opacity:1" />
    <path
       id="path1046"
       d="m 141.7582,159.3156 v 4.10739"
       style="fill:none;stroke:#c18f07;stroke-width:0.352778;stroke-linecap:butt;stroke-linejoin:miter;stroke-miterlimit:4;stroke-dasharray:0.357011, 0.357011;stroke-dashoffset:0;stroke-opacity:1" />
    <path
       id="path1047"
       d="m 137.93465,163.78004 h -0.17639 v -0.17851 m 0,-4.64326 v -0.1785 h 0.17639 m 3.64702,0 h 0.17639 v 0.1785 m 0,4.64326 v 0.17851 h -0.17639"
       style="fill:none;stroke:#c18f07;stroke-width:0.352778;stroke-linecap:butt;stroke-linejoin:miter;stroke-miterlimit:4;stroke-dasharray:none;stroke-opacity:1" />
    <path
       id="path1048"
       d="m 140.19612,162.30408 v -0.19017 h -0.26872 v -2.1332 h -0.15296 c -0.10336,0.0868 -0.23151,0.14469 -0.35967,0.17776 v 0.14056 l 0.28525,-0.0289 v 1.84381 h -0.28112 v 0.19017 z m 0,0"
       style="fill:#231f20;fill-opacity:1;fill-rule:nonzero;stroke:none;stroke-width:0.352778"
       aria-label="1" />
    <path
       id="path1049"
       d="m 82.430389,151.56688 h -3.999794 v -5.00027 h 3.999794 z"
       style="fill:#ffffff;fill-opacity:1;fill-rule:nonzero;stroke:#c18f07;stroke-width:0.352778;stroke-linecap:butt;stroke-linejoin:miter;stroke-miterlimit:4;stroke-dasharray:none;stroke-opacity:1" />
    <path
       id="path1050"
       d="m 3.4089484,-3.7971635 c 0,2.4954854 -0.375,3.27703852 -1.0664062,3.27703852 -0.703125,0 -1.078125,-0.78155312 -1.078125,-3.27703852 0,-2.4954854 0.375,-3.2770386 1.078125,-3.2770386 0.6914062,0 1.0664062,0.7815532 1.0664062,3.2770386 z m 0.7617188,0 c 0,-2.7560031 -0.5859375,-3.9077656 -1.828125,-3.9077656 -1.2539063,0 -1.83984376,1.1517625 -1.83984376,3.9077656 0,2.7422916 0.58593746,3.90776561 1.83984376,3.90776561 1.2421875,0 1.828125,-1.16547401 1.828125,-3.90776561 z m 0,0"
       style="fill:#231f20;fill-opacity:1;fill-rule:nonzero;stroke:none"
       aria-label="0"
       transform="matrix(0.35277776,0,0,0.30150802,79.515999,150.0906)"
       clip-path="url(#clipPath1051)" />
    <path
       id="path1052"
       d="m 110.52136,148.83902 v 0.91228"
       style="fill:none;stroke:#231f20;stroke-width:0.176389;stroke-linecap:butt;stroke-linejoin:miter;stroke-miterlimit:4;stroke-dasharray:none;stroke-opacity:1" />
    <path
       id="path1053"
       d="m 109.63923,149.49391 0.87947,1.52329 0.87913,-1.52329 z"
       style="fill:#231f20;fill-opacity:1;fill-rule:nonzero;stroke:none;stroke-width:0.352778" />
    <path
       id="path1054"
       d="m 116.52107,148.83921 h -12.00009 v -5.00028 h 12.00009 z"
       style="fill:#ffffff;fill-opacity:1;fill-rule:nonzero;stroke:#c18f07;stroke-width:0.352778;stroke-linecap:butt;stroke-linejoin:miter;stroke-miterlimit:4;stroke-dasharray:none;stroke-opacity:1" />
    <g
       id="g1054"
       aria-label="0 0 0 # #"
       transform="matrix(0.35277776,0,0,0.35277776,105.58748,147.36278)">
      <path
         id="path1055"
         d="m 2.5192203,-1.4191656 c 0,0.43359372 -0.1875,0.62109372 -0.5273437,0.62109372 -0.328125,0 -0.515625,-0.1875 -0.515625,-0.62109372 v -3.6679688 c 0,-0.421875 0.1875,-0.6210937 0.515625,-0.6210937 0.3398437,0 0.5273437,0.1992187 0.5273437,0.6210937 z M 0.40984531,-1.6886969 c 0,1.21875002 0.46875,1.78125002 1.58203129,1.78125002 1.125,0 1.59375,-0.5625 1.59375,-1.78125002 v -3.1171875 c 0,-1.2304687 -0.46875,-1.78125 -1.59375,-1.78125 -1.11328129,0 -1.58203129,0.5507813 -1.58203129,1.78125 z m 0,0"
         style="fill:#231f20;fill-opacity:1;fill-rule:nonzero;stroke:none" />
      <path
         id="path1056"
         d="m 8.9117984,-3.2472906 c 0,2.1328125 -0.328125,2.80078122 -0.9257812,2.80078122 -0.5859375,0 -0.9140625,-0.66796872 -0.9140625,-2.80078122 0,-2.1328125 0.328125,-2.8007813 0.9140625,-2.8007813 0.5976562,0 0.9257812,0.6679688 0.9257812,2.8007813 z m 0.6445313,0 c 0,-2.3554688 -0.5039063,-3.3398438 -1.5703125,-3.3398438 -1.0546875,0 -1.5585938,0.984375 -1.5585938,3.3398438 0,2.34374997 0.5039063,3.33984372 1.5585938,3.33984372 1.0664062,0 1.5703125,-0.99609375 1.5703125,-3.33984372 z m 5.3496093,0 c 0,2.1328125 -0.328125,2.80078122 -0.925781,2.80078122 -0.585938,0 -0.914063,-0.66796872 -0.914063,-2.80078122 0,-2.1328125 0.328125,-2.8007813 0.914063,-2.8007813 0.597656,0 0.925781,0.6679688 0.925781,2.8007813 z m 0.644531,0 c 0,-2.3554688 -0.503906,-3.3398438 -1.570312,-3.3398438 -1.054688,0 -1.558594,0.984375 -1.558594,3.3398438 0,2.34374997 0.503906,3.33984372 1.558594,3.33984372 1.066406,0 1.570312,-0.99609375 1.570312,-3.33984372 z m 6.052735,0.703125 H 20.90008 l 0.164062,-1.40625 h 0.75 v -0.5039063 h -0.714844 l 0.234375,-2.0390625 H 20.80633 l -0.222657,2.0390625 h -0.890625 l 0.222657,-2.0390625 H 19.40008 l -0.234375,2.0390625 H 18.36883 v 0.5039063 h 0.75 l -0.164063,1.40625 h -0.808594 v 0.5039062 h 0.75 l -0.234375,2.03906252 h 0.539063 l 0.222656,-2.03906252 h 0.890625 l -0.222656,2.03906252 h 0.527344 l 0.222656,-2.03906252 h 0.761719 z m -1.078125,-1.40625 -0.152344,1.40625 h -0.902344 l 0.164063,-1.40625 z m 7.072265,1.40625 H 26.89422 l 0.164063,-1.40625 h 0.75 v -0.5039063 h -0.714844 l 0.234375,-2.0390625 H 26.80047 l -0.222656,2.0390625 h -0.890625 l 0.222656,-2.0390625 H 25.39422 l -0.234375,2.0390625 H 24.36297 v 0.5039063 h 0.75 l -0.164062,1.40625 h -0.808594 v 0.5039062 h 0.75 l -0.234375,2.03906252 h 0.539063 l 0.222656,-2.03906252 h 0.890625 l -0.222656,2.03906252 h 0.527343 l 0.222657,-2.03906252 h 0.761718 z m -1.078125,-1.40625 -0.152343,1.40625 h -0.902344 l 0.164062,-1.40625 z m 0,0"
         style="fill:#231f20;fill-opacity:1;fill-rule:nonzero;stroke:none" />
    </g>
    <path
       id="path1057"
       d="m 120.52121,148.83921 h -3.99979 v -5.00028 h 3.99979 z"
       style="fill:#ffffff;fill-opacity:1;fill-rule:nonzero;stroke:#c18f07;stroke-width:0.352778;stroke-linecap:butt;stroke-linejoin:miter;stroke-miterlimit:4;stroke-dasharray:none;stroke-opacity:1" />
    <path
       id="path1058"
       d="m 118.95812,147.36236 v -0.19017 h -0.26871 v -2.1332 h -0.15297 c -0.10335,0.0868 -0.23151,0.14469 -0.35967,0.17776 v 0.14056 l 0.28526,-0.0289 v 1.84382 h -0.28112 v 0.19017 z m 0,0"
       style="fill:#231f20;fill-opacity:1;fill-rule:nonzero;stroke:none;stroke-width:0.352778"
       aria-label="1" />
    <path
       id="path1059"
       d="m 112.52127,156.33573 h -3.99979 v -5.00027 h 3.99979 z"
       style="fill:#ffffff;fill-opacity:1;fill-rule:nonzero;stroke:#c18f07;stroke-width:0.352778;stroke-linecap:butt;stroke-linejoin:miter;stroke-miterlimit:4;stroke-dasharray:none;stroke-opacity:1" />
    <path
       id="path1060"
       d="m 3.4104,-3.7971891 c 0,2.4954854 -0.375,3.27703853 -1.0664062,3.27703853 -0.703125,0 -1.078125,-0.78155313 -1.078125,-3.27703853 0,-2.4954854 0.375,-3.2770386 1.078125,-3.2770386 0.6914062,0 1.0664062,0.7815532 1.0664062,3.2770386 z m 0.7617188,0 c 0,-2.7560031 -0.5859375,-3.9077656 -1.828125,-3.9077656 -1.2539063,0 -1.8398438,1.1517625 -1.8398438,3.9077656 0,2.7422917 0.5859375,3.90776561 1.8398438,3.90776561 1.2421875,0 1.828125,-1.16547391 1.828125,-3.90776561 z m 0,0"
       style="fill:#231f20;fill-opacity:1;fill-rule:nonzero;stroke:none"
       aria-label="0"
       transform="matrix(0.35277776,0,0,0.30150802,109.60666,154.85931)"
       clip-path="url(#clipPath1061)" />
    <path
       id="path1062"
       d="m 131.68802,148.83902 v 0.91228"
       style="fill:none;stroke:#231f20;stroke-width:0.176389;stroke-linecap:butt;stroke-linejoin:miter;stroke-miterlimit:4;stroke-dasharray:none;stroke-opacity:1" />
    <path
       id="path1063"
       d="m 130.8059,149.49391 0.87947,1.52329 0.87913,-1.52329 z"
       style="fill:#231f20;fill-opacity:1;fill-rule:nonzero;stroke:none;stroke-width:0.352778" />
    <path
       id="path1064"
       d="m 137.68773,148.83921 h -12.00008 v -5.00028 h 12.00008 z"
       style="fill:#ffffff;fill-opacity:1;fill-rule:nonzero;stroke:#c18f07;stroke-width:0.352778;stroke-linecap:butt;stroke-linejoin:miter;stroke-miterlimit:4;stroke-dasharray:none;stroke-opacity:1" />
    <g
       id="g1064"
       aria-label="1 0 0 # #"
       transform="matrix(0.35277776,0,0,0.35277776,126.75415,147.36278)">
      <path
         id="path1065"
         d="M 1.5934391,-0.00119688 H 2.6012516 V -6.5871344 h -0.5625 c -0.375,0.3164063 -0.8320313,0.5859375 -1.32421879,0.8320313 v 0.609375 H 1.5934391 Z m 0,0"
         style="fill:#231f20;fill-opacity:1;fill-rule:nonzero;stroke:none" />
      <path
         id="path1066"
         d="m 8.9117984,-3.2472906 c 0,2.1328125 -0.328125,2.80078122 -0.9257812,2.80078122 -0.5859375,0 -0.9140625,-0.66796872 -0.9140625,-2.80078122 0,-2.1328125 0.328125,-2.8007813 0.9140625,-2.8007813 0.5976562,0 0.9257812,0.6679688 0.9257812,2.8007813 z m 0.6445313,0 c 0,-2.3554688 -0.5039063,-3.3398438 -1.5703125,-3.3398438 -1.0546875,0 -1.5585938,0.984375 -1.5585938,3.3398438 0,2.34374997 0.5039063,3.33984372 1.5585938,3.33984372 1.0664062,0 1.5703125,-0.99609375 1.5703125,-3.33984372 z m 5.3496093,0 c 0,2.1328125 -0.328125,2.80078122 -0.925781,2.80078122 -0.585938,0 -0.914063,-0.66796872 -0.914063,-2.80078122 0,-2.1328125 0.328125,-2.8007813 0.914063,-2.8007813 0.597656,0 0.925781,0.6679688 0.925781,2.8007813 z m 0.644531,0 c 0,-2.3554688 -0.503906,-3.3398438 -1.570312,-3.3398438 -1.054688,0 -1.558594,0.984375 -1.558594,3.3398438 0,2.34374997 0.503906,3.33984372 1.558594,3.33984372 1.066406,0 1.570312,-0.99609375 1.570312,-3.33984372 z m 6.052735,0.703125 H 20.90008 l 0.164062,-1.40625 h 0.75 v -0.5039063 h -0.714844 l 0.234375,-2.0390625 H 20.80633 l -0.222657,2.0390625 h -0.890625 l 0.222657,-2.0390625 H 19.40008 l -0.234375,2.0390625 H 18.36883 v 0.5039063 h 0.75 l -0.164063,1.40625 h -0.808594 v 0.5039062 h 0.75 l -0.234375,2.03906252 h 0.539063 l 0.222656,-2.03906252 h 0.890625 l -0.222656,2.03906252 h 0.527344 l 0.222656,-2.03906252 h 0.761719 z m -1.078125,-1.40625 -0.152344,1.40625 h -0.902344 l 0.164063,-1.40625 z m 7.072265,1.40625 H 26.89422 l 0.164063,-1.40625 h 0.75 v -0.5039063 h -0.714844 l 0.234375,-2.0390625 H 26.80047 l -0.222656,2.0390625 h -0.890625 l 0.222656,-2.0390625 H 25.39422 l -0.234375,2.0390625 H 24.36297 v 0.5039063 h 0.75 l -0.164062,1.40625 h -0.808594 v 0.5039062 h 0.75 l -0.234375,2.03906252 h 0.539063 l 0.222656,-2.03906252 h 0.890625 l -0.222656,2.03906252 h 0.527343 l 0.222657,-2.03906252 h 0.761718 z m -1.078125,-1.40625 -0.152343,1.40625 h -0.902344 l 0.164062,-1.40625 z m 0,0"
         style="fill:#231f20;fill-opacity:1;fill-rule:nonzero;stroke:none" />
    </g>
    <path
       id="path1067"
       d="m 141.68788,148.83921 h -3.99979 v -5.00028 h 3.99979 z"
       style="fill:#ffffff;fill-opacity:1;fill-rule:nonzero;stroke:#c18f07;stroke-width:0.352778;stroke-linecap:butt;stroke-linejoin:miter;stroke-miterlimit:4;stroke-dasharray:none;stroke-opacity:1" />
    <path
       id="path1068"
       d="m 140.12479,147.36236 v -0.19017 h -0.26871 v -2.1332 h -0.15297 c -0.10335,0.0868 -0.23151,0.14469 -0.35967,0.17776 v 0.14056 l 0.28526,-0.0289 v 1.84382 h -0.28112 v 0.19017 z m 0,0"
       style="fill:#231f20;fill-opacity:1;fill-rule:nonzero;stroke:none;stroke-width:0.352778"
       aria-label="1" />
    <path
       id="path1069"
       d="m 133.68794,156.33573 h -3.9998 v -5.00027 h 3.9998 z"
       style="fill:#ffffff;fill-opacity:1;fill-rule:nonzero;stroke:#c18f07;stroke-width:0.352778;stroke-linecap:butt;stroke-linejoin:miter;stroke-miterlimit:4;stroke-dasharray:none;stroke-opacity:1" />
    <path
       id="path1070"
       d="M 3.69165,8.8484611e-4 V -0.62984224 H 2.801025 V -7.7049547 H 2.2971188 c -0.3515625,0.2879406 -0.7734375,0.479901 -1.2070313,0.5895927 v 0.4661896 l 0.9492188,-0.09598 v 6.11531046 H 1.113525 V 8.8484611e-4 Z m 0,0"
       style="fill:#231f20;fill-opacity:1;fill-rule:nonzero;stroke:none"
       aria-label="1"
       transform="matrix(0.35277776,0,0,0.30150802,130.77333,154.85931)"
       clip-path="url(#clipPath1071)" />
    <path
       id="path1072"
       d="m 82.430389,166.73633 h -3.999794 v -5.00027 h 3.999794 z"
       style="fill:#ffffff;fill-opacity:1;fill-rule:nonzero;stroke:#c18f07;stroke-width:0.352778;stroke-linecap:butt;stroke-linejoin:miter;stroke-miterlimit:4;stroke-dasharray:none;stroke-opacity:1" />
    <path
       id="path1073"
       d="M 3.6901984,-2.3218069e-4 V -0.63095926 H 2.7995734 V -7.7060718 H 2.2956672 c -0.3515625,0.2879407 -0.7734375,0.4799011 -1.2070313,0.5895927 v 0.4661896 l 0.9492188,-0.09598 v 6.11531044 H 1.1120734 v 0.63072707931 z m 0,0"
       style="fill:#231f20;fill-opacity:1;fill-rule:nonzero;stroke:none"
       aria-label="1"
       transform="matrix(0.35277776,0,0,0.30150802,79.515999,165.26005)"
       clip-path="url(#clipPath1074)" />
    <path
       id="path1075"
       d="m 95.333822,167.714 0.977547,-0.97755 v -17.0247 h 1.704622 v 1.44639 l 2.893129,-2.89313 -3.098445,-3.09845 v 1.70251 h -1.499306 v -16.7065 l -0.983544,-0.98354"
       style="fill:none;stroke:#ceccc9;stroke-width:0.176389;stroke-linecap:butt;stroke-linejoin:miter;stroke-miterlimit:4;stroke-dasharray:none;stroke-opacity:1" />
    <path
       id="path1076"
       d="m 123.49591,138.24574 -10.90436,4.24321 m 11.00984,-4.24321 10.90436,4.24321"
       style="fill:none;stroke:#231f20;stroke-width:0.176389;stroke-linecap:butt;stroke-linejoin:round;stroke-miterlimit:10;stroke-dasharray:none;stroke-opacity:1" />
  </g>
</svg>
