<?xml version="1.0" encoding="UTF-8" standalone="no"?>
<!-- Created with Inkscape (http://www.inkscape.org/) -->

<svg
   width="98.00061mm"
   height="42.519547mm"
   viewBox="0 0 98.00061 42.519547"
   version="1.1"
   id="svg1"
   xmlns:inkscape="http://www.inkscape.org/namespaces/inkscape"
   xmlns:sodipodi="http://sodipodi.sourceforge.net/DTD/sodipodi-0.dtd"
   xmlns="http://www.w3.org/2000/svg"
   xmlns:svg="http://www.w3.org/2000/svg">
  <sodipodi:namedview
     id="namedview1"
     pagecolor="#ffffff"
     bordercolor="#000000"
     borderopacity="0.25"
     inkscape:showpageshadow="2"
     inkscape:pageopacity="0.0"
     inkscape:pagecheckerboard="0"
     inkscape:deskcolor="#d1d1d1"
     inkscape:document-units="mm" />
  <defs
     id="defs1">
    <clipPath
       clipPathUnits="userSpaceOnUse"
       id="clipPath1782">
      <path
         d="M 0,0 H 595.276 V 841.89 H 0 Z"
         transform="translate(-247.48163,-196.4266)"
         id="path1782" />
    </clipPath>
    <clipPath
       clipPathUnits="userSpaceOnUse"
       id="clipPath1787">
      <path
         d="M 0,0 H 595.276 V 841.89 H 0 Z"
         transform="translate(-247.48163,-174.77331)"
         id="path1787" />
    </clipPath>
    <clipPath
       clipPathUnits="userSpaceOnUse"
       id="clipPath1796">
      <path
         d="M 0,0 H 595.276 V 841.89 H 0 Z"
         transform="translate(-290.33123,-203.6395)"
         id="path1796" />
    </clipPath>
    <clipPath
       clipPathUnits="userSpaceOnUse"
       id="clipPath1801">
      <path
         d="M 0,0 H 595.276 V 841.89 H 0 Z"
         transform="translate(-292.83511,-174.77331)"
         id="path1801" />
    </clipPath>
    <clipPath
       clipPathUnits="userSpaceOnUse"
       id="clipPath1811">
      <path
         d="M 0,0 H 595.276 V 841.89 H 0 Z"
         transform="translate(-343.85963,-196.4266)"
         id="path1811" />
    </clipPath>
    <clipPath
       clipPathUnits="userSpaceOnUse"
       id="clipPath1816">
      <path
         d="M 0,0 H 595.276 V 841.89 H 0 Z"
         transform="translate(-343.85963,-174.77331)"
         id="path1816" />
    </clipPath>
    <clipPath
       clipPathUnits="userSpaceOnUse"
       id="clipPath1825">
      <path
         d="M 0,0 H 595.276 V 841.89 H 0 Z"
         transform="translate(-386.70818,-203.6395)"
         id="path1825" />
    </clipPath>
    <clipPath
       clipPathUnits="userSpaceOnUse"
       id="clipPath1830">
      <path
         d="M 0,0 H 595.276 V 841.89 H 0 Z"
         transform="translate(-386.70818,-181.98621)"
         id="path1830" />
    </clipPath>
    <clipPath
       clipPathUnits="userSpaceOnUse"
       id="clipPath1840">
      <path
         d="M 0,0 H 595.276 V 841.89 H 0 Z"
         transform="translate(-440.23749,-196.4266)"
         id="path1840" />
    </clipPath>
    <clipPath
       clipPathUnits="userSpaceOnUse"
       id="clipPath1845">
      <path
         d="M 0,0 H 595.276 V 841.89 H 0 Z"
         transform="translate(-437.73264,-181.98621)"
         id="path1845" />
    </clipPath>
    <clipPath
       clipPathUnits="userSpaceOnUse"
       id="clipPath1854">
      <path
         d="M 0,0 H 595.276 V 841.89 H 0 Z"
         transform="translate(-483.08709,-203.6395)"
         id="path1854" />
    </clipPath>
    <clipPath
       clipPathUnits="userSpaceOnUse"
       id="clipPath1859">
      <path
         d="M 0,0 H 595.276 V 841.89 H 0 Z"
         transform="translate(-483.08709,-181.98621)"
         id="path1859" />
    </clipPath>
  </defs>
  <g
     inkscape:label="Calque 1"
     inkscape:groupmode="layer"
     id="layer1"
     transform="translate(-48.540525,-40.872222)">
    <path
       id="path1748"
       d="M 62.540866,83.391768 H 48.540526 V 68.392007 h 14.00034 z"
       style="fill:#f3e5bf;fill-opacity:1;fill-rule:nonzero;stroke:none;stroke-width:0.352778"
       inkscape:export-filename="Figure_8_CALM_tree.svg"
       inkscape:export-xdpi="17.104378"
       inkscape:export-ydpi="17.104378" />
    <path
       id="path1749"
       d="M 78.541096,83.391768 H 64.541116 V 68.392007 h 13.99998 z"
       style="fill:#f3e5bf;fill-opacity:1;fill-rule:nonzero;stroke:none;stroke-width:0.352778" />
    <path
       id="path1750"
       d="M 96.540876,83.391768 H 82.540896 V 68.392007 h 13.99998 z"
       style="fill:#f3e5bf;fill-opacity:1;fill-rule:nonzero;stroke:none;stroke-width:0.352778" />
    <path
       id="path1751"
       d="M 112.54077,83.391768 H 98.540776 V 68.392007 h 13.999994 z"
       style="fill:#f3e5bf;fill-opacity:1;fill-rule:nonzero;stroke:none;stroke-width:0.352778" />
    <path
       id="path1752"
       d="M 130.5409,83.391768 H 116.54056 V 68.392007 h 14.00034 z"
       style="fill:#f3e5bf;fill-opacity:1;fill-rule:nonzero;stroke:none;stroke-width:0.352778" />
    <path
       id="path1753"
       d="M 146.54113,83.391768 H 132.54079 V 68.392007 h 14.00034 z"
       style="fill:#f3e5bf;fill-opacity:1;fill-rule:nonzero;stroke:none;stroke-width:0.352778" />
    <path
       id="path1754"
       d="m 102.24074,42.000835 c 0.0289,-0.322461 -0.0703,-0.520899 -0.36794,-0.520899 -0.34726,0 -0.56224,0.260449 -0.69453,0.855762 -0.13229,0.599447 -0.0289,0.859896 0.31419,0.859896 0.30179,0 0.50437,-0.231511 0.61185,-0.553972 h -0.22324 c -0.0992,0.285254 -0.19844,0.363802 -0.34726,0.363802 -0.19017,0 -0.24392,-0.124023 -0.12403,-0.669726 0.11989,-0.545703 0.22738,-0.665592 0.42168,-0.665592 0.14056,0 0.21911,0.08268 0.18604,0.330729 z m -4.553734,-0.487826 h -0.19017 l -0.48369,2.191081 h 0.22738 l 0.14469,-0.661459 c 0.062,0.07442 0.14883,0.152963 0.27285,0.152963 0.26045,0 0.52504,-0.223242 0.66973,-0.859896 0.13643,-0.63252 -0.0289,-0.855762 -0.28939,-0.855762 -0.14883,0 -0.27698,0.07441 -0.38034,0.19017 h -0.004 z m -0.0289,0.314193 c 0.091,-0.09508 0.20671,-0.157096 0.27285,-0.157096 0.19431,0 0.27699,0.157096 0.16537,0.665592 -0.11162,0.508496 -0.26045,0.669726 -0.45062,0.669726 -0.10335,0 -0.16536,-0.08268 -0.21911,-0.148828 z m -4.54649,1.335319 h 0.23151 l 0.28526,-1.289844 c 0.12815,-0.128157 0.24804,-0.202571 0.35553,-0.202571 0.12402,0 0.16536,0.08268 0.12402,0.272851 l -0.27285,1.219564 h 0.23151 l 0.27699,-1.252637 c 0.0661,-0.30179 -0.0413,-0.429948 -0.26872,-0.429948 -0.10749,0 -0.28939,0.103353 -0.40514,0.21084 l 0.17776,-0.818555 h -0.22737 z m 0,0"
       style="fill:#231f20;fill-opacity:1;fill-rule:nonzero;stroke:none;stroke-width:0.352778"
       aria-label="cph" />
    <path
       id="path1755"
       d="m 63.639546,61.821659 -8.09872,6.551083 m 16.11771,3.53e-4 -8.09872,-6.551083 m 34.00778,-12.163425 -34.20604,7.110942 m 68.381744,0 -34.206044,-7.110942"
       style="fill:none;stroke:#231f20;stroke-width:0.176389;stroke-linecap:butt;stroke-linejoin:round;stroke-miterlimit:10;stroke-dasharray:none;stroke-opacity:1" />
    <path
       id="path1756"
       d="m 95.559806,49.658802 h -3.9998 V 44.65853 h 3.9998 z"
       style="fill:#ffffff;fill-opacity:1;fill-rule:nonzero;stroke:#c18f07;stroke-width:0.352778;stroke-linecap:butt;stroke-linejoin:miter;stroke-miterlimit:4;stroke-dasharray:none;stroke-opacity:1" />
    <path
       id="path1757"
       d="m 94.162686,47.285264 h -0.24805 l 0.0579,-0.496093 h 0.26458 v -0.177767 h -0.25218 l 0.0827,-0.719336 h -0.18604 l -0.0785,0.719336 h -0.31419 l 0.0786,-0.719336 h -0.1819 l -0.0827,0.719336 h -0.28112 v 0.177767 h 0.26459 l -0.0579,0.496093 h -0.28525 v 0.177767 h 0.26458 l -0.0827,0.719336 h 0.19017 l 0.0785,-0.719336 h 0.3142 l -0.0785,0.719336 h 0.18603 l 0.0786,-0.719336 h 0.26872 z m -0.38034,-0.496093 -0.0537,0.496093 h -0.31833 l 0.0579,-0.496093 z m 0,0"
       style="fill:#231f20;fill-opacity:1;fill-rule:nonzero;stroke:none;stroke-width:0.352778"
       aria-label="#" />
    <path
       id="path1758"
       d="m 99.559946,49.658802 h -3.99979 V 44.65853 h 3.99979 z"
       style="fill:#ffffff;fill-opacity:1;fill-rule:nonzero;stroke:#c18f07;stroke-width:0.352778;stroke-linecap:butt;stroke-linejoin:miter;stroke-miterlimit:4;stroke-dasharray:none;stroke-opacity:1" />
    <path
       id="path1759"
       d="m 98.162446,47.285264 h -0.24805 l 0.0579,-0.496093 h 0.26458 v -0.177767 h -0.25218 l 0.0827,-0.719336 h -0.18603 l -0.0786,0.719336 h -0.31419 l 0.0785,-0.719336 h -0.1819 l -0.0827,0.719336 h -0.28112 v 0.177767 h 0.26458 l -0.0579,0.496093 h -0.28516 v 0.177767 h 0.26459 l -0.0827,0.719336 h 0.19017 l 0.0786,-0.719336 h 0.31419 l -0.0785,0.719336 h 0.18603 l 0.0786,-0.719336 h 0.26872 z m -0.38034,-0.496093 -0.0538,0.496093 h -0.31832 l 0.0579,-0.496093 z m 0,0"
       style="fill:#231f20;fill-opacity:1;fill-rule:nonzero;stroke:none;stroke-width:0.352778"
       aria-label="#" />
    <path
       id="path1760"
       d="M 103.5601,49.658802 H 99.560306 V 44.65853 h 3.999794 z"
       style="fill:#ffffff;fill-opacity:1;fill-rule:nonzero;stroke:#c18f07;stroke-width:0.352778;stroke-linecap:butt;stroke-linejoin:miter;stroke-miterlimit:4;stroke-dasharray:none;stroke-opacity:1" />
    <path
       id="path1761"
       d="m 102.16219,47.285264 h -0.24805 l 0.0579,-0.496093 h 0.26458 v -0.177767 h -0.25218 l 0.0827,-0.719336 h -0.18604 l -0.0786,0.719336 h -0.31419 l 0.0786,-0.719336 h -0.1819 l -0.0827,0.719336 h -0.28111 v 0.177767 h 0.26458 l -0.0579,0.496093 h -0.28525 v 0.177767 h 0.26458 l -0.0827,0.719336 h 0.19017 l 0.0786,-0.719336 h 0.31419 l -0.0786,0.719336 h 0.18604 l 0.0785,-0.719336 h 0.26872 z m -0.38034,-0.496093 -0.0537,0.496093 h -0.31833 l 0.0579,-0.496093 z m 0,0"
       style="fill:#231f20;fill-opacity:1;fill-rule:nonzero;stroke:none;stroke-width:0.352778"
       aria-label="#" />
    <path
       id="path1762"
       d="m 95.559806,61.658185 h -3.9998 v -5.000272 h 3.9998 z"
       style="fill:#ffffff;fill-opacity:1;fill-rule:nonzero;stroke:#c18f07;stroke-width:0.352778;stroke-linecap:butt;stroke-linejoin:miter;stroke-miterlimit:4;stroke-dasharray:none;stroke-opacity:1" />
    <path
       id="path1763"
       d="m 94.162686,59.285567 h -0.24805 l 0.0579,-0.496094 h 0.26458 v -0.177767 h -0.25218 l 0.0827,-0.719335 h -0.18604 l -0.0785,0.719335 h -0.31419 l 0.0786,-0.719335 h -0.1819 l -0.0827,0.719335 h -0.28112 v 0.177767 h 0.26459 l -0.0579,0.496094 h -0.28525 v 0.177767 h 0.26458 l -0.0827,0.719336 h 0.19017 l 0.0785,-0.719336 h 0.3142 l -0.0785,0.719336 h 0.18603 l 0.0786,-0.719336 h 0.26872 z m -0.38034,-0.496094 -0.0537,0.496094 h -0.31833 l 0.0579,-0.496094 z m 0,0"
       style="fill:#231f20;fill-opacity:1;fill-rule:nonzero;stroke:none;stroke-width:0.352778"
       aria-label="#" />
    <path
       id="path1764"
       d="m 99.559946,61.658185 h -3.99979 v -5.000272 h 3.99979 z"
       style="fill:#ffffff;fill-opacity:1;fill-rule:nonzero;stroke:#c18f07;stroke-width:0.352778;stroke-linecap:butt;stroke-linejoin:miter;stroke-miterlimit:4;stroke-dasharray:none;stroke-opacity:1" />
    <path
       id="path1765"
       d="m 98.162446,59.285567 h -0.24805 l 0.0579,-0.496094 h 0.26458 v -0.177767 h -0.25218 l 0.0827,-0.719335 h -0.18603 l -0.0786,0.719335 h -0.31419 l 0.0785,-0.719335 h -0.1819 l -0.0827,0.719335 h -0.28112 v 0.177767 h 0.26458 l -0.0579,0.496094 h -0.28516 v 0.177767 h 0.26459 l -0.0827,0.719336 h 0.19017 l 0.0786,-0.719336 h 0.31419 l -0.0785,0.719336 h 0.18603 l 0.0786,-0.719336 h 0.26872 z m -0.38034,-0.496094 -0.0538,0.496094 h -0.31832 l 0.0579,-0.496094 z m 0,0"
       style="fill:#231f20;fill-opacity:1;fill-rule:nonzero;stroke:none;stroke-width:0.352778"
       aria-label="#" />
    <path
       id="path1766"
       d="M 103.5601,61.658185 H 99.560306 V 56.657913 H 103.5601 Z"
       style="fill:#ffffff;fill-opacity:1;fill-rule:nonzero;stroke:#c18f07;stroke-width:0.352778;stroke-linecap:butt;stroke-linejoin:miter;stroke-miterlimit:4;stroke-dasharray:none;stroke-opacity:1" />
    <path
       id="path1767"
       d="m 102.43091,58.533158 h -0.22738 l -0.28525,1.28571 c -0.13229,0.128157 -0.24805,0.206706 -0.35967,0.206706 -0.12402,0 -0.16123,-0.08268 -0.11989,-0.272852 l 0.26872,-1.219564 h -0.22738 l -0.27698,1.248503 c -0.0662,0.305924 0.0372,0.434082 0.26458,0.434082 0.10749,0 0.28939,-0.103353 0.42168,-0.214974 l -0.0413,0.181901 h 0.21911 z m 0,0"
       style="fill:#231f20;fill-opacity:1;fill-rule:nonzero;stroke:none;stroke-width:0.352778"
       aria-label="u" />
    <path
       id="path1768"
       d="m 61.609176,61.658185 h -3.99979 v -5.000272 h 3.99979 z"
       style="fill:#ffffff;fill-opacity:1;fill-rule:nonzero;stroke:#c18f07;stroke-width:0.352778;stroke-linecap:butt;stroke-linejoin:miter;stroke-miterlimit:4;stroke-dasharray:none;stroke-opacity:1" />
    <path
       id="path1769"
       d="m 60.212306,59.285567 h -0.24805 l 0.0579,-0.496094 h 0.26458 v -0.177767 h -0.25218 l 0.0827,-0.719335 h -0.18603 l -0.0786,0.719335 h -0.31419 l 0.0785,-0.719335 h -0.1819 l -0.0827,0.719335 h -0.28112 v 0.177767 h 0.26458 l -0.0579,0.496094 h -0.28526 v 0.177767 h 0.26459 l -0.0827,0.719336 h 0.19017 l 0.0786,-0.719336 h 0.31419 l -0.0785,0.719336 h 0.18603 l 0.0786,-0.719336 h 0.26872 z m -0.38034,-0.496094 -0.0537,0.496094 h -0.31832 l 0.0579,-0.496094 z m 0,0"
       style="fill:#231f20;fill-opacity:1;fill-rule:nonzero;stroke:none;stroke-width:0.352778"
       aria-label="#" />
    <path
       id="path1770"
       d="m 65.608976,61.658185 h -3.9998 v -5.000272 h 3.9998 z"
       style="fill:#ffffff;fill-opacity:1;fill-rule:nonzero;stroke:#c18f07;stroke-width:0.352778;stroke-linecap:butt;stroke-linejoin:miter;stroke-miterlimit:4;stroke-dasharray:none;stroke-opacity:1" />
    <path
       id="path1771"
       d="m 64.212066,59.285567 h -0.24805 l 0.0579,-0.496094 h 0.26458 v -0.177767 h -0.25218 l 0.0827,-0.719335 h -0.18603 l -0.0786,0.719335 h -0.3142 l 0.0786,-0.719335 h -0.1819 l -0.0827,0.719335 h -0.28112 v 0.177767 h 0.26458 l -0.0579,0.496094 h -0.28526 v 0.177767 h 0.26458 l -0.0827,0.719336 h 0.19017 l 0.0786,-0.719336 h 0.31419 l -0.0786,0.719336 h 0.18604 l 0.0785,-0.719336 h 0.26872 z m -0.38034,-0.496094 -0.0538,0.496094 h -0.31832 l 0.0579,-0.496094 z m 0,0"
       style="fill:#231f20;fill-opacity:1;fill-rule:nonzero;stroke:none;stroke-width:0.352778"
       aria-label="#" />
    <path
       id="path1772"
       d="m 69.609116,61.658185 h -3.99979 v -5.000272 h 3.99979 z"
       style="fill:#ffffff;fill-opacity:1;fill-rule:nonzero;stroke:#c18f07;stroke-width:0.352778;stroke-linecap:butt;stroke-linejoin:miter;stroke-miterlimit:4;stroke-dasharray:none;stroke-opacity:1" />
    <path
       id="path1773"
       d="m 67.174146,60.18267 h 0.22737 l 0.5085,-2.290299 h -0.23151 z m 0,0"
       style="fill:#231f20;fill-opacity:1;fill-rule:nonzero;stroke:none;stroke-width:0.352778"
       aria-label="l" />
    <path
       id="path1774"
       d="m 129.55982,61.658185 h -3.99979 v -5.000272 h 3.99979 z"
       style="fill:#ffffff;fill-opacity:1;fill-rule:nonzero;stroke:#c18f07;stroke-width:0.352778;stroke-linecap:butt;stroke-linejoin:miter;stroke-miterlimit:4;stroke-dasharray:none;stroke-opacity:1" />
    <path
       id="path1775"
       d="m 128.16269,59.285567 h -0.24805 l 0.0579,-0.496094 h 0.26458 v -0.177767 h -0.25218 l 0.0827,-0.719335 h -0.18603 l -0.0785,0.719335 h -0.31419 l 0.0786,-0.719335 h -0.18191 l -0.0827,0.719335 h -0.28112 v 0.177767 h 0.26459 l -0.0579,0.496094 h -0.28526 v 0.177767 h 0.26459 l -0.0827,0.719336 h 0.19016 l 0.0785,-0.719336 h 0.3142 l -0.0785,0.719336 h 0.18603 l 0.0786,-0.719336 h 0.26872 z m -0.38034,-0.496094 -0.0537,0.496094 h -0.31833 l 0.0579,-0.496094 z m 0,0"
       style="fill:#231f20;fill-opacity:1;fill-rule:nonzero;stroke:none;stroke-width:0.352778"
       aria-label="#" />
    <path
       id="path1776"
       d="m 133.55997,61.658185 h -3.99979 v -5.000272 h 3.99979 z"
       style="fill:#ffffff;fill-opacity:1;fill-rule:nonzero;stroke:#c18f07;stroke-width:0.352778;stroke-linecap:butt;stroke-linejoin:miter;stroke-miterlimit:4;stroke-dasharray:none;stroke-opacity:1" />
    <path
       id="path1777"
       d="m 132.16243,59.285567 h -0.24804 l 0.0579,-0.496094 h 0.26459 v -0.177767 h -0.25218 l 0.0827,-0.719335 h -0.18604 l -0.0786,0.719335 h -0.31419 l 0.0786,-0.719335 h -0.1819 l -0.0827,0.719335 h -0.28112 v 0.177767 h 0.26458 l -0.0579,0.496094 h -0.28525 v 0.177767 h 0.26458 l -0.0827,0.719336 h 0.19017 l 0.0786,-0.719336 h 0.31419 l -0.0785,0.719336 h 0.18604 l 0.0785,-0.719336 h 0.26872 z m -0.38034,-0.496094 -0.0537,0.496094 h -0.31833 l 0.0579,-0.496094 z m 0,0"
       style="fill:#231f20;fill-opacity:1;fill-rule:nonzero;stroke:none;stroke-width:0.352778"
       aria-label="#" />
    <path
       id="path1778"
       d="m 137.56012,61.658185 h -3.9998 v -5.000272 h 3.9998 z"
       style="fill:#ffffff;fill-opacity:1;fill-rule:nonzero;stroke:#c18f07;stroke-width:0.352778;stroke-linecap:butt;stroke-linejoin:miter;stroke-miterlimit:4;stroke-dasharray:none;stroke-opacity:1" />
    <path
       id="path1779"
       d="m 135.09559,60.18267 h 0.22738 l 0.26045,-1.174089 c 0.17363,-0.235644 0.31832,-0.293522 0.48782,-0.293522 l 0.0496,-0.214974 c -0.1819,0 -0.28939,0.03307 -0.47129,0.231511 h -0.004 l 0.0413,-0.198438 h -0.22738 z m 0,0"
       style="fill:#231f20;fill-opacity:1;fill-rule:nonzero;stroke:none;stroke-width:0.352778"
       aria-label="r" />
    <path
       id="path1780"
       d="m 53.540796,74.572673 h -3.99979 v -5.000272 h 3.99979 z"
       style="fill:#ffffff;fill-opacity:1;fill-rule:nonzero;stroke:#c18f07;stroke-width:0.352778;stroke-linecap:butt;stroke-linejoin:miter;stroke-miterlimit:4;stroke-dasharray:none;stroke-opacity:1" />
    <path
       id="path1781"
       d="m 0,0 h -4.969 l 0.047,0.199 c 0.645,0.137 1.072,0.272 1.283,0.405 0.317,0.199 0.576,0.494 0.777,0.884 0.201,0.391 0.302,0.801 0.302,1.231 0,0.062 -0.003,0.154 -0.006,0.275 C -2.805,2.51 -3.095,2.156 -3.436,1.934 -3.778,1.711 -4.127,1.6 -4.482,1.6 c -0.453,0 -0.838,0.158 -1.155,0.474 -0.316,0.317 -0.474,0.705 -0.474,1.166 0,0.453 0.144,0.835 0.433,1.146 0.289,0.31 0.618,0.466 0.985,0.466 0.234,0 0.552,-0.1 0.955,-0.299 -0.164,0.269 -0.271,0.474 -0.32,0.615 -0.048,0.141 -0.073,0.291 -0.073,0.451 0,0.449 0.154,0.827 0.463,1.134 0.309,0.307 0.695,0.46 1.16,0.46 0.457,0 0.843,-0.153 1.157,-0.46 0.315,-0.307 0.472,-0.677 0.472,-1.11 0,-0.344 -0.135,-0.707 -0.404,-1.09 0.328,0.156 0.525,0.244 0.592,0.263 0.105,0.032 0.224,0.047 0.357,0.047 0.391,0 0.73,-0.153 1.017,-0.46 C 0.97,4.097 1.113,3.717 1.113,3.264 1.113,2.795 0.956,2.401 0.642,2.083 0.327,1.765 -0.051,1.605 -0.492,1.605 c -0.242,0 -0.493,0.06 -0.753,0.179 -0.26,0.119 -0.487,0.279 -0.683,0.478 -0.136,0.144 -0.306,0.388 -0.51,0.732 0.016,-0.621 0.111,-1.112 0.285,-1.473 0.174,-0.362 0.44,-0.662 0.8,-0.9 0.242,-0.16 0.677,-0.301 1.306,-0.422 z"
       style="fill:#231f20;fill-opacity:1;fill-rule:nonzero;stroke:none"
       transform="matrix(0.35277776,0,0,-0.35277776,52.346866,73.09679)"
       clip-path="url(#clipPath1782)" />
    <path
       id="path1783"
       d="m 57.540596,74.572673 h -3.9998 v -5.000272 h 3.9998 z"
       style="fill:#ffffff;fill-opacity:1;fill-rule:nonzero;stroke:#c18f07;stroke-width:0.352778;stroke-linecap:butt;stroke-linejoin:miter;stroke-miterlimit:4;stroke-dasharray:none;stroke-opacity:1" />
    <path
       id="path1784"
       d="m 56.143296,72.199507 h -0.24804 l 0.0579,-0.496093 h 0.26459 v -0.177767 h -0.25218 l 0.0827,-0.719336 h -0.18604 l -0.0786,0.719336 h -0.31419 l 0.0786,-0.719336 h -0.1819 l -0.0827,0.719336 h -0.28112 v 0.177767 h 0.26458 l -0.0579,0.496093 h -0.28525 v 0.177767 h 0.26458 l -0.0827,0.719336 h 0.19017 l 0.0786,-0.719336 h 0.31419 l -0.0786,0.719336 h 0.18604 l 0.0785,-0.719336 h 0.26871 z m -0.38034,-0.496093 -0.0537,0.496093 h -0.31833 l 0.0579,-0.496093 z m 0,0"
       style="fill:#231f20;fill-opacity:1;fill-rule:nonzero;stroke:none;stroke-width:0.352778"
       aria-label="#" />
    <path
       id="path1785"
       d="m 53.540796,82.210668 h -3.99979 v -5.000276 h 3.99979 z"
       style="fill:#ffffff;fill-opacity:1;fill-rule:nonzero;stroke:#c18f07;stroke-width:0.352778;stroke-linecap:butt;stroke-linejoin:miter;stroke-miterlimit:4;stroke-dasharray:none;stroke-opacity:1" />
    <path
       id="path1786"
       d="m 0,0 h -4.969 l 0.047,0.199 c 0.645,0.137 1.072,0.272 1.283,0.405 0.317,0.199 0.576,0.494 0.777,0.884 0.201,0.391 0.302,0.801 0.302,1.231 0,0.062 -0.003,0.154 -0.006,0.275 C -2.805,2.51 -3.095,2.156 -3.436,1.934 -3.778,1.711 -4.127,1.6 -4.482,1.6 c -0.453,0 -0.838,0.158 -1.155,0.474 -0.316,0.317 -0.474,0.705 -0.474,1.166 0,0.453 0.144,0.835 0.433,1.146 0.289,0.31 0.618,0.466 0.985,0.466 0.234,0 0.552,-0.1 0.955,-0.299 -0.164,0.269 -0.271,0.474 -0.32,0.615 -0.048,0.141 -0.073,0.291 -0.073,0.451 0,0.449 0.154,0.827 0.463,1.134 0.309,0.307 0.695,0.46 1.16,0.46 0.457,0 0.843,-0.153 1.157,-0.46 0.315,-0.307 0.472,-0.677 0.472,-1.11 0,-0.344 -0.135,-0.707 -0.404,-1.09 0.328,0.156 0.525,0.244 0.592,0.263 0.105,0.032 0.224,0.047 0.357,0.047 0.391,0 0.73,-0.153 1.017,-0.46 C 0.97,4.097 1.113,3.717 1.113,3.264 1.113,2.795 0.956,2.401 0.642,2.083 0.327,1.765 -0.051,1.605 -0.492,1.605 c -0.242,0 -0.493,0.06 -0.753,0.179 -0.26,0.119 -0.487,0.279 -0.683,0.478 -0.136,0.144 -0.306,0.388 -0.51,0.732 0.016,-0.621 0.111,-1.112 0.285,-1.473 0.174,-0.362 0.44,-0.662 0.8,-0.9 0.242,-0.16 0.677,-0.301 1.306,-0.422 z"
       style="fill:#231f20;fill-opacity:1;fill-rule:nonzero;stroke:none"
       transform="matrix(0.35277776,0,0,-0.35277776,52.346866,80.735591)"
       clip-path="url(#clipPath1787)" />
    <path
       id="path1788"
       d="m 57.540596,82.210668 h -3.9998 v -5.000276 h 3.9998 z"
       style="fill:#ffffff;fill-opacity:1;fill-rule:nonzero;stroke:#c18f07;stroke-width:0.352778;stroke-linecap:butt;stroke-linejoin:miter;stroke-miterlimit:4;stroke-dasharray:none;stroke-opacity:1" />
    <path
       id="path1789"
       d="m 55.754696,80.235191 c 0,0.152962 -0.0661,0.219108 -0.18604,0.219108 -0.11575,0 -0.1819,-0.06615 -0.1819,-0.219108 v -1.293978 c 0,-0.148828 0.0662,-0.219108 0.1819,-0.219108 0.11989,0 0.18604,0.07028 0.18604,0.219108 z m -0.74414,-0.09508 c 0,0.429948 0.16536,0.628385 0.5581,0.628385 0.39688,0 0.56224,-0.198437 0.56224,-0.628385 v -1.099674 c 0,-0.434082 -0.16536,-0.628386 -0.56224,-0.628386 -0.39274,0 -0.5581,0.194304 -0.5581,0.628386 z m 0,0"
       style="fill:#231f20;fill-opacity:1;fill-rule:nonzero;stroke:none;stroke-width:0.352778"
       aria-label="0" />
    <path
       id="path1790"
       d="m 61.541096,74.572673 h -3.9998 v -5.000272 h 3.9998 z"
       style="fill:#ffffff;fill-opacity:1;fill-rule:nonzero;stroke:#c18f07;stroke-width:0.352778;stroke-linecap:butt;stroke-linejoin:miter;stroke-miterlimit:4;stroke-dasharray:none;stroke-opacity:1" />
    <path
       id="path1791"
       d="m 59.106416,73.09661 h 0.22737 l 0.5085,-2.290299 h -0.23151 z m 0,0"
       style="fill:#231f20;fill-opacity:1;fill-rule:nonzero;stroke:none;stroke-width:0.352778"
       aria-label="l" />
    <path
       id="path1792"
       d="m 53.540936,74.670849 v 0.912283"
       style="fill:none;stroke:#231f20;stroke-width:0.176389;stroke-linecap:butt;stroke-linejoin:miter;stroke-miterlimit:4;stroke-dasharray:none;stroke-opacity:1" />
    <path
       id="path1793"
       d="m 52.658656,75.325746 0.87947,1.523294 0.87948,-1.523294 z"
       style="fill:#231f20;fill-opacity:1;fill-rule:nonzero;stroke:none;stroke-width:0.352778" />
    <path
       id="path1794"
       d="m 69.541036,74.572673 h -3.9998 v -5.000272 h 3.9998 z"
       style="fill:#ffffff;fill-opacity:1;fill-rule:nonzero;stroke:#c18f07;stroke-width:0.352778;stroke-linecap:butt;stroke-linejoin:miter;stroke-miterlimit:4;stroke-dasharray:none;stroke-opacity:1" />
    <path
       id="path1795"
       d="M 0,0 C 0.348,-0.59 0.775,-1.223 1.283,-1.898 1.869,-2.68 2.342,-3.271 2.701,-3.674 2.412,-3.979 1.94,-4.568 1.283,-5.443 0.752,-6.154 0.326,-6.791 0.006,-7.354 c -0.106,0.204 -0.25,0.44 -0.434,0.709 -0.316,0.469 -0.709,1.014 -1.177,1.635 -0.102,0.137 -0.459,0.582 -1.073,1.336 0.395,0.449 0.903,1.09 1.524,1.922 C -0.693,-1.135 -0.309,-0.551 0,0"
       style="fill:#231f20;fill-opacity:1;fill-rule:nonzero;stroke:none"
       transform="matrix(0.35277776,0,0,-0.35277776,67.463256,70.552239)"
       clip-path="url(#clipPath1796)" />
    <path
       id="path1797"
       d="m 73.540826,74.572673 h -3.99979 v -5.000272 h 3.99979 z"
       style="fill:#ffffff;fill-opacity:1;fill-rule:nonzero;stroke:#c18f07;stroke-width:0.352778;stroke-linecap:butt;stroke-linejoin:miter;stroke-miterlimit:4;stroke-dasharray:none;stroke-opacity:1" />
    <path
       id="path1798"
       d="m 72.143366,72.199507 h -0.24805 l 0.0579,-0.496093 h 0.26458 v -0.177767 h -0.25218 l 0.0827,-0.719336 h -0.18604 l -0.0786,0.719336 h -0.31419 l 0.0786,-0.719336 h -0.1819 l -0.0827,0.719336 h -0.28112 v 0.177767 h 0.26459 l -0.0579,0.496093 h -0.28525 v 0.177767 h 0.26458 l -0.0827,0.719336 h 0.19017 l 0.0785,-0.719336 h 0.3142 l -0.0786,0.719336 h 0.18603 l 0.0786,-0.719336 h 0.26872 z m -0.38034,-0.496093 -0.0537,0.496093 h -0.31833 l 0.0579,-0.496093 z m 0,0"
       style="fill:#231f20;fill-opacity:1;fill-rule:nonzero;stroke:none;stroke-width:0.352778"
       aria-label="#" />
    <path
       id="path1799"
       d="m 69.541036,82.210668 h -3.9998 v -5.000276 h 3.9998 z"
       style="fill:#ffffff;fill-opacity:1;fill-rule:nonzero;stroke:#c18f07;stroke-width:0.352778;stroke-linecap:butt;stroke-linejoin:miter;stroke-miterlimit:4;stroke-dasharray:none;stroke-opacity:1" />
    <path
       id="path1800"
       d="m 0,0 h -4.969 l 0.047,0.199 c 0.645,0.137 1.072,0.272 1.283,0.405 0.317,0.199 0.576,0.494 0.778,0.884 0.201,0.391 0.301,0.801 0.301,1.231 0,0.062 -0.003,0.154 -0.006,0.275 C -2.805,2.51 -3.094,2.156 -3.435,1.934 -3.777,1.711 -4.127,1.6 -4.482,1.6 c -0.453,0 -0.838,0.158 -1.155,0.474 -0.316,0.317 -0.474,0.705 -0.474,1.166 0,0.453 0.144,0.835 0.433,1.146 0.289,0.31 0.618,0.466 0.985,0.466 0.234,0 0.552,-0.1 0.955,-0.299 -0.164,0.269 -0.27,0.474 -0.319,0.615 -0.048,0.141 -0.074,0.291 -0.074,0.451 0,0.449 0.154,0.827 0.463,1.134 0.309,0.307 0.695,0.46 1.16,0.46 0.457,0 0.844,-0.153 1.158,-0.46 0.315,-0.307 0.471,-0.677 0.471,-1.11 0,-0.344 -0.135,-0.707 -0.404,-1.09 0.328,0.156 0.525,0.244 0.592,0.263 0.105,0.032 0.224,0.047 0.357,0.047 0.391,0 0.731,-0.153 1.018,-0.46 C 0.971,4.097 1.113,3.717 1.113,3.264 1.113,2.795 0.957,2.401 0.643,2.083 0.328,1.765 -0.051,1.605 -0.492,1.605 c -0.242,0 -0.492,0.06 -0.752,0.179 -0.26,0.119 -0.488,0.279 -0.684,0.478 -0.136,0.144 -0.306,0.388 -0.51,0.732 0.016,-0.621 0.112,-1.112 0.286,-1.473 0.174,-0.362 0.439,-0.662 0.799,-0.9 0.242,-0.16 0.677,-0.301 1.306,-0.422 z"
       style="fill:#231f20;fill-opacity:1;fill-rule:nonzero;stroke:none"
       transform="matrix(0.35277776,0,0,-0.35277776,68.346566,80.735591)"
       clip-path="url(#clipPath1801)" />
    <path
       id="path1802"
       d="m 73.540826,82.210668 h -3.99979 v -5.000276 h 3.99979 z"
       style="fill:#ffffff;fill-opacity:1;fill-rule:nonzero;stroke:#c18f07;stroke-width:0.352778;stroke-linecap:butt;stroke-linejoin:miter;stroke-miterlimit:4;stroke-dasharray:none;stroke-opacity:1" />
    <path
       id="path1803"
       d="m 71.428166,80.735418 h 0.35553 v -2.323372 h -0.19844 c -0.13229,0.111621 -0.29352,0.206706 -0.46715,0.293522 v 0.214974 h 0.31006 z m 0,0"
       style="fill:#231f20;fill-opacity:1;fill-rule:nonzero;stroke:none;stroke-width:0.352778"
       aria-label="1" />
    <path
       id="path1804"
       d="m 77.541326,74.572673 h -3.99979 v -5.000272 h 3.99979 z"
       style="fill:#ffffff;fill-opacity:1;fill-rule:nonzero;stroke:#c18f07;stroke-width:0.352778;stroke-linecap:butt;stroke-linejoin:miter;stroke-miterlimit:4;stroke-dasharray:none;stroke-opacity:1" />
    <path
       id="path1805"
       d="m 75.105456,73.09661 h 0.22738 l 0.5085,-2.290299 h -0.23151 z m 0,0"
       style="fill:#231f20;fill-opacity:1;fill-rule:nonzero;stroke:none;stroke-width:0.352778"
       aria-label="l" />
    <path
       id="path1806"
       d="m 69.541006,74.670849 v 0.912283"
       style="fill:none;stroke:#231f20;stroke-width:0.176389;stroke-linecap:butt;stroke-linejoin:miter;stroke-miterlimit:4;stroke-dasharray:none;stroke-opacity:1" />
    <path
       id="path1807"
       d="m 68.658696,75.325746 0.87947,1.523294 0.87948,-1.523294 z"
       style="fill:#231f20;fill-opacity:1;fill-rule:nonzero;stroke:none;stroke-width:0.352778" />
    <path
       id="path1808"
       d="m 97.639536,61.821659 -8.09872,6.551083 m 16.117714,3.53e-4 -8.098724,-6.551083"
       style="fill:none;stroke:#231f20;stroke-width:0.176389;stroke-linecap:butt;stroke-linejoin:round;stroke-miterlimit:10;stroke-dasharray:none;stroke-opacity:1" />
    <path
       id="path1809"
       d="m 87.540816,74.572673 h -3.9998 v -5.000272 h 3.9998 z"
       style="fill:#ffffff;fill-opacity:1;fill-rule:nonzero;stroke:#c18f07;stroke-width:0.352778;stroke-linecap:butt;stroke-linejoin:miter;stroke-miterlimit:4;stroke-dasharray:none;stroke-opacity:1" />
    <path
       id="path1810"
       d="m 0,0 h -4.969 l 0.047,0.199 c 0.645,0.137 1.072,0.272 1.283,0.405 0.317,0.199 0.575,0.494 0.777,0.884 0.201,0.391 0.301,0.801 0.301,1.231 0,0.062 -0.002,0.154 -0.005,0.275 C -2.805,2.51 -3.095,2.156 -3.437,1.934 -3.778,1.711 -4.127,1.6 -4.483,1.6 c -0.453,0 -0.837,0.158 -1.154,0.474 -0.316,0.317 -0.474,0.705 -0.474,1.166 0,0.453 0.144,0.835 0.433,1.146 0.289,0.31 0.617,0.466 0.985,0.466 0.234,0 0.552,-0.1 0.955,-0.299 -0.164,0.269 -0.271,0.474 -0.32,0.615 -0.049,0.141 -0.073,0.291 -0.073,0.451 0,0.449 0.154,0.827 0.463,1.134 0.309,0.307 0.695,0.46 1.16,0.46 0.457,0 0.843,-0.153 1.157,-0.46 0.315,-0.307 0.472,-0.677 0.472,-1.11 0,-0.344 -0.135,-0.707 -0.404,-1.09 0.328,0.156 0.525,0.244 0.592,0.263 0.105,0.032 0.224,0.047 0.357,0.047 0.391,0 0.73,-0.153 1.017,-0.46 C 0.97,4.097 1.113,3.717 1.113,3.264 1.113,2.795 0.956,2.401 0.642,2.083 0.327,1.765 -0.051,1.605 -0.492,1.605 c -0.242,0 -0.493,0.06 -0.753,0.179 -0.26,0.119 -0.488,0.279 -0.683,0.478 -0.137,0.144 -0.306,0.388 -0.51,0.732 0.016,-0.621 0.111,-1.112 0.285,-1.473 0.174,-0.362 0.44,-0.662 0.799,-0.9 0.243,-0.16 0.678,-0.301 1.307,-0.422 z"
       style="fill:#231f20;fill-opacity:1;fill-rule:nonzero;stroke:none"
       transform="matrix(0.35277776,0,0,-0.35277776,86.346886,73.09679)"
       clip-path="url(#clipPath1811)" />
    <path
       id="path1812"
       d="m 91.540606,74.572673 h -3.99979 v -5.000272 h 3.99979 z"
       style="fill:#ffffff;fill-opacity:1;fill-rule:nonzero;stroke:#c18f07;stroke-width:0.352778;stroke-linecap:butt;stroke-linejoin:miter;stroke-miterlimit:4;stroke-dasharray:none;stroke-opacity:1" />
    <path
       id="path1813"
       d="m 90.143296,72.199507 h -0.24805 l 0.0579,-0.496093 h 0.26458 v -0.177767 h -0.25218 l 0.0827,-0.719336 h -0.18603 l -0.0786,0.719336 h -0.31419 l 0.0786,-0.719336 h -0.18191 l -0.0827,0.719336 h -0.28112 v 0.177767 h 0.26459 l -0.0579,0.496093 h -0.28526 v 0.177767 h 0.26459 l -0.0827,0.719336 h 0.19016 l 0.0786,-0.719336 h 0.3142 l -0.0786,0.719336 h 0.18603 l 0.0785,-0.719336 h 0.26872 z m -0.38034,-0.496093 -0.0537,0.496093 h -0.31833 l 0.0579,-0.496093 z m 0,0"
       style="fill:#231f20;fill-opacity:1;fill-rule:nonzero;stroke:none;stroke-width:0.352778"
       aria-label="#" />
    <path
       id="path1814"
       d="m 87.540816,82.210668 h -3.9998 v -5.000276 h 3.9998 z"
       style="fill:#ffffff;fill-opacity:1;fill-rule:nonzero;stroke:#c18f07;stroke-width:0.352778;stroke-linecap:butt;stroke-linejoin:miter;stroke-miterlimit:4;stroke-dasharray:none;stroke-opacity:1" />
    <path
       id="path1815"
       d="m 0,0 h -4.969 l 0.047,0.199 c 0.645,0.137 1.072,0.272 1.283,0.405 0.317,0.199 0.575,0.494 0.777,0.884 0.201,0.391 0.301,0.801 0.301,1.231 0,0.062 -0.002,0.154 -0.005,0.275 C -2.805,2.51 -3.095,2.156 -3.437,1.934 -3.778,1.711 -4.127,1.6 -4.483,1.6 c -0.453,0 -0.837,0.158 -1.154,0.474 -0.316,0.317 -0.474,0.705 -0.474,1.166 0,0.453 0.144,0.835 0.433,1.146 0.289,0.31 0.617,0.466 0.985,0.466 0.234,0 0.552,-0.1 0.955,-0.299 -0.164,0.269 -0.271,0.474 -0.32,0.615 -0.049,0.141 -0.073,0.291 -0.073,0.451 0,0.449 0.154,0.827 0.463,1.134 0.309,0.307 0.695,0.46 1.16,0.46 0.457,0 0.843,-0.153 1.157,-0.46 0.315,-0.307 0.472,-0.677 0.472,-1.11 0,-0.344 -0.135,-0.707 -0.404,-1.09 0.328,0.156 0.525,0.244 0.592,0.263 0.105,0.032 0.224,0.047 0.357,0.047 0.391,0 0.73,-0.153 1.017,-0.46 C 0.97,4.097 1.113,3.717 1.113,3.264 1.113,2.795 0.956,2.401 0.642,2.083 0.327,1.765 -0.051,1.605 -0.492,1.605 c -0.242,0 -0.493,0.06 -0.753,0.179 -0.26,0.119 -0.488,0.279 -0.683,0.478 -0.137,0.144 -0.306,0.388 -0.51,0.732 0.016,-0.621 0.111,-1.112 0.285,-1.473 0.174,-0.362 0.44,-0.662 0.799,-0.9 0.243,-0.16 0.678,-0.301 1.307,-0.422 z"
       style="fill:#231f20;fill-opacity:1;fill-rule:nonzero;stroke:none"
       transform="matrix(0.35277776,0,0,-0.35277776,86.346886,80.735591)"
       clip-path="url(#clipPath1816)" />
    <path
       id="path1817"
       d="m 91.540606,82.210668 h -3.99979 v -5.000276 h 3.99979 z"
       style="fill:#ffffff;fill-opacity:1;fill-rule:nonzero;stroke:#c18f07;stroke-width:0.352778;stroke-linecap:butt;stroke-linejoin:miter;stroke-miterlimit:4;stroke-dasharray:none;stroke-opacity:1" />
    <path
       id="path1818"
       d="m 89.754686,80.235191 c 0,0.152962 -0.0661,0.219108 -0.18603,0.219108 -0.11576,0 -0.1819,-0.06615 -0.1819,-0.219108 v -1.293978 c 0,-0.148828 0.0661,-0.219108 0.1819,-0.219108 0.11989,0 0.18603,0.07028 0.18603,0.219108 z m -0.74414,-0.09508 c 0,0.429948 0.16537,0.628385 0.55811,0.628385 0.39687,0 0.56224,-0.198437 0.56224,-0.628385 v -1.099674 c 0,-0.434082 -0.16537,-0.628386 -0.56224,-0.628386 -0.39274,0 -0.55811,0.194304 -0.55811,0.628386 z m 0,0"
       style="fill:#231f20;fill-opacity:1;fill-rule:nonzero;stroke:none;stroke-width:0.352778"
       aria-label="0" />
    <path
       id="path1819"
       d="m 95.541106,74.572673 h -3.99979 v -5.000272 h 3.99979 z"
       style="fill:#ffffff;fill-opacity:1;fill-rule:nonzero;stroke:#c18f07;stroke-width:0.352778;stroke-linecap:butt;stroke-linejoin:miter;stroke-miterlimit:4;stroke-dasharray:none;stroke-opacity:1" />
    <path
       id="path1820"
       d="m 94.411766,71.447099 h -0.22737 l -0.28526,1.285709 c -0.13229,0.128158 -0.24804,0.206706 -0.35967,0.206706 -0.12402,0 -0.16123,-0.08268 -0.11989,-0.272852 l 0.26872,-1.219563 h -0.22737 l -0.27699,1.248502 c -0.0661,0.305925 0.0372,0.434082 0.26458,0.434082 0.10749,0 0.28939,-0.103353 0.42168,-0.214974 l -0.0413,0.181901 h 0.21911 z m 0,0"
       style="fill:#231f20;fill-opacity:1;fill-rule:nonzero;stroke:none;stroke-width:0.352778"
       aria-label="u" />
    <path
       id="path1821"
       d="m 87.540926,74.670849 v 0.912283"
       style="fill:none;stroke:#231f20;stroke-width:0.176389;stroke-linecap:butt;stroke-linejoin:miter;stroke-miterlimit:4;stroke-dasharray:none;stroke-opacity:1" />
    <path
       id="path1822"
       d="m 86.658616,75.325746 0.87947,1.523294 0.87948,-1.523294 z"
       style="fill:#231f20;fill-opacity:1;fill-rule:nonzero;stroke:none;stroke-width:0.352778" />
    <path
       id="path1823"
       d="m 103.54105,74.572673 h -3.999794 v -5.000272 h 3.999794 z"
       style="fill:#ffffff;fill-opacity:1;fill-rule:nonzero;stroke:#c18f07;stroke-width:0.352778;stroke-linecap:butt;stroke-linejoin:miter;stroke-miterlimit:4;stroke-dasharray:none;stroke-opacity:1" />
    <path
       id="path1824"
       d="M 0,0 C 0.348,-0.59 0.775,-1.223 1.283,-1.898 1.869,-2.68 2.342,-3.271 2.701,-3.674 2.412,-3.979 1.939,-4.568 1.283,-5.443 0.752,-6.154 0.326,-6.791 0.006,-7.354 c -0.106,0.204 -0.25,0.44 -0.434,0.709 -0.316,0.469 -0.709,1.014 -1.177,1.635 -0.102,0.137 -0.46,0.582 -1.073,1.336 0.395,0.449 0.903,1.09 1.524,1.922 C -0.693,-1.135 -0.309,-0.551 0,0"
       style="fill:#231f20;fill-opacity:1;fill-rule:nonzero;stroke:none"
       transform="matrix(0.35277776,0,0,-0.35277776,101.4629,70.552239)"
       clip-path="url(#clipPath1825)" />
    <path
       id="path1826"
       d="m 107.54085,74.572673 h -3.9998 v -5.000272 h 3.9998 z"
       style="fill:#ffffff;fill-opacity:1;fill-rule:nonzero;stroke:#c18f07;stroke-width:0.352778;stroke-linecap:butt;stroke-linejoin:miter;stroke-miterlimit:4;stroke-dasharray:none;stroke-opacity:1" />
    <path
       id="path1827"
       d="m 106.14337,72.199507 h -0.24805 l 0.0579,-0.496093 h 0.26458 v -0.177767 h -0.25218 l 0.0827,-0.719336 h -0.18603 l -0.0786,0.719336 h -0.3142 l 0.0786,-0.719336 h -0.1819 l -0.0827,0.719336 h -0.28112 v 0.177767 h 0.26458 l -0.0579,0.496093 h -0.28526 v 0.177767 h 0.26458 l -0.0827,0.719336 h 0.19017 l 0.0786,-0.719336 h 0.31419 l -0.0785,0.719336 h 0.18604 l 0.0786,-0.719336 h 0.26872 z m -0.38034,-0.496093 -0.0538,0.496093 h -0.31832 l 0.0579,-0.496093 z m 0,0"
       style="fill:#231f20;fill-opacity:1;fill-rule:nonzero;stroke:none;stroke-width:0.352778"
       aria-label="#" />
    <path
       id="path1828"
       d="m 103.54105,82.210668 h -3.999794 v -5.000276 h 3.999794 z"
       style="fill:#ffffff;fill-opacity:1;fill-rule:nonzero;stroke:#c18f07;stroke-width:0.352778;stroke-linecap:butt;stroke-linejoin:miter;stroke-miterlimit:4;stroke-dasharray:none;stroke-opacity:1" />
    <path
       id="path1829"
       d="M 0,0 C 0.348,-0.59 0.775,-1.223 1.283,-1.898 1.869,-2.68 2.342,-3.271 2.701,-3.674 2.412,-3.979 1.939,-4.568 1.283,-5.443 0.752,-6.154 0.326,-6.791 0.006,-7.354 c -0.106,0.204 -0.25,0.44 -0.434,0.709 -0.316,0.469 -0.709,1.014 -1.177,1.635 -0.102,0.137 -0.46,0.582 -1.073,1.336 0.395,0.449 0.903,1.09 1.524,1.922 C -0.693,-1.135 -0.309,-0.551 0,0"
       style="fill:#231f20;fill-opacity:1;fill-rule:nonzero;stroke:none"
       transform="matrix(0.35277776,0,0,-0.35277776,101.4629,78.19104)"
       clip-path="url(#clipPath1830)" />
    <path
       id="path1831"
       d="m 107.54085,82.210668 h -3.9998 v -5.000276 h 3.9998 z"
       style="fill:#ffffff;fill-opacity:1;fill-rule:nonzero;stroke:#c18f07;stroke-width:0.352778;stroke-linecap:butt;stroke-linejoin:miter;stroke-miterlimit:4;stroke-dasharray:none;stroke-opacity:1" />
    <path
       id="path1832"
       d="m 105.75476,80.235191 c 0,0.152962 -0.0662,0.219108 -0.18604,0.219108 -0.11575,0 -0.1819,-0.06615 -0.1819,-0.219108 v -1.293978 c 0,-0.148828 0.0661,-0.219108 0.1819,-0.219108 0.11989,0 0.18604,0.07028 0.18604,0.219108 z m -0.74414,-0.09508 c 0,0.429948 0.16536,0.628385 0.5581,0.628385 0.39688,0 0.56224,-0.198437 0.56224,-0.628385 v -1.099674 c 0,-0.434082 -0.16536,-0.628386 -0.56224,-0.628386 -0.39274,0 -0.5581,0.194304 -0.5581,0.628386 z m 0,0"
       style="fill:#231f20;fill-opacity:1;fill-rule:nonzero;stroke:none;stroke-width:0.352778"
       aria-label="0" />
    <path
       id="path1833"
       d="m 111.54135,74.572673 h -3.9998 v -5.000272 h 3.9998 z"
       style="fill:#ffffff;fill-opacity:1;fill-rule:nonzero;stroke:#c18f07;stroke-width:0.352778;stroke-linecap:butt;stroke-linejoin:miter;stroke-miterlimit:4;stroke-dasharray:none;stroke-opacity:1" />
    <path
       id="path1834"
       d="m 110.41287,71.447099 h -0.22738 l -0.28525,1.285709 c -0.1323,0.128158 -0.24805,0.206706 -0.35967,0.206706 -0.12403,0 -0.16123,-0.08268 -0.11989,-0.272852 l 0.26872,-1.219563 h -0.22738 l -0.27699,1.248502 c -0.0661,0.305925 0.0372,0.434082 0.26459,0.434082 0.10748,0 0.28938,-0.103353 0.42168,-0.214974 L 109.83,73.09661 h 0.2191 z m 0,0"
       style="fill:#231f20;fill-opacity:1;fill-rule:nonzero;stroke:none;stroke-width:0.352778"
       aria-label="u" />
    <path
       id="path1835"
       d="m 103.54099,74.670849 v 0.912283"
       style="fill:none;stroke:#231f20;stroke-width:0.176389;stroke-linecap:butt;stroke-linejoin:miter;stroke-miterlimit:4;stroke-dasharray:none;stroke-opacity:1" />
    <path
       id="path1836"
       d="m 102.65869,75.325746 0.87947,1.523294 0.87948,-1.523294 z"
       style="fill:#231f20;fill-opacity:1;fill-rule:nonzero;stroke:none;stroke-width:0.352778" />
    <path
       id="path1837"
       d="m 131.63953,61.821659 -8.09872,6.551083 m 16.11771,3.53e-4 -8.09872,-6.551083"
       style="fill:none;stroke:#231f20;stroke-width:0.176389;stroke-linecap:butt;stroke-linejoin:round;stroke-miterlimit:10;stroke-dasharray:none;stroke-opacity:1" />
    <path
       id="path1838"
       d="m 121.54083,74.572673 h -3.99979 v -5.000272 h 3.99979 z"
       style="fill:#ffffff;fill-opacity:1;fill-rule:nonzero;stroke:#c18f07;stroke-width:0.352778;stroke-linecap:butt;stroke-linejoin:miter;stroke-miterlimit:4;stroke-dasharray:none;stroke-opacity:1" />
    <path
       id="path1839"
       d="m 0,0 h -4.969 l 0.047,0.199 c 0.645,0.137 1.072,0.272 1.283,0.405 0.317,0.199 0.576,0.494 0.777,0.884 0.201,0.391 0.301,0.801 0.301,1.231 0,0.062 -0.002,0.154 -0.005,0.275 C -2.805,2.51 -3.095,2.156 -3.436,1.934 -3.778,1.711 -4.127,1.6 -4.482,1.6 c -0.454,0 -0.838,0.158 -1.155,0.474 -0.316,0.317 -0.474,0.705 -0.474,1.166 0,0.453 0.144,0.835 0.433,1.146 0.289,0.31 0.617,0.466 0.985,0.466 0.234,0 0.552,-0.1 0.955,-0.299 -0.164,0.269 -0.271,0.474 -0.32,0.615 -0.049,0.141 -0.073,0.291 -0.073,0.451 0,0.449 0.154,0.827 0.463,1.134 0.309,0.307 0.695,0.46 1.16,0.46 0.457,0 0.843,-0.153 1.157,-0.46 0.315,-0.307 0.472,-0.677 0.472,-1.11 0,-0.344 -0.135,-0.707 -0.404,-1.09 0.328,0.156 0.525,0.244 0.592,0.263 0.105,0.032 0.224,0.047 0.357,0.047 0.391,0 0.73,-0.153 1.017,-0.46 C 0.97,4.097 1.113,3.717 1.113,3.264 1.113,2.795 0.956,2.401 0.642,2.083 0.327,1.765 -0.051,1.605 -0.492,1.605 c -0.242,0 -0.493,0.06 -0.753,0.179 -0.26,0.119 -0.487,0.279 -0.683,0.478 -0.137,0.144 -0.306,0.388 -0.51,0.732 0.016,-0.621 0.111,-1.112 0.285,-1.473 0.174,-0.362 0.44,-0.662 0.799,-0.9 0.243,-0.16 0.678,-0.301 1.307,-0.422 z"
       style="fill:#231f20;fill-opacity:1;fill-rule:nonzero;stroke:none"
       transform="matrix(0.35277776,0,0,-0.35277776,120.34685,73.09679)"
       clip-path="url(#clipPath1840)" />
    <path
       id="path1841"
       d="m 125.54063,74.572673 h -3.9998 v -5.000272 h 3.9998 z"
       style="fill:#ffffff;fill-opacity:1;fill-rule:nonzero;stroke:#c18f07;stroke-width:0.352778;stroke-linecap:butt;stroke-linejoin:miter;stroke-miterlimit:4;stroke-dasharray:none;stroke-opacity:1" />
    <path
       id="path1842"
       d="m 124.14328,72.199507 h -0.24804 l 0.0579,-0.496093 h 0.26459 v -0.177767 h -0.25218 l 0.0827,-0.719336 h -0.18604 l -0.0785,0.719336 h -0.3142 l 0.0786,-0.719336 h -0.1819 l -0.0827,0.719336 h -0.28112 v 0.177767 h 0.26458 l -0.0579,0.496093 h -0.28525 v 0.177767 h 0.26458 l -0.0827,0.719336 h 0.19017 l 0.0786,-0.719336 h 0.31419 l -0.0786,0.719336 h 0.18604 l 0.0785,-0.719336 h 0.26871 z m -0.38034,-0.496093 -0.0537,0.496093 h -0.31833 l 0.0579,-0.496093 z m 0,0"
       style="fill:#231f20;fill-opacity:1;fill-rule:nonzero;stroke:none;stroke-width:0.352778"
       aria-label="#" />
    <path
       id="path1843"
       d="m 121.54083,82.210668 h -3.99979 v -5.000276 h 3.99979 z"
       style="fill:#ffffff;fill-opacity:1;fill-rule:nonzero;stroke:#c18f07;stroke-width:0.352778;stroke-linecap:butt;stroke-linejoin:miter;stroke-miterlimit:4;stroke-dasharray:none;stroke-opacity:1" />
    <path
       id="path1844"
       d="M 0,0 C 0.348,-0.59 0.775,-1.223 1.283,-1.898 1.869,-2.68 2.342,-3.271 2.701,-3.674 2.412,-3.979 1.94,-4.568 1.283,-5.443 0.752,-6.154 0.326,-6.791 0.006,-7.354 c -0.106,0.204 -0.25,0.44 -0.434,0.709 -0.316,0.469 -0.709,1.014 -1.178,1.635 -0.101,0.137 -0.458,0.582 -1.072,1.336 0.395,0.449 0.903,1.09 1.524,1.922 C -0.693,-1.135 -0.309,-0.551 0,0"
       style="fill:#231f20;fill-opacity:1;fill-rule:nonzero;stroke:none"
       transform="matrix(0.35277776,0,0,-0.35277776,119.4632,78.19104)"
       clip-path="url(#clipPath1845)" />
    <path
       id="path1846"
       d="m 125.54063,82.210668 h -3.9998 v -5.000276 h 3.9998 z"
       style="fill:#ffffff;fill-opacity:1;fill-rule:nonzero;stroke:#c18f07;stroke-width:0.352778;stroke-linecap:butt;stroke-linejoin:miter;stroke-miterlimit:4;stroke-dasharray:none;stroke-opacity:1" />
    <path
       id="path1847"
       d="m 123.42808,80.735418 h 0.35554 v -2.323372 h -0.19844 c -0.13229,0.111621 -0.29352,0.206706 -0.46716,0.293522 v 0.214974 h 0.31006 z m 0,0"
       style="fill:#231f20;fill-opacity:1;fill-rule:nonzero;stroke:none;stroke-width:0.352778"
       aria-label="1" />
    <path
       id="path1848"
       d="m 129.54113,74.572673 h -3.9998 v -5.000272 h 3.9998 z"
       style="fill:#ffffff;fill-opacity:1;fill-rule:nonzero;stroke:#c18f07;stroke-width:0.352778;stroke-linecap:butt;stroke-linejoin:miter;stroke-miterlimit:4;stroke-dasharray:none;stroke-opacity:1" />
    <path
       id="path1849"
       d="m 127.07747,73.09661 h 0.22738 l 0.26044,-1.174088 c 0.17364,-0.235645 0.31833,-0.293522 0.48783,-0.293522 l 0.0496,-0.214974 c -0.1819,0 -0.28939,0.03307 -0.47129,0.23151 h -0.004 l 0.0413,-0.198437 h -0.22738 z m 0,0"
       style="fill:#231f20;fill-opacity:1;fill-rule:nonzero;stroke:none;stroke-width:0.352778"
       aria-label="r" />
    <path
       id="path1850"
       d="m 121.54094,74.670849 v 0.912283"
       style="fill:none;stroke:#231f20;stroke-width:0.176389;stroke-linecap:butt;stroke-linejoin:miter;stroke-miterlimit:4;stroke-dasharray:none;stroke-opacity:1" />
    <path
       id="path1851"
       d="m 120.65864,75.325746 0.87947,1.523294 0.87948,-1.523294 z"
       style="fill:#231f20;fill-opacity:1;fill-rule:nonzero;stroke:none;stroke-width:0.352778" />
    <path
       id="path1852"
       d="m 137.54107,74.572673 h -3.9998 v -5.000272 h 3.9998 z"
       style="fill:#ffffff;fill-opacity:1;fill-rule:nonzero;stroke:#c18f07;stroke-width:0.352778;stroke-linecap:butt;stroke-linejoin:miter;stroke-miterlimit:4;stroke-dasharray:none;stroke-opacity:1" />
    <path
       id="path1853"
       d="M 0,0 C 0.348,-0.59 0.775,-1.223 1.283,-1.898 1.869,-2.68 2.342,-3.271 2.701,-3.674 2.412,-3.979 1.94,-4.568 1.283,-5.443 0.752,-6.154 0.326,-6.791 0.006,-7.354 c -0.106,0.204 -0.25,0.44 -0.434,0.709 -0.316,0.469 -0.709,1.014 -1.177,1.635 -0.102,0.137 -0.46,0.582 -1.073,1.336 0.395,0.449 0.903,1.09 1.524,1.922 C -0.693,-1.135 -0.309,-0.551 0,0"
       style="fill:#231f20;fill-opacity:1;fill-rule:nonzero;stroke:none"
       transform="matrix(0.35277776,0,0,-0.35277776,135.46324,70.552239)"
       clip-path="url(#clipPath1854)" />
    <path
       id="path1855"
       d="m 141.54086,74.572673 h -3.99979 v -5.000272 h 3.99979 z"
       style="fill:#ffffff;fill-opacity:1;fill-rule:nonzero;stroke:#c18f07;stroke-width:0.352778;stroke-linecap:butt;stroke-linejoin:miter;stroke-miterlimit:4;stroke-dasharray:none;stroke-opacity:1" />
    <path
       id="path1856"
       d="m 140.14334,72.199507 h -0.24805 l 0.0579,-0.496093 h 0.26458 v -0.177767 h -0.25218 l 0.0827,-0.719336 h -0.18603 l -0.0785,0.719336 h -0.31419 l 0.0785,-0.719336 h -0.1819 l -0.0827,0.719336 h -0.28112 v 0.177767 h 0.26458 l -0.0579,0.496093 h -0.28526 v 0.177767 h 0.26459 l -0.0827,0.719336 h 0.19017 l 0.0786,-0.719336 h 0.31419 l -0.0786,0.719336 h 0.18604 l 0.0786,-0.719336 h 0.26872 z m -0.38034,-0.496093 -0.0538,0.496093 h -0.31832 l 0.0579,-0.496093 z m 0,0"
       style="fill:#231f20;fill-opacity:1;fill-rule:nonzero;stroke:none;stroke-width:0.352778"
       aria-label="#" />
    <path
       id="path1857"
       d="m 137.54107,82.210668 h -3.9998 v -5.000276 h 3.9998 z"
       style="fill:#ffffff;fill-opacity:1;fill-rule:nonzero;stroke:#c18f07;stroke-width:0.352778;stroke-linecap:butt;stroke-linejoin:miter;stroke-miterlimit:4;stroke-dasharray:none;stroke-opacity:1" />
    <path
       id="path1858"
       d="M 0,0 C 0.348,-0.59 0.775,-1.223 1.283,-1.898 1.869,-2.68 2.342,-3.271 2.701,-3.674 2.412,-3.979 1.94,-4.568 1.283,-5.443 0.752,-6.154 0.326,-6.791 0.006,-7.354 c -0.106,0.204 -0.25,0.44 -0.434,0.709 -0.316,0.469 -0.709,1.014 -1.177,1.635 -0.102,0.137 -0.46,0.582 -1.073,1.336 0.395,0.449 0.903,1.09 1.524,1.922 C -0.693,-1.135 -0.309,-0.551 0,0"
       style="fill:#231f20;fill-opacity:1;fill-rule:nonzero;stroke:none"
       transform="matrix(0.35277776,0,0,-0.35277776,135.46324,78.19104)"
       clip-path="url(#clipPath1859)" />
    <path
       id="path1860"
       d="m 141.54086,82.210668 h -3.99979 v -5.000276 h 3.99979 z"
       style="fill:#ffffff;fill-opacity:1;fill-rule:nonzero;stroke:#c18f07;stroke-width:0.352778;stroke-linecap:butt;stroke-linejoin:miter;stroke-miterlimit:4;stroke-dasharray:none;stroke-opacity:1" />
    <path
       id="path1861"
       d="m 139.75473,80.235191 c 0,0.152962 -0.0661,0.219108 -0.18604,0.219108 -0.11575,0 -0.1819,-0.06615 -0.1819,-0.219108 v -1.293978 c 0,-0.148828 0.0661,-0.219108 0.1819,-0.219108 0.11989,0 0.18604,0.07028 0.18604,0.219108 z m -0.74414,-0.09508 c 0,0.429948 0.16536,0.628385 0.5581,0.628385 0.39688,0 0.56224,-0.198437 0.56224,-0.628385 v -1.099674 c 0,-0.434082 -0.16536,-0.628386 -0.56224,-0.628386 -0.39274,0 -0.5581,0.194304 -0.5581,0.628386 z m 0,0"
       style="fill:#231f20;fill-opacity:1;fill-rule:nonzero;stroke:none;stroke-width:0.352778"
       aria-label="0" />
    <path
       id="path1862"
       d="m 145.54101,74.572673 h -3.9998 v -5.000272 h 3.9998 z"
       style="fill:#ffffff;fill-opacity:1;fill-rule:nonzero;stroke:#c18f07;stroke-width:0.352778;stroke-linecap:butt;stroke-linejoin:miter;stroke-miterlimit:4;stroke-dasharray:none;stroke-opacity:1" />
    <path
       id="path1863"
       d="m 143.07649,73.09661 h 0.22738 l 0.26045,-1.174088 c 0.17363,-0.235645 0.31832,-0.293522 0.48782,-0.293522 l 0.0496,-0.214974 c -0.1819,0 -0.28939,0.03307 -0.47129,0.23151 h -0.004 l 0.0413,-0.198437 h -0.22738 z m 0,0"
       style="fill:#231f20;fill-opacity:1;fill-rule:nonzero;stroke:none;stroke-width:0.352778"
       aria-label="r" />
    <path
       id="path1864"
       d="m 137.54096,74.670849 v 0.912283"
       style="fill:none;stroke:#231f20;stroke-width:0.176389;stroke-linecap:butt;stroke-linejoin:miter;stroke-miterlimit:4;stroke-dasharray:none;stroke-opacity:1" />
    <path
       id="path1865"
       d="m 136.65871,75.325746 0.87947,1.523294 0.87948,-1.523294 z"
       style="fill:#231f20;fill-opacity:1;fill-rule:nonzero;stroke:none;stroke-width:0.352778" />
    <path
       id="path1866"
       d="m 97.537226,49.658763 v 6.999464"
       style="fill:none;stroke:#231f20;stroke-width:0.176389;stroke-linecap:butt;stroke-linejoin:round;stroke-miterlimit:10;stroke-dasharray:none;stroke-opacity:1" />
  </g>
</svg>
